<svg width="22" height="23" viewBox="0 0 22 23" fill="none" xmlns="http://www.w3.org/2000/svg">
<path fill-rule="evenodd" clip-rule="evenodd" d="M11.0412 3.94374C10.8073 3.94374 10.5971 4.08638 10.5106 4.30371L7.61713 11.5806V19.4566H16.9188C17.1636 19.4566 17.2992 19.4561 17.3983 19.4486C17.4289 19.4463 17.4482 19.4437 17.4589 19.442C17.4668 19.4371 17.4739 19.4312 17.48 19.4243C17.4836 19.414 17.4894 19.3954 17.4969 19.3656C17.5212 19.2693 17.545 19.1358 17.5869 18.8947L18.594 13.0976C18.705 12.4583 18.778 12.034 18.8059 11.7076C18.8332 11.3893 18.8071 11.2583 18.7813 11.1878C18.6953 10.9529 18.5295 10.7557 18.3128 10.6308C18.2477 10.5933 18.1231 10.5452 17.8048 10.5175C17.4785 10.4892 17.0479 10.4884 16.399 10.4884H13.2588C13.2517 10.4884 13.2446 10.4885 13.2373 10.4885C13.1209 10.4885 12.9869 10.4885 12.8697 10.479C12.735 10.468 12.5477 10.4401 12.3525 10.3406C12.0973 10.2106 11.8899 10.0032 11.7599 9.74801C11.6606 9.55309 11.6326 9.3661 11.6216 9.23133C11.612 9.1142 11.612 8.98044 11.6121 8.86436C11.6121 8.85715 11.6121 8.85002 11.6121 8.84295V4.51324C11.6121 4.19905 11.3576 3.94374 11.0412 3.94374ZM11.0412 2.2002C12.3183 2.2002 13.3556 3.23389 13.3556 4.51324V8.7449L16.4366 8.7449C17.0379 8.74489 17.5448 8.74488 17.9555 8.78052C18.3828 8.8176 18.7994 8.89889 19.1834 9.12018C19.7547 9.44947 20.192 9.96927 20.4186 10.5885C20.5709 11.0047 20.5797 11.4291 20.5431 11.8564C20.5079 12.2672 20.4212 12.7666 20.3182 13.359L19.3003 19.2183C19.2645 19.4248 19.2298 19.6244 19.1874 19.7923C19.1406 19.9777 19.0708 20.1846 18.9353 20.3862C18.7426 20.673 18.4731 20.8997 18.1576 21.0405C17.9358 21.1395 17.72 21.1728 17.5293 21.1872C17.3566 21.2002 17.154 21.2002 16.9444 21.2002L3.06669 21.2002C2.95022 21.2002 2.81625 21.2003 2.69901 21.1907C2.56434 21.1797 2.37704 21.1518 2.18186 21.0524C1.9267 20.9224 1.71924 20.7149 1.58923 20.4598C1.48978 20.2646 1.46192 20.0773 1.45092 19.9426C1.44134 19.8254 1.44138 19.6914 1.44142 19.5749L1.44142 12.1886C1.44142 12.1815 1.44141 12.1744 1.44141 12.1672C1.44137 12.0507 1.44133 11.9167 1.45091 11.7995C1.46191 11.6648 1.48977 11.4775 1.58922 11.2823C1.71923 11.0272 1.92669 10.8197 2.18185 10.6897C2.37703 10.5903 2.56433 10.5624 2.69901 10.5514C2.81625 10.5418 2.95022 10.5419 3.06668 10.5419C3.07389 10.5419 3.08103 10.5419 3.08809 10.5419H6.15384L8.89049 3.65949C9.24081 2.77846 10.093 2.2002 11.0412 2.2002ZM5.87359 12.2855H3.18496L3.18496 19.4566H5.87359V12.2855Z" fill="#C2C4C8" fill-opacity="0.88" class="fill"/>
</svg>
