<svg width="23" height="23" viewBox="0 0 23 23" fill="none" xmlns="http://www.w3.org/2000/svg">
<path d="M17.7306 12.6734C16.8942 12.6916 16.2033 12.0188 16.2397 11.1825C16.2033 10.3825 16.8942 9.70972 17.7306 9.7279C18.5124 9.70972 19.2033 10.3825 19.2215 11.1825C19.2033 12.0188 18.5124 12.6916 17.7306 12.6734Z" fill="#F7F7F8" class="fill"/>
<path d="M11.8009 12.6734C10.9645 12.6916 10.2736 12.0188 10.31 11.1825C10.2736 10.3825 10.9645 9.70972 11.8009 9.7279C12.5827 9.70972 13.2736 10.3825 13.2918 11.1825C13.2736 12.0188 12.5827 12.6916 11.8009 12.6734Z" fill="#F7F7F8" class="fill"/>
<path d="M5.87121 12.6734C5.03483 12.6916 4.34392 12.0188 4.38028 11.1825C4.34392 10.3825 5.03483 9.70972 5.87121 9.7279C6.65304 9.70972 7.34396 10.3825 7.36214 11.1825C7.34396 12.0188 6.65304 12.6916 5.87121 12.6734Z" fill="#F7F7F8" class="fill"/>
</svg>
