<svg width="18" height="18" viewBox="0 0 18 18" fill="none" xmlns="http://www.w3.org/2000/svg">
<mask id="mask0_7016_363562" style="mask-type:alpha" maskUnits="userSpaceOnUse" x="0" y="0" width="19" height="19">
<path d="M10.8225 3.43402C10.8225 2.44344 10.0193 1.64307 9.03046 1.64307C8.29635 1.64307 7.63648 2.09081 7.36523 2.77297L5.27252 8.03594V16.3544L13.6013 16.3544C13.7635 16.3545 13.9204 16.3545 14.0541 16.3444C14.2017 16.3333 14.3688 16.3074 14.5406 16.2308C14.7849 16.1218 14.9936 15.9462 15.1428 15.7242C15.2477 15.5681 15.3018 15.4079 15.338 15.2643C15.3708 15.1343 15.3976 14.9798 15.4254 14.8199L16.2135 10.2831C16.2932 9.82446 16.3604 9.43777 16.3877 9.11972C16.416 8.78884 16.4092 8.46025 16.2913 8.13802C16.1158 7.65853 15.7772 7.25606 15.3348 7.00109C15.0376 6.82975 14.715 6.76681 14.3841 6.7381C14.0661 6.7105 13.6736 6.71051 13.2081 6.71052L10.8225 6.71052V3.43402Z" fill="#171719"/>
<path d="M3.92253 16.3544V8.10191L2.85596 8.10191C2.76578 8.10188 2.66205 8.10185 2.57127 8.10926C2.467 8.11778 2.32197 8.13935 2.17085 8.21636C1.97328 8.31702 1.81265 8.47765 1.71198 8.67522C1.63498 8.82634 1.61341 8.97137 1.60489 9.07564C1.59748 9.16642 1.59751 9.27015 1.59754 9.36033L1.59754 15.096C1.59751 15.1862 1.59748 15.2899 1.6049 15.3807C1.61342 15.485 1.63499 15.63 1.71199 15.7811C1.81266 15.9787 1.97329 16.1393 2.17086 16.24C2.32198 16.317 2.467 16.3386 2.57128 16.3471C2.66204 16.3545 2.76575 16.3545 2.85591 16.3544H3.92253Z" fill="#171719"/>
</mask>
<g mask="url(#mask0_7016_363562)">
<rect x="0.00012207" y="0.000488281" width="17.9999" height="17.9999" fill="#171719"/>
</g>
</svg>
