<svg width="32" height="32" viewBox="0 0 32 32" fill="none" xmlns="http://www.w3.org/2000/svg">
<path d="M24.0512 17.9995C22.9157 18.0242 21.9776 17.1108 22.027 15.9753C21.9776 14.8892 22.9157 13.9758 24.0512 14.0005C25.1127 13.9758 26.0507 14.8892 26.0754 15.9753C26.0507 17.1108 25.1127 18.0242 24.0512 17.9995Z" fill="#171719"/>
<path d="M16.0009 17.9995C14.8654 18.0242 13.9273 17.1108 13.9767 15.9753C13.9273 14.8892 14.8654 13.9758 16.0009 14.0005C17.0624 13.9758 18.0004 14.8892 18.0251 15.9753C18.0004 17.1108 17.0624 18.0242 16.0009 17.9995Z" fill="#171719"/>
<path d="M7.95062 17.9995C6.8151 18.0242 5.87705 17.1108 5.92642 15.9753C5.87705 14.8892 6.8151 13.9758 7.95062 14.0005C9.01209 13.9758 9.95013 14.8892 9.97482 15.9753C9.95013 17.1108 9.01209 18.0242 7.95062 17.9995Z" fill="#171719"/>
</svg>
