<svg width="34" height="33" viewBox="0 0 34 33" fill="none" xmlns="http://www.w3.org/2000/svg">
<mask id="mask0_1676_64760" style="mask-type:alpha" maskUnits="userSpaceOnUse" x="3" y="2" width="28" height="28">
<path fill-rule="evenodd" clip-rule="evenodd" d="M5.89844 16C5.89844 9.86964 10.8681 4.9 16.9984 4.9C23.1288 4.9 28.0984 9.86964 28.0984 16C28.0984 22.1304 23.1288 27.1 16.9984 27.1C10.8681 27.1 5.89844 22.1304 5.89844 16ZM13.3405 11.4924L12.9162 11.0681L12.0677 11.9167L12.492 12.3409L16.151 16L12.492 19.6591L12.0677 20.0833L12.9162 20.9319L13.3405 20.5076L16.9996 16.8485L20.6586 20.5076L21.0829 20.9319L21.9314 20.0833L21.5071 19.6591L17.8481 16L21.5071 12.3409L21.9314 11.9167L21.0829 11.0681L20.6586 11.4924L16.9996 15.1515L13.3405 11.4924Z" fill="black"/>
</mask>
<g mask="url(#mask0_1676_64760)">
<rect x="3" y="2" width="28" height="28" fill="#2E2F33" fill-opacity="0.88"/>
</g>
</svg>
