<svg width="17" height="18" viewBox="0 0 17 18" fill="none" xmlns="http://www.w3.org/2000/svg">
<path fill-rule="evenodd" clip-rule="evenodd" d="M2.7969 1.00586C2.59139 1.00584 2.3958 1.00582 2.23099 1.01929C2.05127 1.03397 1.84512 1.06822 1.63909 1.1732C1.3502 1.3204 1.11532 1.55527 0.968125 1.84416C0.863143 2.0502 0.828893 2.25635 0.814209 2.43607C0.800743 2.60088 0.800762 2.79647 0.800783 3.00198V11.7772C0.800762 11.9827 0.800743 12.1783 0.814209 12.3431C0.828893 12.5228 0.863143 12.7289 0.968125 12.935C1.11532 13.2239 1.3502 13.4587 1.63909 13.6059C1.84512 13.7109 2.05127 13.7452 2.23099 13.7599C2.3958 13.7733 2.59139 13.7733 2.7969 13.7733H11.5721C11.7776 13.7733 11.9732 13.7733 12.138 13.7599C12.3177 13.7452 12.5239 13.7109 12.7299 13.6059C13.0188 13.4587 13.2537 13.2239 13.4009 12.935C13.5059 12.7289 13.5401 12.5228 13.5548 12.3431C13.5683 12.1783 13.5682 11.9827 13.5682 11.7772V3.00198C13.5682 2.79647 13.5683 2.60088 13.5548 2.43607C13.5401 2.25635 13.5059 2.0502 13.4009 1.84416C13.2537 1.55527 13.0188 1.3204 12.7299 1.1732C12.5239 1.06822 12.3177 1.03397 12.138 1.01929C11.9732 1.00582 11.7776 1.00584 11.5721 1.00586H2.7969ZM2.25529 2.54102C2.25529 2.4964 2.29147 2.46022 2.33609 2.46022H12.0329C12.0775 2.46022 12.1137 2.4964 12.1137 2.54102V12.2378C12.1137 12.2824 12.0775 12.3186 12.0329 12.3186H2.3361C2.29147 12.3186 2.25529 12.2824 2.25529 12.2378V2.54102ZM16.7871 15.5757C16.8005 15.4108 16.8005 15.2153 16.8005 15.0097L16.8005 6.58182L15.346 6.58213V15.4708C15.346 15.5155 15.3098 15.5517 15.2652 15.5517H6.37647L6.37645 17.0059L14.8044 17.0059C15.0099 17.0059 15.2055 17.0059 15.3703 16.9924C15.55 16.9777 15.7561 16.9435 15.9622 16.8385C16.2511 16.6913 16.486 16.4564 16.6331 16.1676C16.7381 15.9615 16.7724 15.7554 16.7871 15.5757Z" fill="#C2C4C8" fill-opacity="0.88" stroke="#C2C4C8" stroke-opacity="0.88" stroke-width="0.242419" class="fill"/>
</svg>
