<svg width="33" height="32" viewBox="0 0 33 32" fill="none" xmlns="http://www.w3.org/2000/svg">
<path fill-rule="evenodd" clip-rule="evenodd" d="M16.5395 7.98994C16.2981 7.98994 16.081 8.1372 15.9918 8.36157L13.0046 15.8741V24.0052H22.6075C22.8602 24.0052 23.0002 24.0046 23.1025 23.9969C23.1341 23.9945 23.154 23.9918 23.1651 23.9901C23.1732 23.985 23.1805 23.9789 23.1869 23.9717C23.1905 23.9611 23.1965 23.942 23.2043 23.9112C23.2294 23.8117 23.2539 23.674 23.2972 23.425L24.3369 17.4402C24.4516 16.7802 24.5268 16.3421 24.5557 16.0052C24.5839 15.6766 24.5569 15.5414 24.5303 15.4685C24.4415 15.226 24.2703 15.0225 24.0466 14.8935C23.9793 14.8548 23.8507 14.8051 23.5221 14.7766C23.1852 14.7474 22.7407 14.7466 22.0708 14.7466H18.8289C18.8216 14.7466 18.8142 14.7466 18.8068 14.7466C18.6866 14.7466 18.5483 14.7467 18.4272 14.7368C18.2882 14.7254 18.0948 14.6966 17.8933 14.594C17.6299 14.4598 17.4157 14.2456 17.2815 13.9822C17.179 13.7809 17.1501 13.5879 17.1387 13.4487C17.1288 13.3278 17.1289 13.1897 17.1289 13.0699C17.1289 13.0625 17.1289 13.0551 17.1289 13.0478V8.57789C17.1289 8.25352 16.8662 7.98994 16.5395 7.98994ZM16.5395 6.18994C17.858 6.18994 18.9289 7.25711 18.9289 8.57789V12.9466L22.1097 12.9466C22.7304 12.9466 23.2537 12.9465 23.6777 12.9833C24.1189 13.0216 24.549 13.1055 24.9454 13.334C25.5352 13.674 25.9867 14.2106 26.2206 14.8499C26.3779 15.2795 26.3869 15.7177 26.3491 16.1589C26.3128 16.5829 26.2232 17.0985 26.117 17.71L25.0661 23.7591C25.0291 23.9723 24.9933 24.1783 24.9496 24.3517C24.9012 24.5431 24.8292 24.7567 24.6893 24.9648C24.4904 25.2609 24.2121 25.495 23.8864 25.6403C23.6574 25.7425 23.4346 25.7769 23.2377 25.7918C23.0594 25.8052 22.8503 25.8052 22.6339 25.8052L8.30682 25.8052C8.18658 25.8052 8.04827 25.8053 7.92724 25.7954C7.7882 25.784 7.59484 25.7552 7.39334 25.6526C7.12991 25.5183 6.91574 25.3042 6.78152 25.0408C6.67885 24.8393 6.65008 24.6459 6.63873 24.5069C6.62884 24.3858 6.62888 24.2475 6.62892 24.1273L6.62892 16.5018C6.62892 16.4945 6.62891 16.4871 6.62891 16.4797C6.62887 16.3594 6.62883 16.2211 6.63872 16.1001C6.65008 15.961 6.67884 15.7677 6.78151 15.5662C6.91573 15.3028 7.1299 15.0886 7.39333 14.9544C7.59483 14.8517 7.78819 14.8229 7.92723 14.8116C8.04826 14.8017 8.18657 14.8017 8.30681 14.8018C8.31425 14.8018 8.32162 14.8018 8.32891 14.8018H11.4939L14.3192 7.69648C14.6809 6.78693 15.5607 6.18994 16.5395 6.18994ZM11.2046 16.6018H8.42891L8.42892 24.0052H11.2046V16.6018Z" fill="#F7F7F8" class="fill"/>
</svg>
