<svg width="32" height="32" viewBox="0 0 32 32" fill="none" xmlns="http://www.w3.org/2000/svg">
<mask id="mask0_778_180898" style="mask-type:alpha" maskUnits="userSpaceOnUse" x="3" y="4" width="26" height="24">
<path fill-rule="evenodd" clip-rule="evenodd" d="M16.0421 7.99006C15.791 7.99006 15.5653 8.13732 15.4725 8.36169L12.3658 15.8743V24.0053H22.3528C22.6156 24.0053 22.7612 24.0047 22.8676 23.997C22.9004 23.9946 22.9212 23.992 22.9327 23.9902C22.9411 23.9852 22.9487 23.979 22.9553 23.9719C22.9591 23.9612 22.9654 23.9421 22.9734 23.9113C22.9996 23.8119 23.0251 23.6741 23.0701 23.4251L24.1514 17.4404C24.2706 16.7803 24.3489 16.3423 24.3789 16.0054C24.4082 15.6767 24.3802 15.5415 24.3525 15.4686C24.2602 15.2261 24.0821 15.0226 23.8494 14.8937C23.7795 14.8549 23.6457 14.8052 23.304 14.7767C22.9536 14.7475 22.4914 14.7467 21.7947 14.7467H18.4231C18.4155 14.7467 18.4078 14.7467 18.4001 14.7467C18.275 14.7467 18.1312 14.7468 18.0053 14.7369C17.8607 14.7255 17.6596 14.6968 17.4501 14.5941C17.1761 14.4599 16.9534 14.2457 16.8138 13.9823C16.7071 13.7811 16.6771 13.588 16.6653 13.4489C16.655 13.3279 16.655 13.1899 16.6551 13.07C16.6551 13.0626 16.6551 13.0552 16.6551 13.0479V8.57801C16.6551 8.25364 16.3818 7.99006 16.0421 7.99006ZM16.0421 6.19006C17.4133 6.19006 18.5271 7.25723 18.5271 8.57801V12.9467L21.8351 12.9467C22.4806 12.9467 23.0248 12.9467 23.4658 12.9835C23.9246 13.0217 24.3719 13.1057 24.7842 13.3341C25.3976 13.6741 25.8671 14.2107 26.1104 14.85C26.274 15.2797 26.2834 15.7178 26.2441 16.159C26.2063 16.5831 26.1131 17.0986 26.0026 17.7102L24.9097 23.7592C24.8712 23.9724 24.834 24.1784 24.7885 24.3518C24.7383 24.5432 24.6633 24.7568 24.5179 24.965C24.311 25.261 24.0216 25.4951 23.6828 25.6404C23.4447 25.7426 23.2129 25.7771 23.0082 25.7919C22.8228 25.8053 22.6053 25.8053 22.3803 25.8053L7.48013 25.8053C7.35508 25.8053 7.21124 25.8054 7.08537 25.7955C6.94077 25.7841 6.73967 25.7554 6.53011 25.6527C6.25615 25.5185 6.03341 25.3043 5.89382 25.0409C5.78705 24.8394 5.75713 24.646 5.74532 24.507C5.73503 24.3859 5.73508 24.2476 5.73512 24.1274L5.73512 16.5019C5.73512 16.4946 5.73512 16.4872 5.73511 16.4798C5.73507 16.3595 5.73503 16.2212 5.74531 16.1002C5.75712 15.9612 5.78704 15.7678 5.89381 15.5663C6.0334 15.3029 6.25614 15.0887 6.5301 14.9545C6.73966 14.8518 6.94076 14.823 7.08536 14.8117C7.21124 14.8018 7.35507 14.8018 7.48012 14.8019C7.48786 14.8019 7.49553 14.8019 7.50311 14.8019H10.7947L13.733 7.69661C14.1091 6.78705 15.0241 6.19006 16.0421 6.19006ZM10.4938 16.6019H7.60711L7.60712 24.0053H10.4938V16.6019Z" fill="#171719"/>
</mask>
<g mask="url(#mask0_778_180898)">
<rect x="1.2533" y="1.81641" width="29.498" height="28.3636" fill="#171719"/>
</g>
</svg>
