<svg width="18" height="19" viewBox="0 0 18 19" fill="none" xmlns="http://www.w3.org/2000/svg">
<mask id="mask0_1387_11736" style="mask-type:alpha" maskUnits="userSpaceOnUse" x="0" y="0" width="18" height="19">
<path fill-rule="evenodd" clip-rule="evenodd" d="M9.03033 3.11806C8.84925 3.11806 8.68647 3.22851 8.61957 3.39678L6.37917 9.03119V15.1294H13.5813C13.7709 15.1294 13.8758 15.129 13.9525 15.1232C13.9762 15.1214 13.9912 15.1195 13.9995 15.1181C14.0056 15.1143 14.0111 15.1097 14.0158 15.1044C14.0186 15.0964 14.0231 15.082 14.0289 15.059C14.0477 14.9844 14.0661 14.881 14.0986 14.6943L14.8783 10.2058C14.9643 9.71075 15.0208 9.38219 15.0425 9.12951C15.0636 8.88303 15.0434 8.78162 15.0234 8.72698C14.9568 8.54511 14.8284 8.39245 14.6606 8.29574C14.6102 8.26668 14.5137 8.22943 14.2673 8.20804C14.0146 8.18612 13.6812 8.18552 13.1788 8.18552H10.7474C10.7419 8.18552 10.7364 8.18552 10.7308 8.18552C10.6406 8.18555 10.5369 8.18559 10.4461 8.17817C10.3418 8.16965 10.1968 8.14808 10.0457 8.07108C9.84812 7.97041 9.68749 7.80978 9.58683 7.61221C9.50993 7.46129 9.48829 7.31651 9.47974 7.21215C9.47232 7.12146 9.47235 7.0179 9.47238 6.92802C9.47238 6.92244 9.47238 6.91691 9.47238 6.91144V3.55902C9.47238 3.31574 9.27533 3.11806 9.03033 3.11806ZM9.03033 1.76807C10.0192 1.76807 10.8224 2.56844 10.8224 3.55902V6.83552L13.2079 6.83552C13.6735 6.83551 14.066 6.8355 14.384 6.8631C14.7148 6.89181 15.0374 6.95475 15.3347 7.12609C15.7771 7.38106 16.1157 7.78353 16.2911 8.26302C16.4091 8.58525 16.4159 8.91384 16.3875 9.24472C16.3603 9.56279 16.2931 9.94944 16.2134 10.4081L15.4253 14.9449C15.3975 15.1048 15.3707 15.2593 15.3378 15.3893C15.3016 15.5329 15.2476 15.6931 15.1427 15.8492C14.9935 16.0712 14.7848 16.2468 14.5405 16.3558C14.3687 16.4324 14.2016 16.4583 14.054 16.4694C13.9203 16.4795 13.7634 16.4795 13.6011 16.4794L2.85584 16.4794C2.76566 16.4795 2.66193 16.4795 2.57116 16.4721C2.46688 16.4636 2.32186 16.442 2.17073 16.365C1.97316 16.2643 1.81254 16.1037 1.71187 15.9061C1.63487 15.755 1.6133 15.61 1.60478 15.5057C1.59736 15.4149 1.59739 15.3112 1.59742 15.221L1.59742 9.50191C1.59742 9.49644 1.59742 9.49091 1.59742 9.48533C1.59739 9.39515 1.59735 9.29142 1.60477 9.20064C1.61329 9.09637 1.63486 8.95134 1.71186 8.80022C1.81253 8.60265 1.97316 8.44202 2.17073 8.34136C2.32185 8.26435 2.46687 8.24278 2.57115 8.23426C2.66193 8.22685 2.76566 8.22688 2.85584 8.22691C2.86142 8.22691 2.86694 8.22691 2.87241 8.22691H5.24617L7.3651 2.89797C7.63635 2.21581 8.29622 1.76807 9.03033 1.76807ZM5.02917 9.57691H2.94741L2.94742 15.1294H5.02917V9.57691Z" fill="#171719"/>
</mask>
<g mask="url(#mask0_1387_11736)">
<rect y="0.125488" width="17.9999" height="17.9999" fill="#171719"/>
</g>
</svg>
