<svg xmlns="http://www.w3.org/2000/svg" width="20" height="20" viewBox="0 0 20 20" fill="none">
<path d="M11.4577 3.95835C11.4577 4.76376 10.8048 5.41668 9.99935 5.41668C9.19393 5.41668 8.54102 4.76376 8.54102 3.95835C8.54102 3.15293 9.19393 2.50001 9.99935 2.50001C10.8048 2.50001 11.4577 3.15293 11.4577 3.95835Z" fill="#171719"/>
<path d="M11.4577 10C11.4577 10.8054 10.8048 11.4583 9.99935 11.4583C9.19393 11.4583 8.54102 10.8054 8.54102 10C8.54102 9.19459 9.19393 8.54167 9.99935 8.54167C10.8048 8.54167 11.4577 9.19459 11.4577 10Z" fill="#171719"/>
<path d="M9.99935 17.5C10.8048 17.5 11.4577 16.8471 11.4577 16.0417C11.4577 15.2363 10.8048 14.5833 9.99935 14.5833C9.19393 14.5833 8.54102 15.2363 8.54102 16.0417C8.54102 16.8471 9.19393 17.5 9.99935 17.5Z" fill="#171719"/>
</svg>