<svg width="18" height="18" viewBox="0 0 18 18" fill="none" xmlns="http://www.w3.org/2000/svg">
<path fill-rule="evenodd" clip-rule="evenodd" d="M5.0625 4.875C5.0625 4.56434 5.31434 4.3125 5.625 4.3125C5.93566 4.3125 6.1875 4.56434 6.1875 4.875L6.1875 9C6.1875 9.51777 6.60723 9.9375 7.125 9.9375L11.0175 9.9375L9.3523 8.27233C9.13263 8.05266 9.13263 7.6965 9.3523 7.47683C9.57197 7.25716 9.92813 7.25716 10.1478 7.47683L12.7728 10.1018C12.9925 10.3215 12.9925 10.6777 12.7728 10.8973L10.1478 13.5223C9.92813 13.742 9.57197 13.742 9.3523 13.5223C9.13263 13.3027 9.13263 12.9465 9.3523 12.7268L11.0166 11.0625L7.125 11.0625C5.98591 11.0625 5.0625 10.1391 5.0625 9L5.0625 4.875Z" fill="#1D1F1D"/>
</svg>
