<svg xmlns="http://www.w3.org/2000/svg" width="18" height="19" viewBox="0 0 18 19" fill="none">
<path fill-rule="evenodd" clip-rule="evenodd" d="M2.34241 0.501222H2.34248H12.0754H12.0755C12.3002 0.501201 12.5214 0.50118 12.7095 0.516549C12.917 0.533506 13.1651 0.573734 13.4155 0.701315C13.7609 0.877318 14.0418 1.15816 14.2178 1.50358C14.3454 1.75397 14.3856 2.00204 14.4026 2.20958C14.4179 2.3977 14.4179 2.61893 14.4179 2.84362V2.84364V12.5764V12.5765C14.4179 12.8012 14.4179 13.0224 14.4026 13.2105C14.3856 13.418 14.3454 13.6661 14.2178 13.9165C14.0418 14.2619 13.7609 14.5428 13.4155 14.7188C13.1651 14.8463 12.917 14.8866 12.7095 14.9035C12.5214 14.9189 12.3001 14.9189 12.0754 14.9189H2.3425C2.11778 14.9189 1.89653 14.9189 1.70839 14.9035C1.50085 14.8866 1.25277 14.8463 1.00238 14.7188C0.656946 14.5428 0.376102 14.2619 0.200096 13.9165C0.072513 13.6661 0.032284 13.418 0.0153274 13.2105C-4.36536e-05 13.0224 -2.11214e-05 12.8011 1.76316e-06 12.5764V2.84366C-2.11214e-05 2.61895 -4.36536e-05 2.39771 0.0153274 2.20958C0.032284 2.00204 0.0725129 1.75397 0.200096 1.50358C0.376102 1.15816 0.656946 0.877317 1.00238 0.701315C1.25277 0.573734 1.50085 0.533506 1.70839 0.516549C1.8965 0.50118 2.11772 0.501201 2.34241 0.501222ZM1.88058 13.0381V2.38161H12.5373V13.0381H1.88058ZM18 16.1587L18 6.68053L16.1194 6.68093V16.621H6.17914L6.17911 18.5012L15.6574 18.5012C15.8822 18.5012 16.1034 18.5013 16.2916 18.4859C16.4991 18.4689 16.7472 18.4287 16.9976 18.3011C17.343 18.1251 17.6239 17.8443 17.7999 17.4989C17.9275 17.2485 17.9677 17.0004 17.9847 16.7929C18 16.6047 18 16.3835 18 16.1588V16.1587Z" fill="#C2C4C8" fill-opacity="0.88" class="fill"/>
</svg>