<svg width="15" height="10" viewBox="0 0 15 10" fill="none" xmlns="http://www.w3.org/2000/svg">
<path fill-rule="evenodd" clip-rule="evenodd" d="M3.81661 4.20185C4.3191 4.59897 5.06016 4.42796 5.33781 3.85081L6.44792 1.54329C6.80436 0.802374 7.85291 0.784274 8.23471 1.51245L9.54228 4.00627C9.83314 4.561 10.5566 4.71484 11.048 4.32646L12.556 3.13463C13.2519 2.58466 14.2662 3.14563 14.1702 4.0274L13.7235 8.13147C13.6683 8.63888 13.2398 9.02327 12.7294 9.02327H5.1051C5.10509 9.02327 5.10509 9.02326 5.10509 9.02326C5.1051 9.02325 5.10509 9.02324 5.10509 9.02324H2.84945H2.29288C1.78247 9.02324 1.35398 8.63886 1.29875 8.13145L0.852046 4.02737C0.756072 3.14561 1.77035 2.58464 2.46623 3.13461L3.81661 4.20185Z" fill="white"/>
</svg>
