<svg width="32" height="32" viewBox="0 0 32 32" fill="none" xmlns="http://www.w3.org/2000/svg">
<path d="M18.4298 8.57837C18.4298 7.2576 17.3589 6.19043 16.0404 6.19043C15.0616 6.19043 14.1818 6.78742 13.8201 7.69697L11.0298 14.7143V25.8057L22.1349 25.8057C22.3512 25.8057 22.5604 25.8057 22.7387 25.7923C22.9355 25.7774 23.1583 25.743 23.3873 25.6408C23.713 25.4955 23.9913 25.2614 24.1902 24.9653C24.3301 24.7572 24.4022 24.5436 24.4505 24.3522C24.4942 24.1788 24.53 23.9728 24.567 23.7595L25.6179 17.7105C25.7242 17.099 25.8137 16.5834 25.8501 16.1593C25.8879 15.7182 25.8788 15.28 25.7216 14.8504C25.4876 14.2111 25.0361 13.6744 24.4463 13.3345C24.0499 13.106 23.6198 13.0221 23.1787 12.9838C22.7546 12.947 22.2313 12.947 21.6106 12.9471L18.4298 12.9471V8.57837Z" fill="#171719" class="fill"/>
<path d="M9.22983 25.8057V14.8023L7.80773 14.8022C7.68749 14.8022 7.54918 14.8022 7.42814 14.8121C7.28911 14.8234 7.09574 14.8522 6.89424 14.9548C6.63082 15.0891 6.41664 15.3032 6.28242 15.5667C6.17975 15.7682 6.15099 15.9615 6.13963 16.1006C6.12974 16.2216 6.12979 16.3599 6.12983 16.4802L6.12983 24.1278C6.1298 24.248 6.12975 24.3863 6.13964 24.5073C6.151 24.6464 6.17976 24.8397 6.28243 25.0412C6.41665 25.3047 6.63083 25.5188 6.89425 25.6531C7.09575 25.7557 7.28912 25.7845 7.42815 25.7959C7.54917 25.8057 7.68744 25.8057 7.80767 25.8057H9.22983Z" fill="#171719" class="fill"/>
</svg>
