<svg width="40" height="17" viewBox="0 0 40 17" fill="none" xmlns="http://www.w3.org/2000/svg">
<path fill-rule="evenodd" clip-rule="evenodd" d="M26.1016 10.6289L26.1016 13.0588C26.1016 13.2389 26.1016 13.4104 26.0898 13.5548C26.0769 13.7124 26.0469 13.8931 25.9549 14.0737C25.8259 14.3269 25.62 14.5328 25.3667 14.6618C25.1861 14.7539 25.0054 14.7839 24.8479 14.7968C24.7034 14.8086 24.532 14.8085 24.3519 14.8085H15.2429C15.0628 14.8085 14.8913 14.8086 14.7469 14.7968C14.5893 14.7839 14.4086 14.7539 14.228 14.6618C13.9748 14.5328 13.7689 14.3269 13.6399 14.0737C13.5478 13.8931 13.5178 13.7124 13.5049 13.5548C13.4931 13.4104 13.4931 13.2389 13.4932 13.0588V10.6289H14.7682V13.4625C14.7682 13.5016 14.7999 13.5333 14.839 13.5333H24.7557C24.7949 13.5333 24.8266 13.5016 24.8266 13.4625V10.6289H26.1016Z" fill="#171719"/>
<path d="M23.272 6.10795C23.0307 6.36433 22.6273 6.37656 22.3709 6.13526L20.4349 4.31314V10.9837C20.4349 11.3357 20.1494 11.6212 19.7974 11.6212C19.4453 11.6212 19.1599 11.3357 19.1599 10.9837V4.31314L17.2239 6.13525C16.9675 6.37656 16.564 6.36433 16.3227 6.10795C16.0814 5.85156 16.0936 5.4481 16.35 5.2068L19.3604 2.37347C19.6059 2.14244 19.9888 2.14244 20.2343 2.37347L23.2447 5.2068C23.5011 5.4481 23.5133 5.85156 23.272 6.10795Z" fill="#171719"/>
</svg>
