<svg width="22" height="22" viewBox="0 0 22 22" fill="none" xmlns="http://www.w3.org/2000/svg">
<path fill-rule="evenodd" clip-rule="evenodd" d="M19.1584 13.7505L19.1584 16.8949C19.1584 17.1281 19.1584 17.35 19.1432 17.5369C19.1265 17.7408 19.0876 17.9746 18.9686 18.2084C18.8016 18.5361 18.5351 18.8025 18.2074 18.9695C17.9737 19.0886 17.7398 19.1274 17.536 19.1441C17.349 19.1594 17.1272 19.1593 16.8941 19.1593H5.10617C4.87307 19.1593 4.65116 19.1594 4.46421 19.1441C4.26034 19.1274 4.02649 19.0886 3.79276 18.9695C3.46505 18.8025 3.19861 18.5361 3.03163 18.2084C2.91254 17.9746 2.87369 17.7408 2.85703 17.5369C2.84175 17.3499 2.84177 17.1281 2.8418 16.8949V13.7505H4.49179V17.4174C4.49179 17.468 4.53284 17.509 4.58346 17.509H17.4167C17.4674 17.509 17.5084 17.468 17.5084 17.4174V13.7505H19.1584Z" fill="#171719"/>
<path d="M15.4966 7.89983C15.1844 8.23162 14.6622 8.24744 14.3305 7.93516L11.8251 5.57715V14.2095C11.8251 14.6652 11.4557 15.0345 11.0001 15.0345C10.5444 15.0345 10.1751 14.6652 10.1751 14.2095V5.57715L7.66969 7.93516C7.3379 8.24744 6.81578 8.23162 6.50351 7.89983C6.19123 7.56804 6.20705 7.04592 6.53884 6.73364L10.4346 3.06701C10.7523 2.76803 11.2478 2.76803 11.5655 3.06701L15.4613 6.73364C15.7931 7.04592 15.8089 7.56804 15.4966 7.89983Z" fill="#171719"/>
</svg>
