<svg width="28" height="28" viewBox="0 0 28 28" fill="none" xmlns="http://www.w3.org/2000/svg">
<mask id="mask0_373_10785" style="mask-type:alpha" maskUnits="userSpaceOnUse" x="4" y="4" width="20" height="20">
<path d="M15.4584 7.95833C15.4584 8.76375 14.8055 9.41667 14.0001 9.41667C13.1947 9.41667 12.5417 8.76375 12.5417 7.95833C12.5417 7.15292 13.1947 6.5 14.0001 6.5C14.8055 6.5 15.4584 7.15292 15.4584 7.95833Z" fill="#171719"/>
<path d="M15.4584 14C15.4584 14.8054 14.8055 15.4583 14.0001 15.4583C13.1947 15.4583 12.5417 14.8054 12.5417 14C12.5417 13.1946 13.1947 12.5417 14.0001 12.5417C14.8055 12.5417 15.4584 13.1946 15.4584 14Z" fill="#171719"/>
<path d="M14.0001 21.5C14.8055 21.5 15.4584 20.8471 15.4584 20.0417C15.4584 19.2363 14.8055 18.5833 14.0001 18.5833C13.1947 18.5833 12.5417 19.2363 12.5417 20.0417C12.5417 20.8471 13.1947 21.5 14.0001 21.5Z" fill="#171719"/>
</mask>
<g mask="url(#mask0_373_10785)">
<rect x="4" y="4" width="20" height="20" fill="#171719"/>
</g>
</svg>
