<svg width="52" height="24" viewBox="0 0 52 24" fill="none" xmlns="http://www.w3.org/2000/svg">
<path fill-rule="evenodd" clip-rule="evenodd" d="M18.5703 2.10156C18.316 2.10154 18.074 2.10152 17.87 2.11818C17.6476 2.13635 17.3925 2.17874 17.1375 2.30865C16.78 2.49081 16.4893 2.78148 16.3072 3.13898C16.1773 3.39396 16.1349 3.64907 16.1167 3.87148C16.1001 4.07544 16.1001 4.31749 16.1001 4.57181V15.4313C16.1001 15.6856 16.1001 15.9277 16.1167 16.1316C16.1349 16.3541 16.1773 16.6092 16.3072 16.8641C16.4893 17.2217 16.78 17.5123 17.1375 17.6945C17.3925 17.8244 17.6476 17.8668 17.87 17.8849C18.074 17.9016 18.316 17.9016 18.5703 17.9016H29.4299C29.6842 17.9016 29.9262 17.9016 30.1302 17.8849C30.3526 17.8668 30.6077 17.8244 30.8627 17.6945C31.2202 17.5123 31.5109 17.2217 31.693 16.8641C31.8229 16.6092 31.8653 16.3541 31.8835 16.1316C31.9001 15.9277 31.9001 15.6856 31.9001 15.4313V4.5718C31.9001 4.31748 31.9001 4.07544 31.8835 3.87148C31.8653 3.64907 31.8229 3.39396 31.693 3.13898C31.5109 2.78148 31.2202 2.49081 30.8627 2.30865C30.6077 2.17874 30.3526 2.13635 30.1302 2.11818C29.9262 2.10152 29.6842 2.10154 29.4299 2.10156H18.5703ZM17.9001 4.00137C17.9001 3.94614 17.9449 3.90137 18.0001 3.90137H30.0001C30.0553 3.90137 30.1001 3.94614 30.1001 4.00137V16.0014C30.1001 16.0566 30.0553 16.1014 30.0001 16.1014H18.0001C17.9449 16.1014 17.9001 16.0566 17.9001 16.0014V4.00137ZM35.8835 20.132C35.9002 19.9281 35.9001 19.686 35.9001 19.4317L35.9001 9.00195L34.1001 9.00234V20.0023C34.1001 20.0576 34.0554 20.1023 34.0001 20.1023H23.0001L23.0001 21.9019L33.4299 21.902C33.6842 21.902 33.9262 21.902 34.1302 21.8853C34.3526 21.8672 34.6077 21.8248 34.8627 21.6949C35.2202 21.5127 35.5109 21.222 35.693 20.8645C35.8229 20.6096 35.8653 20.3544 35.8835 20.132Z" fill="#171719" class="fill"/>
</svg>
