<svg width="16" height="16" viewBox="0 0 16 16" fill="none" xmlns="http://www.w3.org/2000/svg">
<path fill-rule="evenodd" clip-rule="evenodd" d="M8.33249 1.04546C8.12624 1.16451 7.87216 1.16451 7.66592 1.04546L6.43264 0.333568C6.11374 0.149484 5.70599 0.258802 5.52194 0.577726L4.85883 1.7268C4.73976 1.93313 4.51964 2.06024 4.28141 2.06024H2.83947C2.47128 2.06024 2.1728 2.35872 2.1728 2.72691V4.21693C2.1728 4.45512 2.04573 4.67521 1.83945 4.79429L0.577323 5.52294C0.25847 5.70702 0.149205 6.11472 0.333265 6.43359L1.0452 7.66693C1.16426 7.87319 1.16425 8.1273 1.04517 8.33354L0.333292 9.56656C0.149214 9.8854 0.25843 10.2931 0.577244 10.4772L1.83953 11.2062C2.04576 11.3253 2.1728 11.5453 2.1728 11.7835V13.094C2.1728 13.4622 2.47128 13.7606 2.83947 13.7606H4.17781C4.41603 13.7606 4.63616 13.8878 4.75523 14.0941L5.52195 15.4227C5.70599 15.7417 6.11375 15.851 6.43265 15.6669L7.66592 14.955C7.87216 14.836 8.12624 14.836 8.33249 14.955L9.56578 15.6669C9.88467 15.851 10.2924 15.7417 10.4765 15.4228L11.2436 14.0937C11.3626 13.8874 11.5828 13.7602 11.821 13.7602H13.2341C13.6023 13.7602 13.9008 13.4618 13.9008 13.0936V11.7411C13.9008 11.5029 14.0278 11.2829 14.234 11.1638L15.4227 10.4773C15.7415 10.2931 15.8507 9.88538 15.6666 9.56655L14.9546 8.33366C14.8354 8.12735 14.8354 7.87314 14.9546 7.66683L15.6665 6.43402C15.8507 6.11516 15.7415 5.70738 15.4226 5.52326L14.2341 4.8371C14.0279 4.71801 13.9008 4.49792 13.9008 4.25975V2.72731C13.9008 2.35912 13.6023 2.06064 13.2341 2.06064H11.718C11.4799 2.06064 11.2598 1.93362 11.1407 1.7274L10.4765 0.577405C10.2924 0.258626 9.88478 0.149412 9.56596 0.333449L8.33249 1.04546Z" fill="#3D6AFF"/>
<path fill-rule="evenodd" clip-rule="evenodd" d="M10.9652 5.72803L11.8668 6.64283L7.29479 11.2428L4.56079 8.47083L5.45839 7.56763L7.29319 9.40003L10.9652 5.72803Z" fill="white"/>
</svg>
