<svg width="41" height="24" viewBox="0 0 41 24" fill="none" xmlns="http://www.w3.org/2000/svg">
<path d="M19.083 10.5833C19.083 10.9745 18.7659 11.2916 18.3747 11.2916C17.9835 11.2916 17.6663 10.9745 17.6663 10.5833C17.6663 10.1921 17.9835 9.87493 18.3747 9.87493C18.7659 9.87493 19.083 10.1921 19.083 10.5833Z" fill="#171719"/>
<path d="M23.333 10.5833C23.333 10.9745 23.0158 11.2916 22.6246 11.2916C22.2334 11.2916 21.9163 10.9745 21.9163 10.5833C21.9163 10.1921 22.2334 9.87493 22.6246 9.87493C23.0158 9.87493 23.333 10.1921 23.333 10.5833Z" fill="#171719"/>
<path fill-rule="evenodd" clip-rule="evenodd" d="M18.0544 12.7237C18.3589 12.5469 18.749 12.6503 18.9259 12.9547C19.249 13.511 19.8515 13.8841 20.5351 13.8841C21.2186 13.8841 21.8211 13.511 22.1443 12.9547C22.3211 12.6503 22.7113 12.5469 23.0157 12.7237C23.3202 12.9006 23.4236 13.2908 23.2467 13.5952C22.7057 14.5264 21.6932 15.1591 20.5351 15.1591C19.377 15.1591 18.3644 14.5264 17.8234 13.5952C17.6466 13.2908 17.75 12.9006 18.0544 12.7237Z" fill="#171719"/>
<path fill-rule="evenodd" clip-rule="evenodd" d="M20.4997 6.26243C17.3309 6.26243 14.7622 8.83119 14.7622 11.9999C14.7622 15.1687 17.3309 17.7374 20.4997 17.7374C23.6684 17.7374 26.2371 15.1687 26.2371 11.9999C26.2371 8.83119 23.6684 6.26243 20.4997 6.26243ZM13.4872 11.9999C13.4872 8.12703 16.6268 4.98743 20.4997 4.98743C24.3725 4.98743 27.5121 8.12703 27.5121 11.9999C27.5121 15.8728 24.3725 19.0124 20.4997 19.0124C16.6268 19.0124 13.4872 15.8728 13.4872 11.9999Z" fill="#171719"/>
<path d="M26.8127 9.98364V7.85312H24.6934V6.61967H26.8127V4.50037H28.0461V6.61967H30.1766V7.85312H28.0461V9.98364H26.8127Z" fill="#171719"/>
<path fill-rule="evenodd" clip-rule="evenodd" d="M25.3776 11.4206V9.29012H23.2583V5.18607H25.3776V3.06677H29.4816V5.18607H31.6122V9.29012H29.4816V11.4206H25.3776ZM30.1769 7.85482V6.62137H28.0464V4.50207H26.8129V6.62137H24.6936V7.85482H26.8129V9.98534H28.0464V7.85482H30.1769Z" fill="white" class="exclude"/>
</svg>
