<svg xmlns="http://www.w3.org/2000/svg" width="17" height="17" viewBox="0 0 17 17" fill="none">
  <path fill-rule="evenodd" clip-rule="evenodd" d="M2.7969 0.50342C2.59139 0.503399 2.3958 0.50338 2.23099 0.516846C2.05127 0.531529 1.84512 0.56578 1.63909 0.670761C1.3502 0.817958 1.11532 1.05283 0.968125 1.34172C0.863143 1.54776 0.828893 1.7539 0.814209 1.93363C0.800743 2.09844 0.800762 2.29403 0.800783 2.49954V11.2747C0.800762 11.4802 0.800743 11.6758 0.814209 11.8406C0.828893 12.0204 0.863143 12.2265 0.968125 12.4325C1.11532 12.7214 1.3502 12.9563 1.63909 13.1035C1.84512 13.2085 2.05127 13.2427 2.23099 13.2574C2.3958 13.2709 2.59139 13.2709 2.7969 13.2708H11.5721C11.7776 13.2709 11.9732 13.2709 12.138 13.2574C12.3177 13.2427 12.5239 13.2085 12.7299 13.1035C13.0188 12.9563 13.2537 12.7214 13.4009 12.4325C13.5059 12.2265 13.5401 12.0204 13.5548 11.8406C13.5683 11.6758 13.5682 11.4802 13.5682 11.2747V2.49953C13.5682 2.29403 13.5683 2.09844 13.5548 1.93363C13.5401 1.7539 13.5059 1.54776 13.4009 1.34172C13.2537 1.05283 13.0188 0.817958 12.7299 0.670761C12.5239 0.56578 12.3177 0.531529 12.138 0.516846C11.9732 0.50338 11.7776 0.503399 11.5721 0.50342H2.7969ZM2.25529 2.03858C2.25529 1.99396 2.29147 1.95778 2.33609 1.95778H12.0329C12.0775 1.95778 12.1137 1.99396 12.1137 2.03858V11.7354C12.1137 11.78 12.0775 11.8162 12.0329 11.8162H2.3361C2.29147 11.8162 2.25529 11.78 2.25529 11.7354V2.03858ZM16.7871 15.0732C16.8005 14.9084 16.8005 14.7128 16.8005 14.5073L16.8005 6.07938L15.346 6.07969V14.9684C15.346 15.013 15.3098 15.0492 15.2652 15.0492H6.37647L6.37645 16.5034L14.8044 16.5034C15.0099 16.5034 15.2055 16.5035 15.3703 16.49C15.55 16.4753 15.7561 16.4411 15.9622 16.3361C16.2511 16.1889 16.486 15.954 16.6331 15.6651C16.7381 15.4591 16.7724 15.2529 16.7871 15.0732Z" fill="#C2C4C8" fill-opacity="0.88" stroke="#C2C4C8" stroke-opacity="0.88" stroke-width="0.242419" class="fill"/>
</svg>