<svg xmlns="http://www.w3.org/2000/svg" width="25" height="24" viewBox="0 0 25 24" fill="none">
  <path fill-rule="evenodd" clip-rule="evenodd" d="M5.07181 2.10059C4.81749 2.10056 4.57544 2.10054 4.37148 2.1172C4.14907 2.13537 3.89396 2.17776 3.63898 2.30768C3.28148 2.48984 2.99081 2.7805 2.80865 3.13801C2.67874 3.39298 2.63635 3.64809 2.61818 3.8705C2.60152 4.07446 2.60154 4.31651 2.60156 4.57083V15.4303C2.60154 15.6847 2.60152 15.9267 2.61818 16.1307C2.63635 16.3531 2.67874 16.6082 2.80865 16.8632C2.99081 17.2207 3.28148 17.5113 3.63898 17.6935C3.89396 17.8234 4.14907 17.8658 4.37148 17.884C4.57544 17.9006 4.81748 17.9006 5.07181 17.9006H15.9313C16.1856 17.9006 16.4277 17.9006 16.6316 17.884C16.8541 17.8658 17.1092 17.8234 17.3641 17.6935C17.7217 17.5113 18.0123 17.2207 18.1945 16.8632C18.3244 16.6082 18.3668 16.3531 18.3849 16.1307C18.4016 15.9267 18.4016 15.6847 18.4016 15.4303V4.57083C18.4016 4.31651 18.4016 4.07446 18.3849 3.8705C18.3668 3.64809 18.3244 3.39298 18.1945 3.13801C18.0123 2.7805 17.7217 2.48984 17.3641 2.30768C17.1092 2.17776 16.8541 2.13537 16.6316 2.1172C16.4277 2.10054 16.1856 2.10056 15.9313 2.10059H5.07181ZM4.40155 4.00039C4.40155 3.94516 4.44632 3.90039 4.50155 3.90039H16.5015C16.5568 3.90039 16.6015 3.94516 16.6015 4.00039V16.0004C16.6015 16.0556 16.5568 16.1004 16.5015 16.1004H4.50155C4.44632 16.1004 4.40155 16.0556 4.40155 16.0004V4.00039ZM22.385 20.1311C22.4016 19.9271 22.4016 19.6851 22.4016 19.4307L22.4016 9.00098L20.6016 9.00136V20.0014C20.6016 20.0566 20.5568 20.1014 20.5016 20.1014H9.50161L9.50159 21.901L19.9313 21.901C20.1857 21.901 20.4277 21.901 20.6317 21.8844C20.8541 21.8662 21.1092 21.8238 21.3642 21.6939C21.7217 21.5117 22.0123 21.2211 22.1945 20.8636C22.3244 20.6086 22.3668 20.3535 22.385 20.1311Z" fill="#F7F7F8" class="fill"/>
</svg>