<svg width="32" height="32" viewBox="0 0 32 32" fill="none" xmlns="http://www.w3.org/2000/svg">
<path fill-rule="evenodd" clip-rule="evenodd" d="M24.6407 10.4951V11.441V13.4639H25.4947H26.3594V10.4951H29.3282V8.77637H26.3594V5.82324H24.6407V8.77637H22.4623H21.6876V10.4951H24.0374H24.6407ZM24.0999 16.2765C24.0999 16.0022 24.0863 15.7311 24.0597 15.4639H25.867C25.8888 15.7319 25.8999 16.0029 25.8999 16.2765C25.8999 21.7441 21.4675 26.1765 15.9999 26.1765C10.5323 26.1765 6.09998 21.7441 6.09998 16.2765C6.09998 10.8088 10.5323 6.37646 15.9999 6.37646C17.3033 6.37646 18.5479 6.62834 19.6876 7.08607V9.06265C18.5815 8.4961 17.328 8.17646 15.9999 8.17646C11.5264 8.17646 7.89997 11.803 7.89997 16.2765C7.89997 20.75 11.5264 24.3765 15.9999 24.3765C20.4734 24.3765 24.0999 20.75 24.0999 16.2765ZM13.9999 14.2765C13.9999 14.8287 13.5522 15.2765 12.9999 15.2765C12.4477 15.2765 12 14.8287 12 14.2765C12 13.7242 12.4477 13.2765 12.9999 13.2765C13.5522 13.2765 13.9999 13.7242 13.9999 14.2765ZM19.9999 14.2765C19.9999 14.8287 19.5522 15.2765 18.9999 15.2765C18.4476 15.2765 17.9999 14.8287 17.9999 14.2765C17.9999 13.7242 18.4476 13.2765 18.9999 13.2765C19.5522 13.2765 19.9999 13.7242 19.9999 14.2765ZM13.7782 17.6244C13.5285 17.1946 12.9776 17.0486 12.5479 17.2983C12.1181 17.548 11.9721 18.0988 12.2217 18.5286C12.9855 19.8433 14.415 20.7365 16.0499 20.7365C17.6849 20.7365 19.1144 19.8433 19.8781 18.5286C20.1278 18.0988 19.9818 17.548 19.552 17.2983C19.1222 17.0486 18.5714 17.1946 18.3217 17.6244C17.8655 18.4097 17.015 18.9365 16.0499 18.9365C15.0849 18.9365 14.2344 18.4097 13.7782 17.6244Z" fill="#171719"/>
</svg>
