<svg width="24" height="24" viewBox="0 0 24 24" fill="none" xmlns="http://www.w3.org/2000/svg">
<path d="M22.4762 12L20.1524 9.34286L20.4762 5.82857L17.0381 5.04762L15.2381 2L12 3.39048L8.7619 2L6.9619 5.0381L3.5238 5.80952L3.84761 9.33333L1.5238 12L3.84761 14.6571L3.5238 18.181L6.9619 18.9619L8.7619 22L12 20.6L15.2381 21.9905L17.0381 18.9524L20.4762 18.1714L20.1524 14.6571L22.4762 12ZM9.50476 15.819L7.23809 13.5333C6.86666 13.1619 6.86666 12.5619 7.23809 12.1905L7.30476 12.1238C7.67618 11.7524 8.28571 11.7524 8.65714 12.1238L10.1905 13.6667L15.0952 8.75238C15.4667 8.38095 16.0762 8.38095 16.4476 8.75238L16.5143 8.81905C16.8857 9.19048 16.8857 9.79048 16.5143 10.1619L10.8762 15.819C10.4857 16.1905 9.88571 16.1905 9.50476 15.819Z" fill="#CB02FB"/>
</svg>
