<svg xmlns="http://www.w3.org/2000/svg" width="19" height="19" viewBox="0 0 19 19" fill="none">
<path fill-rule="evenodd" clip-rule="evenodd" d="M3.04641 0.502931C2.81522 0.502908 2.59518 0.502887 2.40977 0.518036C2.20758 0.534555 1.97567 0.573087 1.74387 0.691191C1.41887 0.856787 1.15464 1.12102 0.989043 1.44602C0.870938 1.67781 0.832407 1.90973 0.815887 2.11191C0.800738 2.29733 0.80076 2.51737 0.800783 2.74856V12.6207C0.80076 12.8519 0.800738 13.0719 0.815887 13.2573C0.832407 13.4595 0.870938 13.6914 0.989043 13.9232C1.15464 14.2482 1.41887 14.5124 1.74387 14.678C1.97567 14.7961 2.20758 14.8347 2.40977 14.8512C2.59518 14.8663 2.81522 14.8663 3.04641 14.8663H12.9185C13.1497 14.8663 13.3697 14.8663 13.5552 14.8512C13.7573 14.8347 13.9893 14.7961 14.2211 14.678C14.5461 14.5124 14.8103 14.2482 14.9759 13.9232C15.094 13.6914 15.1325 13.4595 15.149 13.2573C15.1642 13.0719 15.1642 12.8519 15.1641 12.6207V2.74856C15.1642 2.51736 15.1642 2.29733 15.149 2.11191C15.1325 1.90973 15.094 1.67781 14.9759 1.44602C14.8103 1.12102 14.5461 0.856787 14.2211 0.691191C13.9893 0.573087 13.7573 0.534555 13.5552 0.518036C13.3697 0.502887 13.1497 0.502908 12.9185 0.502931H3.04641ZM2.4371 2.22999C2.4371 2.17978 2.4778 2.13908 2.52801 2.13908H13.4369C13.4871 2.13908 13.5278 2.17978 13.5278 2.22999V13.1389C13.5278 13.1891 13.4871 13.2298 13.4369 13.2298H2.52801C2.4778 13.2298 2.4371 13.1891 2.4371 13.1389V2.22999ZM18.7853 16.8939C18.8005 16.7085 18.8005 16.4885 18.8005 16.2573L18.8005 6.77589L17.1641 6.77624V16.776C17.1641 16.8262 17.1234 16.8669 17.0732 16.8669H7.07343L7.07341 18.5029L16.5548 18.5029C16.786 18.503 17.0061 18.503 17.1915 18.4878C17.3937 18.4713 17.6256 18.4328 17.8574 18.3147C18.1824 18.1491 18.4466 17.8848 18.6122 17.5598C18.7303 17.328 18.7688 17.0961 18.7853 16.8939Z" fill="#C2C4C8" fill-opacity="0.88" stroke="#C2C4C8" stroke-opacity="0.88" stroke-width="0.272722"  class="fill stroke"/>
</svg>