<svg width="20" height="20" viewBox="0 0 20 20" fill="none" xmlns="http://www.w3.org/2000/svg">
<mask id="mask0_529_14431" style="mask-type:alpha" maskUnits="userSpaceOnUse" x="0" y="0" width="20" height="20">
<path fill-rule="evenodd" clip-rule="evenodd" d="M1.75 9.99997C1.75 5.44364 5.44363 1.75 9.99996 1.75C14.5563 1.75 18.2499 5.44364 18.2499 9.99997C18.2499 14.5563 14.5563 18.2499 9.99996 18.2499C5.44363 18.2499 1.75 14.5563 1.75 9.99997ZM7.0833 6.02268L6.02265 7.08333L8.9393 9.99999L6.02265 12.9166L7.0833 13.9773L9.99996 11.0606L12.9166 13.9773L13.9773 12.9166L11.0606 9.99999L13.9773 7.08333L12.9166 6.02268L9.99996 8.93933L7.0833 6.02268Z" fill="#171719"/>
</mask>
<g mask="url(#mask0_529_14431)">
<rect width="19.9999" height="19.9999" fill="#37383C" fill-opacity="0.28"/>
</g>
</svg>
