<svg width="32" height="32" viewBox="0 0 32 32" fill="none" xmlns="http://www.w3.org/2000/svg">
<path fill-rule="evenodd" clip-rule="evenodd" d="M16.0405 7.99043C15.799 7.99043 15.582 8.13769 15.4928 8.36205L12.5055 15.8746V24.0057H22.1085C22.3612 24.0057 22.5011 24.0051 22.6034 23.9974C22.635 23.995 22.6549 23.9923 22.666 23.9906C22.6741 23.9855 22.6815 23.9793 22.6878 23.9722C22.6915 23.9616 22.6975 23.9424 22.7052 23.9117C22.7303 23.8122 22.7549 23.6744 22.7981 23.4255L23.8378 17.4407C23.9525 16.7807 24.0278 16.3426 24.0567 16.0057C24.0848 15.6771 24.0579 15.5419 24.0312 15.469C23.9425 15.2265 23.7712 15.023 23.5475 14.894C23.4803 14.8553 23.3517 14.8056 23.0231 14.7771C22.6862 14.7479 22.2417 14.7471 21.5718 14.7471H18.3299C18.3226 14.7471 18.3152 14.7471 18.3077 14.7471C18.1875 14.7471 18.0492 14.7471 17.9282 14.7373C17.7891 14.7259 17.5958 14.6971 17.3943 14.5945C17.1308 14.4602 16.9167 14.2461 16.7824 13.9826C16.6799 13.7814 16.6511 13.5884 16.6397 13.4492C16.6298 13.3283 16.6298 13.1902 16.6298 13.0704C16.6298 13.0629 16.6299 13.0556 16.6299 13.0483V8.57837C16.6299 8.254 16.3671 7.99043 16.0405 7.99043ZM16.0405 6.19043C17.3589 6.19043 18.4299 7.2576 18.4299 8.57837V12.9471L21.6106 12.9471C22.2314 12.947 22.7546 12.947 23.1787 12.9838C23.6198 13.0221 24.0499 13.106 24.4463 13.3345C25.0362 13.6744 25.4876 14.2111 25.7216 14.8504C25.8788 15.28 25.8879 15.7182 25.8501 16.1593C25.8138 16.5834 25.7242 17.099 25.6179 17.7105L24.567 23.7595C24.53 23.9728 24.4943 24.1788 24.4505 24.3522C24.4022 24.5436 24.3301 24.7572 24.1902 24.9653C23.9913 25.2614 23.7131 25.4955 23.3873 25.6408C23.1583 25.743 22.9355 25.7774 22.7387 25.7923C22.5604 25.8057 22.3513 25.8057 22.1349 25.8057L7.80776 25.8057C7.68752 25.8057 7.54922 25.8057 7.42818 25.7959C7.28915 25.7845 7.09578 25.7557 6.89428 25.6531C6.63086 25.5188 6.41668 25.3047 6.28246 25.0412C6.17979 24.8397 6.15103 24.6464 6.13967 24.5073C6.12978 24.3863 6.12983 24.248 6.12987 24.1278L6.12986 16.5023C6.12986 16.495 6.12986 16.4876 6.12986 16.4802C6.12982 16.3599 6.12977 16.2216 6.13966 16.1006C6.15102 15.9615 6.17978 15.7682 6.28245 15.5667C6.41667 15.3032 6.63085 15.0891 6.89427 14.9548C7.09577 14.8522 7.28914 14.8234 7.42817 14.8121C7.54921 14.8022 7.68752 14.8022 7.80776 14.8022C7.8152 14.8022 7.82257 14.8023 7.82986 14.8023H10.9949L13.8201 7.69697C14.1818 6.78742 15.0616 6.19043 16.0405 6.19043ZM10.7056 16.6023H7.92986L7.92987 24.0057H10.7056V16.6023Z" fill="#171719" class="fill"/>
</svg>
