<svg width="24" height="25" viewBox="0 0 24 25" fill="none" xmlns="http://www.w3.org/2000/svg">
<path d="M0 12.1255C0 6.05036 4.92487 1.12549 11 1.12549H13.0001C19.0752 1.12549 24.0001 6.05036 24.0001 12.1255C24.0001 18.2006 19.0752 23.1255 13.0001 23.1255H11C4.92486 23.1255 0 18.2006 0 12.1255Z" fill="transparent"/>
<path d="M9.99985 10.1256C9.99985 10.6779 9.55214 11.1256 8.99985 11.1256C8.44757 11.1256 7.99985 10.6779 7.99985 10.1256C7.99985 9.5733 8.44757 9.12559 8.99985 9.12559C9.55214 9.12559 9.99985 9.5733 9.99985 10.1256Z" fill="#171719"/>
<path d="M15.9999 10.1256C15.9999 10.6779 15.5521 11.1256 14.9999 11.1256C14.4476 11.1256 13.9999 10.6779 13.9999 10.1256C13.9999 9.5733 14.4476 9.12559 14.9999 9.12559C15.5521 9.12559 15.9999 9.5733 15.9999 10.1256Z" fill="#171719"/>
<path fill-rule="evenodd" clip-rule="evenodd" d="M8.54775 13.1474C8.97754 12.8977 9.52837 13.0437 9.77806 13.4735C10.2343 14.2588 11.0848 14.7856 12.0499 14.7856C13.0149 14.7856 13.8654 14.2588 14.3216 13.4735C14.5713 13.0437 15.1222 12.8977 15.552 13.1474C15.9817 13.3971 16.1277 13.9479 15.8781 14.3777C15.1143 15.6924 13.6848 16.5856 12.0499 16.5856C10.4149 16.5856 8.98542 15.6924 8.22165 14.3777C7.97196 13.9479 8.11796 13.3971 8.54775 13.1474Z" fill="#171719"/>
<path fill-rule="evenodd" clip-rule="evenodd" d="M11.9999 4.02559C7.52635 4.02559 3.89985 7.65208 3.89985 12.1256C3.89985 16.5991 7.52635 20.2256 11.9999 20.2256C16.4734 20.2256 20.0999 16.5991 20.0999 12.1256C20.0999 7.65208 16.4734 4.02559 11.9999 4.02559ZM2.09985 12.1256C2.09985 6.65797 6.53223 2.22559 11.9999 2.22559C17.4675 2.22559 21.8999 6.65797 21.8999 12.1256C21.8999 17.5932 17.4675 22.0256 11.9999 22.0256C6.53223 22.0256 2.09985 17.5932 2.09985 12.1256Z" fill="#171719"/>
<mask id="path-3-outside-1_1387_11701" maskUnits="userSpaceOnUse" x="14" y="0.125488" width="11" height="11" fill="black">
<rect fill="white" x="14" y="0.125488" width="11" height="11"/>
<path d="M18.6406 9.31299V6.34424H15.6875V4.62549H18.6406V1.67236H20.3594V4.62549H23.3281V6.34424H20.3594V9.31299H18.6406Z"/>
</mask>
<path d="M18.6406 9.31299V6.34424H15.6875V4.62549H18.6406V1.67236H20.3594V4.62549H23.3281V6.34424H20.3594V9.31299H18.6406Z" fill="black"/>
<path d="M18.6406 9.31299H17.6406V10.313H18.6406V9.31299ZM18.6406 6.34424H19.6406V5.34424H18.6406V6.34424ZM15.6875 6.34424H14.6875V7.34424H15.6875V6.34424ZM15.6875 4.62549V3.62549H14.6875V4.62549H15.6875ZM18.6406 4.62549V5.62549H19.6406V4.62549H18.6406ZM18.6406 1.67236V0.672363H17.6406V1.67236H18.6406ZM20.3594 1.67236H21.3594V0.672363H20.3594V1.67236ZM20.3594 4.62549H19.3594V5.62549H20.3594V4.62549ZM23.3281 4.62549H24.3281V3.62549H23.3281V4.62549ZM23.3281 6.34424V7.34424H24.3281V6.34424H23.3281ZM20.3594 6.34424V5.34424H19.3594V6.34424H20.3594ZM20.3594 9.31299V10.313H21.3594V9.31299H20.3594ZM19.6406 9.31299V6.34424H17.6406V9.31299H19.6406ZM18.6406 5.34424H15.6875V7.34424H18.6406V5.34424ZM16.6875 6.34424V4.62549H14.6875V6.34424H16.6875ZM15.6875 5.62549H18.6406V3.62549H15.6875V5.62549ZM19.6406 4.62549V1.67236H17.6406V4.62549H19.6406ZM18.6406 2.67236H20.3594V0.672363H18.6406V2.67236ZM19.3594 1.67236V4.62549H21.3594V1.67236H19.3594ZM20.3594 5.62549H23.3281V3.62549H20.3594V5.62549ZM22.3281 4.62549V6.34424H24.3281V4.62549H22.3281ZM23.3281 5.34424H20.3594V7.34424H23.3281V5.34424ZM19.3594 6.34424V9.31299H21.3594V6.34424H19.3594ZM20.3594 8.31299H18.6406V10.313H20.3594V8.31299Z" fill="white" mask="url(#path-3-outside-1_1387_11701)"/>
</svg>
