<svg width="22" height="22" viewBox="0 0 22 22" fill="none" xmlns="http://www.w3.org/2000/svg">
<mask id="mask0_1366_45317" style="mask-type:alpha" maskUnits="userSpaceOnUse" x="0" y="0" width="22" height="23">
<path fill-rule="evenodd" clip-rule="evenodd" d="M11.0005 3.80477C7.02643 3.80477 3.80477 7.02643 3.80477 11.0006C3.80477 14.9747 7.02643 18.1963 11.0005 18.1963C12.2484 18.1963 13.4197 17.8794 14.441 17.3223C14.6281 17.2202 14.8475 17.1945 15.0531 17.2506L16.9913 17.7792C17.4128 17.8942 17.6739 17.9645 17.8656 17.9984C17.9337 18.0104 17.9769 18.0145 18.0011 18.0158C18.0065 18.0115 18.0115 18.0065 18.0158 18.0011C18.0144 17.9769 18.0104 17.9337 17.9984 17.8656C17.9645 17.6739 17.8942 17.4128 17.7792 16.9914L17.2506 15.0531C17.1945 14.8475 17.2202 14.6281 17.3223 14.441C17.8794 13.4197 18.1963 12.2484 18.1963 11.0006C18.1963 7.02643 14.9747 3.80477 11.0005 3.80477ZM2.15479 11.0006C2.15479 6.11517 6.11516 2.15479 11.0005 2.15479C15.8859 2.15479 19.8463 6.11517 19.8463 11.0006C19.8463 12.4107 19.5157 13.7457 18.9274 14.9304L19.3805 16.5919C19.4831 16.9679 19.5746 17.3032 19.6232 17.5787C19.6725 17.8579 19.7061 18.2118 19.5711 18.5653C19.3943 19.0285 19.0284 19.3943 18.5653 19.5711C18.2118 19.7061 17.8579 19.6725 17.5787 19.6232C17.3032 19.5746 16.9679 19.4831 16.5919 19.3805L14.9304 18.9274C13.7457 19.5158 12.4107 19.8463 11.0005 19.8463C6.11516 19.8463 2.15479 15.8859 2.15479 11.0006Z" fill="#171719"/>
</mask>
<g mask="url(#mask0_1366_45317)">
<rect y="0.000488281" width="21.9998" height="21.9998" fill="#171719"/>
</g>
</svg>
