<svg xmlns="http://www.w3.org/2000/svg" width="17" height="17" viewBox="0 0 17 17" fill="none">
<path fill-rule="evenodd" clip-rule="evenodd" d="M2.7969 0.501711C2.59139 0.50169 2.3958 0.501671 2.23099 0.515137C2.05127 0.52982 1.84512 0.564071 1.63909 0.669052C1.3502 0.816249 1.11532 1.05112 0.968125 1.34001C0.863143 1.54605 0.828893 1.7522 0.814209 1.93192C0.800743 2.09673 0.800762 2.29232 0.800783 2.49783V11.273C0.800762 11.4785 0.800743 11.6741 0.814209 11.8389C0.828893 12.0187 0.863143 12.2248 0.968125 12.4308C1.11532 12.7197 1.3502 12.9546 1.63909 13.1018C1.84512 13.2068 2.05127 13.241 2.23099 13.2557C2.3958 13.2692 2.59139 13.2692 2.7969 13.2691H11.5721C11.7776 13.2692 11.9732 13.2692 12.138 13.2557C12.3177 13.241 12.5239 13.2068 12.7299 13.1018C13.0188 12.9546 13.2537 12.7197 13.4009 12.4308C13.5059 12.2248 13.5401 12.0187 13.5548 11.8389C13.5683 11.6741 13.5682 11.4785 13.5682 11.273V2.49782C13.5682 2.29232 13.5683 2.09673 13.5548 1.93192C13.5401 1.7522 13.5059 1.54605 13.4009 1.34001C13.2537 1.05112 13.0188 0.816249 12.7299 0.669052C12.5239 0.564071 12.3177 0.52982 12.138 0.515137C11.9732 0.501671 11.7776 0.50169 11.5721 0.501711H2.7969ZM2.25529 2.03687C2.25529 1.99225 2.29147 1.95607 2.33609 1.95607H12.0329C12.0775 1.95607 12.1137 1.99225 12.1137 2.03687V11.7337C12.1137 11.7783 12.0775 11.8145 12.0329 11.8145H2.3361C2.29147 11.8145 2.25529 11.7783 2.25529 11.7337V2.03687ZM16.7871 15.0715C16.8005 14.9067 16.8005 14.7111 16.8005 14.5056L16.8005 6.07767L15.346 6.07798V14.9667C15.346 15.0113 15.3098 15.0475 15.2652 15.0475H6.37647L6.37645 16.5017L14.8044 16.5017C15.0099 16.5017 15.2055 16.5017 15.3703 16.4883C15.55 16.4736 15.7561 16.4393 15.9622 16.3344C16.2511 16.1872 16.486 15.9523 16.6331 15.6634C16.7381 15.4574 16.7724 15.2512 16.7871 15.0715Z" fill="#C2C4C8" fill-opacity="0.88" stroke="#C2C4C8" stroke-opacity="0.88" stroke-width="0.242419" class="fill-stroke"/>
</svg>