<svg width="32" height="32" viewBox="0 0 32 32" fill="none" xmlns="http://www.w3.org/2000/svg">
<path d="M12.1855 17.1035C11.5977 17.1035 11.1191 16.625 11.1191 16.0508C11.1191 15.4629 11.5977 14.998 12.1855 14.998C12.7461 14.998 13.2383 15.4629 13.2383 16.0508C13.2383 16.625 12.7461 17.1035 12.1855 17.1035ZM16 17.1035C15.4121 17.1035 14.9336 16.625 14.9473 16.0508C14.9336 15.4629 15.4121 14.998 16 14.998C16.5742 14.998 17.0527 15.4629 17.0527 16.0508C17.0527 16.625 16.5742 17.1035 16 17.1035ZM19.8145 17.1035C19.2402 17.1035 18.748 16.625 18.7617 16.0508C18.748 15.4629 19.2402 14.998 19.8145 14.998C20.3887 14.998 20.8809 15.4629 20.8809 16.0508C20.8809 16.625 20.3887 17.1035 19.8145 17.1035Z" fill="#AEB0B6" fill-opacity="0.61"/>
</svg>
