<svg width="56" height="24" viewBox="0 0 56 24" fill="none" xmlns="http://www.w3.org/2000/svg">
<path fill-rule="evenodd" clip-rule="evenodd" d="M36.8996 15.001L36.8996 18.4313C36.8996 18.6856 36.8997 18.9277 36.883 19.1317C36.8648 19.3541 36.8224 19.6092 36.6925 19.8641C36.5104 20.2217 36.2197 20.5123 35.8622 20.6945C35.6072 20.8244 35.3521 20.8668 35.1297 20.885C34.9257 20.9016 34.6837 20.9016 34.4294 20.9016H21.5697C21.3154 20.9016 21.0734 20.9016 20.8694 20.885C20.647 20.8668 20.3919 20.8244 20.1369 20.6945C19.7794 20.5123 19.4887 20.2217 19.3066 19.8641C19.1767 19.6092 19.1343 19.3541 19.1161 19.1317C19.0994 18.9277 19.0995 18.6856 19.0995 18.4313V15.001H20.8995V19.0013C20.8995 19.0565 20.9443 19.1013 20.9995 19.1013H34.9996C35.0548 19.1013 35.0996 19.0565 35.0996 19.0013V15.001H36.8996Z" fill="#171719"/>
<path d="M32.9049 8.61839C32.5643 8.98035 31.9947 8.99761 31.6327 8.65694L28.8995 6.08454V15.5018C28.8995 15.9988 28.4966 16.4018 27.9995 16.4018C27.5025 16.4018 27.0995 15.9988 27.0995 15.5018V6.08454L24.3663 8.65694C24.0044 8.99761 23.4348 8.98035 23.0941 8.61839C22.7535 8.25643 22.7707 7.68685 23.1327 7.34618L27.3827 3.34618C27.7292 3.02002 28.2698 3.02002 28.6164 3.34618L32.8664 7.34618C33.2283 7.68685 33.2456 8.25643 32.9049 8.61839Z" fill="#171719"/>
</svg>
