<svg xmlns="http://www.w3.org/2000/svg" width="28" height="14" viewBox="0 0 28 14" fill="none">
<path d="M0 6C0 2.68629 2.68629 0 6 0H22C25.3137 0 28 2.68629 28 6V8C28 11.3137 25.3137 14 22 14H0V6Z" fill="#CB59FF"/>
<path d="M2.59277 10.4134V4.36438H6.25137V5.52573H3.83421V6.80405H6.0615V7.9654H3.83421V9.25208H6.25867V10.4134H2.59277Z" fill="white"/>
<path d="M7.89475 4.36438L9.09967 8.82597H9.14349L10.3484 4.36438H11.7359L9.94677 10.4134H8.29639L6.49995 4.36438H7.89475Z" fill="white"/>
<path d="M11.9991 10.4134V4.36438H15.6577V5.52573H13.2405V6.80405H15.4678V7.9654H13.2405V9.25208H15.665V10.4134H11.9991Z" fill="white"/>
<path d="M20.6383 4.36438V10.4134H19.5795L17.4325 6.86254H17.396V10.4134H16.1546V4.36438H17.228L19.3531 7.91527H19.3969V4.36438H20.6383Z" fill="white"/>
<path d="M20.96 5.52573V4.36438H25.4072V5.52573H23.8007V10.4134H22.5665V5.52573H20.96Z" fill="white"/>
</svg>