<svg xmlns="http://www.w3.org/2000/svg" width="24" height="24" viewBox="0 0 24 24" fill="none" class="fill">
<path d="M7 8.08C8.4 8.08 9.54 6.94 9.54 5.54C9.54 4.14 8.4 3 7 3C5.6 3 4.46 4.14 4.46 5.54C4.46 6.94 5.6 8.08 7 8.08ZM7 4.6C7.52 4.6 7.94 5.02 7.94 5.54C7.94 6.06 7.52 6.48 7 6.48C6.48 6.48 6.06 6.06 6.06 5.54C6.06 5.02 6.48 4.6 7 4.6Z" fill="#F7F7F8"/>
<path d="M5.4 15.41H3.6V11.16L5.11 10.25H8V8.65H4.67L2 10.25V17.01H5.4V15.41Z" fill="#F7F7F8"/>
<path d="M17 8.08C18.4 8.08 19.54 6.94 19.54 5.54C19.54 4.14 18.4 3 17 3C15.6 3 14.46 4.14 14.46 5.54C14.46 6.94 15.6 8.08 17 8.08ZM17 4.6C17.52 4.6 17.94 5.02 17.94 5.54C17.94 6.06 17.52 6.48 17 6.48C16.48 6.48 16.06 6.06 16.06 5.54C16.06 5.02 16.48 4.6 17 4.6Z" fill="#F7F7F8"/>
<path d="M18.6 15.41V17.01H22V10.25L19.33 8.65H16V10.25H18.89L20.4 11.16V15.41H18.6Z" fill="#F7F7F8"/>
<path d="M9.47 8.62C9.47 8.62 9.47 8.71 9.48 8.75C9.59 10.05 10.67 11.07 12 11.07C13.33 11.07 14.41 10.04 14.52 8.75C14.52 8.71 14.52 8.66 14.52 8.62V8.54C14.52 7.14 13.38 6 11.98 6C10.58 6 9.44 7.14 9.44 8.54V8.62H9.47ZM12 7.6C12.52 7.6 12.94 8.02 12.94 8.54C12.94 8.57 12.94 8.59 12.92 8.62C12.88 9.1 12.49 9.48 12 9.48C11.51 9.48 11.12 9.1 11.08 8.62C11.08 8.59 11.06 8.57 11.06 8.54C11.06 8.02 11.48 7.6 12 7.6Z" fill="#F7F7F8"/>
<path d="M14.83 11.95L14.33 11.65H9.67L9.17 11.95L8.6 12.29L7 13.25V20H17V13.25L15.4 12.29L14.83 11.95ZM15.4 15.41V18.41H8.6V14.16L10.11 13.26H13.88L15.39 14.16V15.41H15.4Z" fill="#F7F7F8"/>
</svg>