<svg width="16" height="16" viewBox="0 0 16 16" fill="none" xmlns="http://www.w3.org/2000/svg">
<rect width="16" height="16" rx="8" fill="#C2C4C8" fill-opacity="0.88" class="rect"/>
<path d="M9.23907 5.36501C9.22034 5.2587 9.25465 5.14993 9.33099 5.07359L11.063 3.34153C10.0078 3.00666 8.8068 3.25766 7.96988 4.09457C7.08679 4.97766 6.85604 6.26604 7.27761 7.36098L4.03354 10.605C3.77505 10.8635 3.77508 11.2826 4.03354 11.5411L4.85259 12.3601C5.11105 12.6186 5.53014 12.6186 5.78864 12.3601L9.03271 9.11607C10.1276 9.53765 11.416 9.30689 12.2991 8.4238C13.1822 7.54071 13.4129 6.2523 12.9914 5.1574L11.2034 6.94539C11.1269 7.02189 11.0178 7.05617 10.9113 7.03719L9.7167 6.8243C9.57993 6.79993 9.47294 6.69273 9.44884 6.5559L9.23907 5.36501Z" fill="#1B1C1E" class="fill"/>
</svg>
