<svg width="24" height="24" viewBox="0 0 24 24" fill="none" xmlns="http://www.w3.org/2000/svg" class="fill">
<path d="M15.0101 3C12.1401 3 9.75013 5.02 9.16013 7.71C9.71013 7.72 10.2501 7.8 10.7701 7.92C11.2501 6.02 12.9601 4.6 15.0101 4.6C17.4301 4.6 19.4001 6.57 19.4001 8.99C19.4001 11.03 17.9901 12.74 16.1001 13.23C16.2301 13.75 16.3101 14.28 16.3201 14.84C19.0001 14.24 21.0101 11.86 21.0101 9C21.0101 5.69 18.3301 3.01 15.0201 3.01L15.0101 3Z" fill="#F7F7F8"/>
<path d="M3.39987 8.99002H4.59987V6.60002H6.54987L5.51987 7.63002L6.36987 8.48002L8.84987 6.00002L6.36987 3.52002L5.51987 4.37002L6.54987 5.40002H3.39987V8.99002Z" fill="#F7F7F8"/>
<path d="M17.6299 15.5198L15.1499 17.9998L17.6299 20.4798L18.4799 19.6298L17.4499 18.5998H20.5999V15.0098H19.3999V17.3998H17.4499L18.4799 16.3698L17.6299 15.5198Z" fill="#F7F7F8"/>
<path d="M3.13999 13.7902C3.05999 14.1802 3.01999 14.5802 3.01999 15.0002C3.01999 15.4202 3.05999 15.8202 3.13999 16.2102C3.17999 16.4102 3.22999 16.6002 3.28999 16.7802C3.40999 17.1602 3.55999 17.5202 3.73999 17.8602C3.91999 18.2002 4.13999 18.5202 4.38999 18.8202C5.48999 20.1502 7.15999 21.0002 9.01999 21.0002C10.88 21.0002 12.55 20.1502 13.65 18.8202C13.89 18.5202 14.11 18.2002 14.3 17.8602C14.48 17.5202 14.64 17.1602 14.75 16.7802C14.81 16.5902 14.86 16.4002 14.9 16.2102C14.98 15.8202 15.02 15.4202 15.02 15.0002V14.9802C15.02 14.5702 14.98 14.1802 14.9 13.7902C14.87 13.6402 14.83 13.5002 14.79 13.3502C14.78 13.3002 14.77 13.2602 14.75 13.2102C14.63 12.8302 14.48 12.4702 14.3 12.1302C14.02 11.6202 13.67 11.1502 13.27 10.7502C12.91 10.3902 12.51 10.0802 12.07 9.82023C11.85 9.69023 11.62 9.58023 11.38 9.48023C11.14 9.38023 10.9 9.29024 10.65 9.22023C10.13 9.07023 9.58999 8.99023 9.02999 8.99023C7.36999 8.99023 5.86999 9.66023 4.78999 10.7502C4.37999 11.1602 4.02999 11.6202 3.75999 12.1302C3.57999 12.4702 3.41999 12.8302 3.30999 13.2102C3.24999 13.4002 3.19999 13.5902 3.15999 13.7802L3.13999 13.7902ZM9.01999 10.6002C9.09999 10.6002 9.16999 10.6202 9.24999 10.6202C9.97999 10.6602 10.66 10.8702 11.26 11.2302C11.89 11.6002 12.41 12.1202 12.78 12.7502C13.14 13.3402 13.35 14.0202 13.39 14.7502C13.39 14.8302 13.42 14.9102 13.42 15.0002C13.42 17.4302 11.45 19.4002 9.01999 19.4002C6.58999 19.4002 4.61999 17.4302 4.61999 15.0002C4.61999 12.5702 6.58999 10.6002 9.01999 10.6002Z" fill="#F7F7F8"/>
</svg>
