<svg width="24" height="24" viewBox="0 0 24 24" fill="none" xmlns="http://www.w3.org/2000/svg" class="fill">
<path d="M15.8594 2.28796C15.6619 2.0937 15.3907 1.98958 15.1117 2.00082C14.8326 2.01207 14.571 2.13765 14.3903 2.34715L10.0599 7.36801L6.79945 7.03591C6.50001 7.0054 6.20255 7.10926 5.98968 7.31864L4.29334 8.98711C4.10588 9.17149 4.00057 9.42157 4.00057 9.68232C4.00057 9.94307 4.10588 10.1931 4.29334 10.3775L8.33404 14.3519L2.29883 20.288C1.90509 20.6753 1.89985 21.3084 2.28713 21.7021C2.6744 22.0959 3.30755 22.1011 3.70129 21.7139L9.76011 15.7545L13.4819 19.4152C13.6693 19.5996 13.9236 19.7031 14.1887 19.7031C14.4538 19.7031 14.7081 19.5995 14.8955 19.4152L16.5918 17.7466C16.8046 17.5373 16.9102 17.2447 16.8792 16.9502L16.5416 13.7434L21.6464 9.48412C21.8594 9.3064 21.9871 9.04912 21.9985 8.77462C22.01 8.50012 21.9041 8.23343 21.7066 8.03917L15.8594 2.28796Z" fill="#F7F7F8"/>
</svg>
