<svg width="24" height="24" viewBox="0 0 24 24" fill="none" xmlns="http://www.w3.org/2000/svg" class="fill">
<path d="M22 12.0002C22 6.47744 17.5228 2.00024 12 2.00024C6.4772 2.00024 2 6.47744 2 12.0002C2 16.6898 5.2288 20.625 9.5844 21.7058V15.0562H7.5224V12.0002H9.5844V10.6834C9.5844 7.27984 11.1248 5.70224 14.4664 5.70224C15.1 5.70224 16.1932 5.82664 16.6404 5.95064V8.72064C16.4044 8.69584 15.9944 8.68344 15.4852 8.68344C13.8456 8.68344 13.212 9.30464 13.212 10.9194V12.0002H16.4784L15.9172 15.0562H13.212V21.927C18.1636 21.329 22.0004 17.113 22.0004 12.0002H22Z" fill="#F7F7F8"/>
</svg>
