<svg width="24" height="24" viewBox="0 0 24 24" fill="none" xmlns="http://www.w3.org/2000/svg" class="fill">
<path d="M12 3.80188C14.6702 3.80188 14.9864 3.81188 16.041 3.86004C17.0161 3.90453 17.5456 4.06726 17.8979 4.2043C18.3649 4.38584 18.6979 4.60225 19.0478 4.95219C19.3977 5.30214 19.6146 5.6352 19.7957 6.10211C19.9327 6.45445 20.0955 6.98392 20.14 7.95903C20.188 9.01357 20.1981 9.32975 20.1981 12C20.1981 14.6703 20.1881 14.9864 20.14 16.0409C20.0955 17.016 19.9327 17.5455 19.7957 17.8978C19.6142 18.3648 19.3978 18.6978 19.0478 19.0477C18.6979 19.3976 18.3648 19.6145 17.8979 19.7956C17.5456 19.9327 17.0161 20.0954 16.041 20.1399C14.9865 20.188 14.6702 20.198 12 20.198C9.32975 20.198 9.01365 20.188 7.9591 20.1399C6.984 20.0954 6.45452 19.9327 6.10218 19.7956C5.63519 19.614 5.30221 19.3976 4.95227 19.0477C4.60241 18.6978 4.38551 18.3647 4.20438 17.8978C4.06725 17.5455 3.9046 17.016 3.86012 16.0409C3.81204 14.9864 3.80196 14.6702 3.80196 12C3.80196 9.32983 3.81196 9.01365 3.86012 7.95903C3.9046 6.98392 4.06733 6.45445 4.20438 6.10211C4.38591 5.63512 4.60233 5.30214 4.95227 4.95219C5.30221 4.60233 5.63527 4.38544 6.10218 4.2043C6.45452 4.06726 6.984 3.90453 7.9591 3.86004C9.01357 3.81236 9.32983 3.80188 12 3.80188ZM12 2.00024C9.28415 2.00024 8.94348 2.01184 7.87694 2.06033C6.81239 2.10881 6.0857 2.27802 5.44966 2.52524C4.79194 2.78093 4.23446 3.12288 3.67851 3.67875C3.12263 4.23471 2.78037 4.79218 2.52499 5.4499C2.2777 6.08602 2.10857 6.81303 2.06008 7.87718C2.0116 8.94373 2 9.28439 2 12.0002C2 14.7161 2.0116 15.0568 2.06008 16.1233C2.10857 17.1879 2.27778 17.9145 2.52499 18.5506C2.78069 19.2083 3.12263 19.7658 3.67851 20.3217C4.23446 20.8777 4.79234 21.2196 5.44966 21.4752C6.08578 21.7225 6.81279 21.8917 7.87694 21.9402C8.94348 21.9886 9.28415 22.0002 12 22.0002C14.7159 22.0002 15.0565 21.9886 16.1231 21.9402C17.1876 21.8917 17.9143 21.7225 18.5503 21.4752C19.2081 21.2195 19.7655 20.8776 20.3215 20.3217C20.8774 19.7658 21.2193 19.2079 21.475 18.5506C21.7223 17.9145 21.8914 17.1875 21.9399 16.1233C21.9884 15.0568 22 14.7161 22 12.0002C22 9.28439 21.9884 8.94373 21.9399 7.87718C21.8914 6.81263 21.7222 6.08594 21.475 5.4499C21.2192 4.79218 20.8774 4.23471 20.3215 3.67875C19.7655 3.12288 19.2077 2.78093 18.5503 2.52524C17.9143 2.27794 17.1872 2.10881 16.1231 2.06033C15.0565 2.01184 14.7159 2.00024 12 2.00024ZM12 6.86519C9.1639 6.86519 6.86495 9.16414 6.86495 12.0002C6.86495 14.8363 9.1639 17.1354 12 17.1354C14.8361 17.1354 17.1351 14.8363 17.1351 12.0002C17.1351 9.16414 14.8361 6.86519 12 6.86519ZM12 15.3338C10.1592 15.3338 8.66651 13.8416 8.66651 12.0003C8.66651 10.159 10.1592 8.66683 12 8.66683C13.8408 8.66683 15.3335 10.159 15.3335 12.0003C15.3335 13.8416 13.8408 15.3338 12 15.3338ZM17.3379 5.46239C16.6749 5.46239 16.1379 5.99946 16.1379 6.66238C16.1379 7.3253 16.6749 7.86246 17.3379 7.86246C18.0008 7.86246 18.5379 7.3253 18.5379 6.66238C18.5379 5.99946 18.0009 5.46239 17.3379 5.46239Z" fill="#F7F7F8"/>
</svg>
