<svg width="28" height="14" viewBox="0 0 28 14" fill="none" xmlns="http://www.w3.org/2000/svg">
<path d="M0 6C0 2.68629 2.68629 0 6 0H22C25.3137 0 28 2.68629 28 6V8C28 11.3137 25.3137 14 22 14H0V6Z" fill="#FF0066"/>
<path d="M23.9443 4.08105V9.91976H22.7749L20.404 6.49235H20.3636V9.91976H18.9927V4.08105H20.1782L22.5249 7.50847H22.5733V4.08105H23.9443Z" fill="white"/>
<path d="M14.4038 9.91976V4.08105H18.4441V5.20202H15.7748V6.43589H18.2345V7.55686H15.7748V8.7988H18.4522V9.91976H14.4038Z" fill="white"/>
<path d="M9.53271 9.91976V4.08105H11.9198C13.2343 4.08105 14.0408 4.90364 14.0408 6.08912C14.0408 7.2988 13.2182 8.08912 11.8795 8.08912H10.9037V9.91976H9.53271ZM10.9037 7.00041H11.6295C12.2747 7.00041 12.6214 6.63751 12.6214 6.08912C12.6214 5.54073 12.2747 5.19396 11.6295 5.19396H10.9037V7.00041Z" fill="white"/>
<path d="M9.04839 7C9.04839 8.92742 7.83871 10 6.27419 10C4.70161 10 3.5 8.91935 3.5 7C3.5 5.07258 4.70161 4 6.27419 4C7.83871 4 9.04839 5.07258 9.04839 7ZM7.64516 7C7.64516 5.83871 7.12903 5.20968 6.27419 5.20968C5.41935 5.20968 4.90323 5.83871 4.90323 7C4.90323 8.16129 5.41935 8.79032 6.27419 8.79032C7.12903 8.79032 7.64516 8.16129 7.64516 7Z" fill="white"/>
</svg>
