<svg xmlns="http://www.w3.org/2000/svg" width="35" height="18" viewBox="0 0 35 18" fill="none">
<path d="M0 6C0 2.68629 2.68629 0 6 0H29C32.3137 0 35 2.68629 35 6V12C35 15.3137 32.3137 18 29 18H0V6Z" fill="#CB59FF"/>
<path d="M3.24072 13.3887V5.61133H7.81397V7.10449H4.79252V8.74805H7.57664V10.2412H4.79252V11.8955H7.8231V13.3887H3.24072Z" fill="white"/>
<path d="M9.86819 5.61133L11.3743 11.3477H11.4291L12.9353 5.61133H14.6696L12.4332 13.3887H10.3702L8.12469 5.61133H9.86819Z" fill="white"/>
<path d="M14.9986 13.3887V5.61133H19.5719V7.10449H16.5504V8.74805H19.3345V10.2412H16.5504V11.8955H19.581V13.3887H14.9986Z" fill="white"/>
<path d="M25.7977 5.61133V13.3887H24.4741L21.7904 8.82324H21.7448V13.3887H20.193V5.61133H21.5348L24.1911 10.1768H24.2459V5.61133H25.7977Z" fill="white"/>
<path d="M26.1997 7.10449V5.61133H31.7588V7.10449H29.7506V13.3887H28.2079V7.10449H26.1997Z" fill="white"/>
</svg>