<svg xmlns="http://www.w3.org/2000/svg" width="28" height="14" viewBox="0 0 28 14" fill="none">
<path d="M0 6C0 2.68629 2.68629 0 6 0H22C25.3137 0 28 2.68629 28 6V8C28 11.3137 25.3137 14 22 14H0V6Z" fill="#00AEFF"/>
<path d="M7.03901 6.16071C7.00767 5.71789 6.70216 5.45888 6.1538 5.45888C5.61328 5.45888 5.33911 5.70953 5.33127 6.05209C5.32344 6.42807 5.66812 6.61188 6.17731 6.72885L6.67083 6.85417C7.7597 7.11318 8.39423 7.68968 8.40206 8.65886C8.39423 9.8035 7.56386 10.497 6.1538 10.497C4.74375 10.497 3.82721 9.81186 3.80371 8.42492H5.08843C5.11976 9.00977 5.52711 9.31055 6.13814 9.31055C6.70216 9.31055 7.03901 9.04319 7.04684 8.65886C7.03901 8.30795 6.74916 8.12414 6.12247 7.97375L5.52711 7.82336C4.54791 7.58106 3.95255 7.06305 3.95255 6.15235C3.94472 5.03278 4.87692 4.28082 6.16164 4.28082C7.46986 4.28082 8.30806 5.04113 8.32372 6.16071H7.03901Z" fill="white"/>
<path d="M13.7687 7.3889C13.7687 9.38575 12.5937 10.497 11.074 10.497C9.5464 10.497 8.37919 9.37739 8.37919 7.3889C8.37919 5.39204 9.5464 4.28082 11.074 4.28082C12.5937 4.28082 13.7687 5.39204 13.7687 7.3889ZM12.4057 7.3889C12.4057 6.18577 11.9043 5.53408 11.074 5.53408C10.2436 5.53408 9.74224 6.18577 9.74224 7.3889C9.74224 8.59202 10.2436 9.24371 11.074 9.24371C11.9043 9.24371 12.4057 8.59202 12.4057 7.3889Z" fill="white"/>
<path d="M19.2372 7.3889C19.2372 9.38575 18.0622 10.497 16.5425 10.497C15.0149 10.497 13.8477 9.37739 13.8477 7.3889C13.8477 5.39204 15.0149 4.28082 16.5425 4.28082C18.0622 4.28082 19.2372 5.39204 19.2372 7.3889ZM17.8742 7.3889C17.8742 6.18577 17.3728 5.53408 16.5425 5.53408C15.7121 5.53408 15.2108 6.18577 15.2108 7.3889C15.2108 8.59202 15.7121 9.24371 16.5425 9.24371C17.3728 9.24371 17.8742 8.59202 17.8742 7.3889Z" fill="white"/>
<path d="M24.1966 4.36437V10.4134H23.0607L20.7576 6.86253H20.7184V10.4134H19.3867V4.36437H20.5383L22.8178 7.91526H22.8648V4.36437H24.1966Z" fill="white"/>
</svg>