<svg width="24" height="24" viewBox="0 0 24 24" fill="none" xmlns="http://www.w3.org/2000/svg" class="fill">
<path d="M21.2064 9.91284C20.3486 9.93119 19.8349 10.9587 19.7706 12.3853H22V10.3303C21.9587 10.2706 21.9128 10.2156 21.867 10.1697C21.6927 10.0046 21.4725 9.91743 21.2064 9.91284Z" fill="#F7F7F8"/>
<path d="M19.7339 12.7844C19.6468 14.3486 20.6193 15.6422 21.8945 15.7339C21.9312 15.7339 21.9633 15.7339 22 15.7385V12.7798H19.7339V12.7844Z" fill="#F7F7F8"/>
<path d="M21.1468 17.3991C19.1101 17.3991 17.9587 15.7018 17.9128 13.578C17.9128 13.445 17.9128 13.3119 17.9174 13.1835C17.9174 13.156 17.9174 13.1284 17.9174 13.1055C17.9174 13.078 17.9174 13.0505 17.922 13.0229C17.9954 12.0826 18.2982 11.2477 18.7982 10.633C19.1101 10.2477 19.4817 9.95872 19.9037 9.76147C20.2752 9.57339 20.7936 9.47248 21.2202 9.47248H21.2385C21.5 9.47248 21.7569 9.5 22 9.55505V5.28899C22 3.47248 20.5275 2 18.711 2H5.28899C3.47248 2 2 3.47248 2 5.28899V18.711C2 20.5275 3.47248 22 5.28899 22H18.711C20.5275 22 22 20.5275 22 18.711V17.2936C21.7385 17.367 21.4495 17.4083 21.1422 17.4083L21.1468 17.3991ZM18.0092 17.1835H14.1147V17.0688H14.1284C14.633 16.9495 14.9128 16.7844 14.9633 16.2523V8.34404L11.211 17.1651H11.0046L7.3578 8.58257V16.055C7.3578 16.7339 7.6422 16.922 8.19725 17.0459H8.21101V17.1651H5.97706V17.0505H5.99083C6.55046 16.922 6.83486 16.7339 6.83486 16.055V8.12385C6.83486 7.44495 6.55046 7.25688 5.99541 7.13303H5.98165V7.01376H9.27523L12.1147 13.6881L14.9541 7.01376H18.0138V7.12844H18C17.4404 7.25688 17.1606 7.44495 17.1606 8.12385V16.2523C17.211 16.789 17.5 16.9541 18.0046 17.0688H18.0183V17.1881L18.0092 17.1835Z" fill="#F7F7F8"/>
</svg>
