<svg width="15" height="17" viewBox="0 0 15 17" fill="none" xmlns="http://www.w3.org/2000/svg">
<g opacity="0.65">
<path d="M7.66132 0.513697C7.5886 0.495434 7.50087 0.495434 7.42815 0.513697L2.66384 1.96981L2.66136 1.97064C2.4382 2.04531 2.32841 2.2706 2.3827 2.48861L2.38622 2.49833C2.45907 2.69944 2.68061 2.8342 2.9079 2.75896L7.5517 1.34197L12.2951 2.80171C12.5245 2.87773 12.7462 2.73992 12.8178 2.52432C12.8941 2.2945 12.7575 2.07132 12.5418 1.99912L7.6661 0.514897L7.66132 0.513697Z" fill="#37383C" fill-opacity="0.61"/>
<path fill-rule="evenodd" clip-rule="evenodd" d="M0.932246 2.55315C0.905404 2.54866 0.878668 2.54685 0.852325 2.54757C0.787914 2.54584 0.722515 2.55866 0.660937 2.58676L0.655765 2.58912L0.650896 2.59205C0.508726 2.67769 0.418622 2.84341 0.441503 3.01418L0.377728 3.38766C0.358471 3.47393 0.276367 4.0486 0.276367 4.91911C0.276367 5.76684 0.36219 6.91563 0.676792 8.19375C0.949237 9.41672 1.49375 10.8691 2.48207 12.2927C3.47067 13.7166 4.90278 15.1252 6.9629 16.2312L6.96366 16.2316L7.34538 16.4445C7.47515 16.5187 7.61246 16.5184 7.74225 16.4441L8.12339 16.2316L8.12414 16.2312C10.1842 15.1252 11.6163 13.7166 12.6049 12.2927C13.5936 10.8687 14.1378 9.41612 14.4384 8.20909C14.7532 6.93058 14.8391 5.79565 14.8391 4.93337C14.8391 4.06293 14.757 3.48828 14.7377 3.40192L14.6536 2.90923C14.6398 2.77471 14.561 2.64874 14.4252 2.58676C14.2794 2.52022 14.1103 2.53895 13.9903 2.63672C13.9078 2.6941 13.8525 2.78053 13.8333 2.87807L11.2566 8.21924C11.243 8.21783 11.2292 8.21711 11.2152 8.21711H3.99542L1.2669 2.87211C1.23329 2.71066 1.10397 2.58188 0.932246 2.55315ZM1.10063 4.91911C1.10063 4.72122 1.10538 4.54005 1.11263 4.37846L6.53936 15.0082C5.03091 14.0523 3.95234 12.93 3.17136 11.8083C2.2561 10.4795 1.7489 9.13595 1.46707 7.99006C1.1712 6.80197 1.10063 5.71219 1.10063 4.91911ZM11.9972 8.5784V8.56206L13.9908 4.42956C13.9968 4.57795 14.0006 4.74182 14.0006 4.91911C14.0006 5.71219 13.93 6.80197 13.6342 7.99006C13.3522 9.12222 12.845 10.4798 11.9297 11.8086C11.1535 12.9355 10.0724 14.0433 8.5821 14.9932L11.9972 8.5784ZM7.55199 15.1842L4.41743 9.04379H10.8182L7.55199 15.1842Z" fill="#37383C" fill-opacity="0.61"/>
</g>
</svg>
