<svg width="20" height="20" viewBox="0 0 20 20" fill="none" xmlns="http://www.w3.org/2000/svg">
<path d="M18.7303 10.0013L16.7938 7.78702L17.0637 4.85844L14.1986 4.20765L12.6986 1.66797L10.0002 2.8267L7.30177 1.66797L5.80177 4.19971L2.93669 4.84257L3.20653 7.77908L1.27002 10.0013L3.20653 12.2156L2.93669 15.1521L5.80177 15.8029L7.30177 18.3346L10.0002 17.168L12.6986 18.3267L14.1986 15.795L17.0637 15.1442L16.7938 12.2156L18.7303 10.0013Z" fill="#CB59FF"/>
<path d="M8.12103 13.121L6.23214 11.2163C5.92262 10.9067 5.92262 10.4067 6.23214 10.0972L6.2877 10.0417C6.59722 9.73214 7.10516 9.73214 7.41468 10.0417L8.69246 11.3274L12.7798 7.23214C13.0893 6.92262 13.5972 6.92262 13.9067 7.23214L13.9623 7.2877C14.2718 7.59722 14.2718 8.09722 13.9623 8.40675L9.26389 13.121C8.93849 13.4306 8.43849 13.4306 8.12103 13.121Z" fill="white"/>
</svg>
