<svg xmlns="http://www.w3.org/2000/svg" width="35" height="18" viewBox="0 0 35 18" fill="none">
<path d="M0 6C0 2.68629 2.68629 0 6 0H29C32.3137 0 35 2.68629 35 6V12C35 15.3137 32.3137 18 29 18H0V6Z" fill="#6541F2"/>
<path d="M4.16406 13.3887V5.61133H7.37598C9.11621 5.61133 10.0186 6.40625 10.0186 7.58789C10.0186 8.47949 9.41699 9.0918 8.56836 9.26367V9.33887C9.50293 9.38184 10.3193 10.0908 10.3193 11.2188C10.3193 12.4756 9.3418 13.3887 7.62305 13.3887H4.16406ZM7.19336 11.9062C8.03125 11.9062 8.40723 11.5732 8.40723 11.0146C8.40723 10.4023 7.95605 10.0156 7.22559 10.0156H5.99023V11.9062H7.19336ZM7.0752 8.82324C7.69824 8.82324 8.14941 8.49023 8.14941 7.93164C8.14941 7.40527 7.75195 7.07227 7.09668 7.07227H5.99023V8.82324H7.0752Z" fill="white"/>
<path d="M11.0567 13.3887V5.61133H16.4385V7.10449H12.8829V8.74805H16.1592V10.2412H12.8829V11.8955H16.4493V13.3887H11.0567Z" fill="white"/>
<path d="M17.1759 7.10449V5.61133H23.7179V7.10449H21.3546V13.3887H19.5391V7.10449H17.1759Z" fill="white"/>
<path d="M25.1105 13.3887H23.1339L25.7765 5.61133H28.2042L30.8361 13.3887H28.8702L28.3439 11.7236H25.6368L25.1105 13.3887ZM26.0773 10.3271H27.9034L27.0226 7.53418H26.9581L26.0773 10.3271Z" fill="white"/>
</svg>