<svg width="24" height="24" viewBox="0 0 24 24" fill="none" xmlns="http://www.w3.org/2000/svg" class="fill">
<path d="M12 20.4348C7.62249 20.4348 4.01807 17.1674 3.60643 13H2C2.41165 18.038 6.72892 22 12 22C17.2711 22 21.5884 18.038 22 13H20.3936C19.992 17.1674 16.3775 20.4348 12 20.4348Z" fill="#F7F7F8"/>
<path d="M12 2C6.72892 2 2.41165 5.96196 2 11H3.60643C4.00803 6.83261 7.62249 3.56522 12 3.56522C16.3775 3.56522 19.992 6.83261 20.3936 11H22C21.5884 5.96196 17.2711 2 12 2Z" fill="#F7F7F8"/>
<path d="M12.5501 11.09C13.2501 10.66 13.7801 10.06 13.7801 9.18C13.7801 8.13 12.9801 7.49 11.9901 7.49C11.0901 7.49 10.2301 8.04 10.1501 9.27H8.36011C8.43011 7.16 10.0201 6 12.0001 6C14.1601 6 15.6001 7.29 15.6001 9.19C15.6001 10.52 14.9701 11.41 13.9101 12.06C12.9101 12.66 12.5301 13.27 12.5001 14.62V14.72H10.8101V14.62C10.8301 12.45 11.4701 11.78 12.5701 11.1L12.5501 11.09ZM10.5301 17.12C10.5101 16.47 11.0601 15.94 11.7101 15.94C12.3601 15.94 12.8901 16.47 12.8901 17.12C12.8901 17.77 12.3401 18.3 11.7101 18.3C11.0801 18.3 10.5101 17.77 10.5301 17.12Z" fill="#F7F7F8"/>
</svg>
