<svg width="24" height="24" viewBox="0 0 24 24" fill="none" xmlns="http://www.w3.org/2000/svg" class="fill">
<path d="M21.94 5.98H8.23997L8.73997 7.57H19.76L18.27 12.14H8.53997L5.56997 3H1.99997V4.59H4.37997L8.34997 16.9H18.87V15.31H9.53997L9.03997 13.72H19.46L21.94 5.98Z" fill="#F7F7F8"/>
<path d="M9.92997 17.89C8.83997 17.89 7.94997 18.78 7.94997 19.87C7.94997 20.96 8.83997 21.86 9.92997 21.86C11.02 21.86 11.91 20.97 11.91 19.87C11.91 18.77 11.02 17.89 9.92997 17.89ZM9.92997 20.47C9.62997 20.47 9.32997 20.17 9.32997 19.87C9.32997 19.57 9.62997 19.27 9.92997 19.27C10.23 19.27 10.53 19.57 10.53 19.87C10.53 20.17 10.23 20.47 9.92997 20.47Z" fill="#F7F7F8"/>
<path d="M16.88 17.89C15.79 17.89 14.9 18.78 14.9 19.87C14.9 20.96 15.79 21.86 16.88 21.86C17.97 21.86 18.86 20.97 18.86 19.87C18.86 18.77 17.97 17.89 16.88 17.89ZM16.88 20.47C16.58 20.47 16.28 20.17 16.28 19.87C16.28 19.57 16.58 19.27 16.88 19.27C17.18 19.27 17.48 19.57 17.48 19.87C17.48 20.17 17.18 20.47 16.88 20.47Z" fill="#F7F7F8"/>
</svg>
