<svg xmlns="http://www.w3.org/2000/svg" width="28" height="14" viewBox="0 0 28 14" fill="none">
<path d="M0 6C0 2.68629 2.68629 0 6 0H22C25.3137 0 28 2.68629 28 6V8C28 11.3137 25.3137 14 22 14H0V6Z" fill="#6541F2"/>
<path d="M3.33105 10.4134V4.36438H5.90059C7.29277 4.36438 8.01465 4.98265 8.01465 5.90171C8.01465 6.59517 7.5334 7.07141 6.85449 7.20509V7.26358C7.60215 7.297 8.25527 7.84843 8.25527 8.72571C8.25527 9.70325 7.47324 10.4134 6.09824 10.4134H3.33105ZM5.75449 9.26043C6.4248 9.26043 6.72559 9.00142 6.72559 8.56696C6.72559 8.09073 6.36465 7.78994 5.78027 7.78994H4.79199V9.26043H5.75449ZM5.65996 6.86254C6.1584 6.86254 6.51934 6.60353 6.51934 6.16907C6.51934 5.75967 6.20137 5.50066 5.67715 5.50066H4.79199V6.86254H5.65996Z" fill="white"/>
<path d="M8.84515 10.4134V4.36438H13.1506V5.52573H10.3061V6.80405H12.9272V7.9654H10.3061V9.25208H13.1592V10.4134H8.84515Z" fill="white"/>
<path d="M13.7405 5.52573V4.36438H18.9741V5.52573H17.0835V10.4134H15.6311V5.52573H13.7405Z" fill="white"/>
<path d="M20.0882 10.4134H18.5069L20.621 4.36438H22.5632L24.6686 10.4134H23.096L22.6749 9.11839H20.5093L20.0882 10.4134ZM20.8616 8.03224H22.3226L21.6179 5.85993H21.5663L20.8616 8.03224Z" fill="white"/>
</svg>