<svg xmlns="http://www.w3.org/2000/svg" width="24" height="24" viewBox="0 0 24 24" fill="none" class="fill">
<path fill-rule="evenodd" clip-rule="evenodd" d="M11.9955 3.6C7.35635 3.6 3.59554 7.36081 3.59554 12C3.59554 16.6392 7.35635 20.4 11.9955 20.4C16.2057 20.4 19.6938 17.3018 20.3017 13.261L21.8839 13.499C21.16 18.311 17.0093 22 11.9955 22C6.47269 22 1.99554 17.5228 1.99554 12C1.99554 6.47715 6.47269 2 11.9955 2C15.4516 2 18.497 3.75317 20.2928 6.41673V3.93594H21.8928V8.5359V9.33594H16.4928V7.73594H19.2345C17.7726 5.25951 15.0771 3.6 11.9955 3.6Z" fill="#F7F7F8"/>
</svg>