<svg width="24" height="24" viewBox="0 0 24 24" fill="none" xmlns="http://www.w3.org/2000/svg" class="fill">
<path d="M7.68999 14.0399L15.5 18.6099C15.45 18.8199 15.41 19.0399 15.41 19.2699C15.41 20.8099 16.67 22.0699 18.21 22.0699C19.75 22.0699 21.01 20.8099 21.01 19.2699C21.01 17.7299 19.75 16.4699 18.21 16.4699C17.47 16.4699 16.81 16.7599 16.31 17.2299L8.49999 12.6599C8.54999 12.4499 8.58999 12.2299 8.58999 11.9999C8.58999 11.7699 8.54999 11.5499 8.49999 11.3399L16.31 6.76993C16.81 7.23993 17.48 7.52993 18.21 7.52993C19.75 7.52993 21.01 6.26993 21.01 4.72993C21.01 3.18993 19.75 1.92993 18.21 1.92993C16.67 1.92993 15.41 3.18993 15.41 4.72993C15.41 4.95993 15.45 5.17993 15.5 5.38993L7.68999 9.95993C7.18999 9.48993 6.51999 9.19993 5.78999 9.19993C4.24999 9.19993 2.98999 10.4599 2.98999 11.9999C2.98999 13.5399 4.24999 14.7999 5.78999 14.7999C6.52999 14.7999 7.18999 14.5099 7.68999 14.0399ZM17.86 18.1399C17.97 18.1099 18.08 18.0699 18.21 18.0699C18.87 18.0699 19.41 18.6099 19.41 19.2699C19.41 19.9299 18.87 20.4699 18.21 20.4699C17.64 20.4699 17.18 20.0599 17.06 19.5199C17.04 19.4399 17.01 19.3599 17.01 19.2699C17.01 18.7299 17.37 18.2899 17.86 18.1399ZM18.21 3.52993C18.87 3.52993 19.41 4.06993 19.41 4.72993C19.41 5.38993 18.87 5.92993 18.21 5.92993C18.09 5.92993 17.98 5.88993 17.86 5.85993C17.37 5.70993 17.01 5.26993 17.01 4.72993C17.01 4.63993 17.04 4.55993 17.06 4.47993C17.18 3.93993 17.64 3.52993 18.21 3.52993ZM4.57999 11.9999C4.57999 11.3399 5.11999 10.7999 5.77999 10.7999C5.89999 10.7999 6.00999 10.8399 6.12999 10.8699C6.53999 10.9999 6.83999 11.3199 6.92999 11.7499C6.94999 11.8299 6.97999 11.9099 6.97999 11.9999C6.97999 12.0899 6.94999 12.1699 6.92999 12.2499C6.83999 12.6699 6.53999 12.9999 6.12999 13.1299C6.01999 13.1599 5.90999 13.1999 5.77999 13.1999C5.11999 13.1999 4.57999 12.6599 4.57999 11.9999Z" fill="#F7F7F8"/>
</svg>
