<svg width="24" height="24" viewBox="0 0 24 24" fill="none" xmlns="http://www.w3.org/2000/svg" class="fill">
<path d="M17.9137 12.5693C17.9042 10.9299 18.6399 9.69441 20.1255 8.78338C19.2946 7.58151 18.0375 6.92048 16.3804 6.79308C14.8114 6.66809 13.0949 7.71612 12.4663 7.71612C11.802 7.71612 10.2831 6.83634 9.08788 6.83634C6.62132 6.8748 4 8.82184 4 12.7832C4 13.9538 4.21189 15.1629 4.63569 16.4081C5.20233 18.0474 7.2451 22.0641 9.37597 21.9992C10.4902 21.9727 11.2783 21.2011 12.7282 21.2011C14.1353 21.2011 14.8639 21.9992 16.1066 21.9992C18.2565 21.968 20.1041 18.3166 20.6422 16.6725C17.7589 15.3 17.9137 12.6534 17.9137 12.5693ZM15.4114 5.23785C16.6185 3.7908 16.509 2.47354 16.4733 2C15.4067 2.0625 14.1734 2.73314 13.471 3.55763C12.6973 4.44221 12.2425 5.53591 12.3401 6.76903C13.4924 6.85798 14.5448 6.25944 15.4114 5.23785Z" fill="#F7F7F8"/>
</svg>
