<svg width="24" height="24" viewBox="0 0 24 24" fill="none" xmlns="http://www.w3.org/2000/svg" class="fill">
<path d="M7.93994 12.05C7.93994 9.83002 9.74994 8.02002 11.9699 8.02002C14.1899 8.02002 15.9999 9.83002 15.9999 12.05C15.9999 14.27 14.1899 16.08 11.9699 16.08C9.74994 16.08 7.93994 14.27 7.93994 12.05ZM9.53994 12.06C9.53994 13.4 10.6299 14.49 11.9699 14.49C13.3099 14.49 14.3999 13.4 14.3999 12.06C14.3999 10.72 13.3099 9.63002 11.9699 9.63002C10.6299 9.63002 9.53994 10.72 9.53994 12.06Z" fill="#F7F7F8"/>
<path d="M19.6398 5.28999L21.6098 8.69999L19.8498 10.89V13.1L21.6098 15.29L19.6398 18.7L16.8598 18.27L14.9398 19.38L13.9198 22H9.9898L8.9698 19.38L7.0498 18.27L4.2698 18.7L2.2998 15.29L4.0598 13.1V10.89L2.2998 8.69999L4.2698 5.28999L7.0498 5.71999L8.9698 4.60999L9.9898 1.98999H13.9198L14.9398 4.60999L16.8598 5.71999L19.6398 5.28999ZM19.6798 15.45L18.6098 14.11L18.2598 13.67V10.33L18.6098 9.88999L19.6798 8.54999L18.8098 7.03999L17.1198 7.29999L16.5598 7.38999L16.0698 7.10999L14.1498 5.99999L13.6598 5.71999L13.4598 5.19999L12.8398 3.59999H11.0998L10.4798 5.19999L10.2798 5.71999L9.7898 5.99999L7.8698 7.10999L7.3798 7.38999L6.81981 7.29999L5.1298 7.03999L4.2598 8.54999L5.3298 9.88999L5.6798 10.33V13.67L5.3298 14.11L4.2598 15.45L5.1298 16.96L6.81981 16.7L7.3798 16.61L7.8698 16.89L9.7898 18L10.2798 18.28L10.4798 18.8L11.0998 20.4H12.8398L13.4598 18.8L13.6598 18.28L14.1498 18L16.0698 16.89L16.5598 16.61L17.1198 16.7L18.8098 16.96L19.6798 15.45Z" fill="#F7F7F8"/>
</svg>
