<svg width="24" height="24" viewBox="0 0 24 24" fill="none" xmlns="http://www.w3.org/2000/svg" class="fill">
<path d="M11.9992 22.5C10.0492 22.5 8.27965 22.0173 6.69048 21.0518C5.10148 20.0864 3.85507 18.7928 2.95123 17.171V20.1538H1.45123V14.6538H6.95123V16.1538H4.11073C4.83373 17.6103 5.90232 18.7821 7.31648 19.6693C8.73065 20.5564 10.2916 21 11.9992 21C13.2236 21 14.372 20.7737 15.4445 20.3212C16.5168 19.8686 17.4556 19.2509 18.2607 18.4683C19.0659 17.6856 19.7124 16.7613 20.2002 15.6953C20.6881 14.6293 20.9512 13.4808 20.9897 12.25H22.4895C22.4575 13.6705 22.1604 15.0026 21.5982 16.2462C21.0361 17.4897 20.2822 18.5763 19.3367 19.5058C18.3912 20.4353 17.2886 21.1667 16.029 21.7C14.7693 22.2333 13.4261 22.5 11.9992 22.5ZM11.2915 18.8078V17.5462C10.5595 17.3756 9.95082 17.0717 9.46548 16.6345C8.98032 16.1973 8.60823 15.6077 8.34923 14.8655L9.61448 14.35C9.85298 15.0013 10.1944 15.4963 10.6387 15.8348C11.0829 16.1731 11.5864 16.3422 12.1492 16.3422C12.7184 16.3422 13.2293 16.2003 13.682 15.9163C14.1345 15.6324 14.3607 15.177 14.3607 14.55C14.3607 14.0282 14.1662 13.6125 13.7772 13.303C13.3881 12.9933 12.6621 12.6436 11.5992 12.2537C10.5711 11.8846 9.8294 11.4712 9.37423 11.0135C8.91907 10.5558 8.69148 9.95133 8.69148 9.2C8.69148 8.55517 8.92423 7.96475 9.38973 7.42875C9.85507 6.89292 10.5056 6.55125 11.3415 6.40375V5.19225H12.707V6.40375C13.2685 6.44742 13.7855 6.65867 14.258 7.0375C14.7303 7.41633 15.071 7.87175 15.28 8.40375L14.0455 8.9C13.8736 8.5295 13.6281 8.2215 13.3087 7.976C12.9896 7.7305 12.5697 7.60775 12.0492 7.60775C11.4274 7.60775 10.9399 7.75517 10.5867 8.05C10.2336 8.34483 10.057 8.72817 10.057 9.2C10.057 9.67183 10.2294 10.0392 10.5742 10.302C10.9191 10.5648 11.6171 10.8758 12.6685 11.2348C13.8685 11.6681 14.6749 12.1539 15.0877 12.6923C15.5006 13.2308 15.707 13.85 15.707 14.55C15.707 15.027 15.6188 15.4456 15.4425 15.8057C15.2661 16.1661 15.0357 16.469 14.7512 16.7145C14.4666 16.96 14.1425 17.1539 13.779 17.2962C13.4155 17.4384 13.0415 17.5384 12.657 17.5963V18.8078H11.2915ZM1.50898 11.75C1.55382 10.2975 1.86048 8.94783 2.42898 7.701C2.99765 6.45417 3.7579 5.36925 4.70973 4.44625C5.66173 3.52308 6.76273 2.80125 8.01273 2.28075C9.26273 1.76025 10.5916 1.5 11.9992 1.5C13.9301 1.5 15.6996 1.98433 17.308 2.953C18.9163 3.9215 20.1627 5.22633 21.0472 6.8675V3.84625H22.5472V9.34625H17.0472V7.84625H19.8877C19.1839 6.41542 18.1233 5.25 16.706 4.35C15.2886 3.45 13.7197 3 11.9992 3C10.8006 3 9.66657 3.22308 8.59723 3.66925C7.52807 4.11542 6.58773 4.72658 5.77623 5.50275C4.96473 6.27908 4.31023 7.20025 3.81273 8.26625C3.31523 9.33225 3.04723 10.4935 3.00873 11.75H1.50898Z" fill="#F7F7F8"/>
</svg>
