<svg width="37" height="18" viewBox="0 0 37 18" fill="none" xmlns="http://www.w3.org/2000/svg">
<path d="M1 6C1 2.68629 3.68629 0 7 0H30C33.3137 0 36 2.68629 36 6V12C36 15.3137 33.3137 18 30 18H1V6Z" fill="#00AEFF"/>
<path d="M8.17611 7.53223C8.13314 6.96289 7.7142 6.62988 6.96225 6.62988C6.22104 6.62988 5.84506 6.95215 5.83432 7.39258C5.82357 7.87598 6.29623 8.1123 6.99447 8.2627L7.67123 8.42383C9.16439 8.75684 10.0345 9.49805 10.0453 10.7441C10.0345 12.2158 8.89584 13.1074 6.96225 13.1074C5.02865 13.1074 3.77182 12.2266 3.73959 10.4434H5.50131C5.54428 11.1953 6.10287 11.582 6.94076 11.582C7.7142 11.582 8.17611 11.2383 8.18686 10.7441C8.17611 10.293 7.77865 10.0566 6.91928 9.86328L6.10287 9.66992C4.7601 9.3584 3.94369 8.69238 3.94369 7.52148C3.93295 6.08203 5.21127 5.11523 6.97299 5.11523C8.76693 5.11523 9.91635 6.09277 9.93783 7.53223H8.17611ZM17.8445 9.11133C17.8445 11.6787 16.2332 13.1074 14.1492 13.1074C12.0545 13.1074 10.4539 11.668 10.4539 9.11133C10.4539 6.54395 12.0545 5.11523 14.1492 5.11523C16.2332 5.11523 17.8445 6.54395 17.8445 9.11133ZM15.9754 9.11133C15.9754 7.56445 15.2879 6.72656 14.1492 6.72656C13.0105 6.72656 12.323 7.56445 12.323 9.11133C12.323 10.6582 13.0105 11.4961 14.1492 11.4961C15.2879 11.4961 15.9754 10.6582 15.9754 9.11133ZM25.7834 9.11133C25.7834 11.6787 24.1721 13.1074 22.0881 13.1074C19.9934 13.1074 18.3928 11.668 18.3928 9.11133C18.3928 6.54395 19.9934 5.11523 22.0881 5.11523C24.1721 5.11523 25.7834 6.54395 25.7834 9.11133ZM23.9143 9.11133C23.9143 7.56445 23.2268 6.72656 22.0881 6.72656C20.9494 6.72656 20.2619 7.56445 20.2619 9.11133C20.2619 10.6582 20.9494 11.4961 22.0881 11.4961C23.2268 11.4961 23.9143 10.6582 23.9143 9.11133ZM33.0241 5.22266V13H31.4665L28.3083 8.43457H28.2546V13H26.4284V5.22266H28.0075L31.1335 9.78809H31.1979V5.22266H33.0241Z" fill="white"/>
</svg>
