<svg width="24" height="24" viewBox="0 0 24 24" fill="none" xmlns="http://www.w3.org/2000/svg" class="fill">
<path fill-rule="evenodd" clip-rule="evenodd" d="M21.504 12.2252C21.504 11.5234 21.4413 10.848 21.3236 10.2001H12V14.0292H17.3284C17.0985 15.2667 16.4011 16.3161 15.3528 17.0179V19.5017H18.5516C20.4238 17.778 21.504 15.2403 21.504 12.2252Z" fill="#F7F7F8"/>
<path fill-rule="evenodd" clip-rule="evenodd" d="M12.0002 21.9003C14.6732 21.9003 16.9137 21.0131 18.5516 19.5017L15.3528 17.0179C14.4662 17.6119 13.3323 17.9623 12.0002 17.9623C9.42184 17.9623 7.23944 16.221 6.46064 13.8813H3.15294V16.4465C4.78204 19.6816 8.13044 21.9003 12.0002 21.9003Z" fill="#F7F7F8"/>
<path fill-rule="evenodd" clip-rule="evenodd" d="M6.46064 13.8813C6.26264 13.2873 6.15017 12.6526 6.15017 12.0003C6.15017 11.348 6.26237 10.7133 6.46037 10.1193V7.55405H3.15268C2.48278 8.89055 2.09998 10.4031 2.09998 12.0003C2.09998 13.5975 2.48304 15.11 3.15294 16.4465L6.46064 13.8813Z" fill="#F7F7F8"/>
<path fill-rule="evenodd" clip-rule="evenodd" d="M12.0002 6.03785C13.4533 6.03785 14.759 6.53725 15.7842 7.51845L18.6244 4.67935C16.9095 3.08105 14.6688 2.09985 12.0002 2.09985C8.13044 2.09985 4.78177 4.31785 3.15268 7.55405L6.46037 10.1193C7.23917 7.77955 9.42184 6.03785 12.0002 6.03785Z" fill="#F7F7F8"/>
</svg>
