<svg width="24" height="24" viewBox="0 0 24 24" fill="none" xmlns="http://www.w3.org/2000/svg" class="fill">
<path d="M22 12C22 17.5242 17.5162 22 11.9838 22C7.39516 22 3.53226 18.9234 2.34677 14.7258L6.18548 16.3105C6.44355 17.6048 7.59274 18.5847 8.96371 18.5847C10.5443 18.5847 11.8629 17.2782 11.7943 15.621L15.2016 13.1936C17.3024 13.246 19.0645 11.5443 19.0645 9.42338C19.0645 7.30242 17.371 5.65322 15.2862 5.65322C13.2016 5.65322 11.5081 7.34678 11.5081 9.42338V9.47178L9.12097 12.9274C8.49597 12.8912 7.88307 13.0645 7.36693 13.4153L2 11.1976C2.41129 6.04838 6.72178 2 11.9838 2C17.5162 2 22 6.47581 22 12ZM8.27822 17.1734L7.04838 16.6653C7.27439 17.1346 7.66462 17.5047 8.14516 17.7057C9.22984 18.1572 10.4758 17.6412 10.9274 16.5605C11.1452 16.0363 11.1492 15.4597 10.9314 14.9355C10.7137 14.4113 10.3064 14 9.78226 13.7822C9.2621 13.5645 8.70564 13.5726 8.21371 13.7581L9.48387 14.2822C10.2823 14.6129 10.6613 15.5282 10.3266 16.3266C9.99193 17.129 9.07661 17.504 8.27822 17.1734ZM15.2862 11.9355C13.8992 11.9355 12.7702 10.8064 12.7702 9.42338C12.7702 8.04032 13.8992 6.91129 15.2862 6.91129C16.6734 6.91129 17.8024 8.04032 17.8024 9.42338C17.8024 10.8064 16.6774 11.9355 15.2862 11.9355ZM15.2903 11.3064C16.3347 11.3064 17.1814 10.4597 17.1814 9.41936C17.1814 8.37903 16.3347 7.53226 15.2903 7.53226C14.246 7.53226 13.3992 8.37903 13.3992 9.41936C13.4032 10.4597 14.25 11.3064 15.2903 11.3064Z" fill="#F7F7F8"/>
</svg>
