<svg width="24" height="24" viewBox="0 0 24 24" fill="none" xmlns="http://www.w3.org/2000/svg" class="fill">
<path d="M21.94 5.98H6.54L5.57 3H2V4.59H4.38L8.35 16.9H18.87V15.31H9.54L9.04 13.72H19.46L21.94 5.98Z" fill="#F7F7F8"/>
<path d="M9.93 17.89C8.84 17.89 7.95 18.78 7.95 19.87C7.95 20.96 8.84 21.86 9.93 21.86C11.02 21.86 11.91 20.97 11.91 19.87C11.91 18.77 11.02 17.89 9.93 17.89Z" fill="#F7F7F8"/>
<path d="M16.88 17.89C15.79 17.89 14.9 18.78 14.9 19.87C14.9 20.96 15.79 21.86 16.88 21.86C17.97 21.86 18.86 20.97 18.86 19.87C18.86 18.77 17.97 17.89 16.88 17.89Z" fill="#F7F7F8"/>
</svg>
