<svg width="24" height="24" viewBox="0 0 24 24" fill="none" xmlns="http://www.w3.org/2000/svg" class="fill">
<path d="M15.2339 17.6298L12.1478 20.7159C11.1197 21.744 9.88109 22.258 8.43189 22.258C6.98283 22.2582 5.74433 21.7443 4.71638 20.7163C3.68843 19.6884 3.17439 18.4497 3.17426 17.0004C3.17398 15.5509 3.68789 14.3121 4.71597 13.2841L7.80206 10.198L9.0302 11.4261L5.9441 14.5122C5.25649 15.1998 4.91274 16.0291 4.91288 17C4.91288 17.971 5.25662 18.8003 5.9441 19.4878C6.63159 20.1753 7.46085 20.519 8.43189 20.519C9.4028 20.5191 10.2321 20.1754 10.9197 19.4878L14.0058 16.4017L15.2339 17.6298ZM10.0379 16.6221L8.80975 15.394L14.9504 9.25333L16.1785 10.4815L10.0379 16.6221ZM17.1862 15.6775L15.9581 14.4494L19.0442 11.3633C19.7318 10.6756 20.0755 9.84639 20.0754 8.87548C20.0754 7.90443 19.7317 7.07517 19.0442 6.38769C18.3567 5.70021 17.5274 5.35647 16.5564 5.35647C15.5855 5.35633 14.7562 5.70007 14.0686 6.38769L10.9825 9.47378L9.75439 8.24565L12.8405 5.15956C13.8686 4.13147 15.1072 3.61743 16.5564 3.61743C18.0055 3.6173 19.244 4.1312 20.2719 5.15915C21.2999 6.1871 21.8139 7.42574 21.814 8.87507C21.8143 10.3245 21.3004 11.5633 20.2723 12.5914L17.1862 15.6775Z" fill="#F7F7F8"/>
</svg>
