<svg xmlns="http://www.w3.org/2000/svg" width="24" height="24" viewBox="0 0 24 24" fill="none" class="fill">
<path d="M7 8.08C8.4 8.08 9.54 6.94 9.54 5.54C9.54 4.14 8.4 3 7 3C5.6 3 4.46 4.14 4.46 5.54C4.46 6.94 5.6 8.08 7 8.08Z" fill="#F7F7F8"/>
<path d="M17 8.08C18.4 8.08 19.54 6.94 19.54 5.54C19.54 4.14 18.4 3 17 3C15.6 3 14.46 4.14 14.46 5.54C14.46 6.94 15.6 8.08 17 8.08Z" fill="#F7F7F8"/>
<path d="M9.47 8.62C9.47 8.62 9.47 8.71 9.48 8.75C9.59 10.05 10.67 11.07 12 11.07C13.33 11.07 14.41 10.04 14.52 8.75C14.52 8.71 14.52 8.66 14.52 8.62V8.54C14.52 7.14 13.38 6 11.98 6C10.58 6 9.44 7.14 9.44 8.54V8.62H9.47Z" fill="#F7F7F8"/>
<path d="M14.83 11.95L14.33 11.65H9.67L9.17 11.95L8.6 12.29L7 13.25V20H17V13.25L15.4 12.29L14.83 11.95Z" fill="#F7F7F8"/>
<path d="M16 10.74L18.6 12.29V17.01H22V10.26L19.33 8.66H16V10.74Z" fill="#F7F7F8"/>
<path d="M8 10.74V8.66H4.67L2 10.26V17.01H5.4V12.29L8 10.74Z" fill="#F7F7F8"/>
</svg>