<svg width="24" height="24" viewBox="0 0 24 24" fill="none" xmlns="http://www.w3.org/2000/svg" class="fill">
<path d="M12.0006 2C9.70778 2 7.59381 2.40494 6.02309 3.09202C5.23893 3.43504 4.55409 3.86414 4.05413 4.3812C3.55044 4.90211 3.20056 5.55153 3.20056 6.29943C3.20056 7.04734 3.55044 7.69676 4.05413 8.21767C4.55409 8.73473 5.23893 9.16383 6.0231 9.50685C7.59381 10.1939 9.70778 10.5989 12.0006 10.5989C14.2933 10.5989 16.4073 10.1939 17.978 9.50685C18.7622 9.16383 19.447 8.73473 19.947 8.21767C20.4507 7.69676 20.8006 7.04734 20.8006 6.29943C20.8006 5.55153 20.4507 4.90211 19.947 4.3812C19.447 3.86414 18.7622 3.43504 17.978 3.09202C16.4073 2.40494 14.2933 2 12.0006 2Z" fill="#F7F7F8"/>
<path d="M3.77745 10.1974C3.42685 10.6558 3.20056 11.1936 3.20056 11.7951C3.20056 12.543 3.55044 13.1924 4.05413 13.7133C4.55409 14.2304 5.23893 14.6595 6.0231 15.0025C7.59381 15.6896 9.70778 16.0945 12.0006 16.0945C14.2933 16.0945 16.4073 15.6896 17.978 15.0025C18.7622 14.6595 19.447 14.2304 19.947 13.7133C20.4507 13.1924 20.8006 12.543 20.8006 11.7951C20.8006 11.1936 20.5742 10.6558 20.2236 10.1973C19.8775 10.4402 19.4814 10.6748 19.0283 10.8962C17.1648 11.8077 14.6669 12.2999 12.0004 12.2999C9.33374 12.2999 6.83595 11.8061 4.97269 10.8963C4.51965 10.6749 4.12349 10.4403 3.77745 10.1974Z" fill="#F7F7F8"/>
<path d="M3.77932 15.6987C3.42738 16.1579 3.20007 16.6967 3.20007 17.2995C3.20007 18.0475 3.54995 18.6969 4.05364 19.2178C4.5536 19.7348 5.23844 20.1639 6.02261 20.507C7.59332 21.194 9.7073 21.599 12.0001 21.599C14.2928 21.599 16.4068 21.194 17.9775 20.507C18.7617 20.1639 19.4465 19.7348 19.9465 19.2178C20.4502 18.6969 20.8001 18.0475 20.8001 17.2995C20.8001 16.6969 20.5729 16.1581 20.2211 15.6991C19.8756 15.9414 19.4803 16.1754 19.0283 16.3963C17.1648 17.3078 14.6669 17.7999 12.0004 17.7999C9.33374 17.7999 6.83595 17.3062 4.97269 16.3963C4.52047 16.1753 4.12491 15.9412 3.77932 15.6987Z" fill="#F7F7F8"/>
</svg>
