<svg width="24" height="24" viewBox="0 0 24 24" fill="none" xmlns="http://www.w3.org/2000/svg" class="fill">
<path d="M11.2399 5V2H12.8399L12.8402 6.61H5.34989L3.59989 17.14C3.62989 18.4 4.65989 19.41 5.92989 19.41C6.99989 19.41 7.92989 18.69 8.18989 17.65L8.44989 16.63L8.74989 15.42H9.98989L13.9899 15.4H15.2499L15.5499 16.62L15.7999 17.63C16.0499 18.67 16.9799 19.4 18.0599 19.4C19.3199 19.4 20.3599 18.39 20.3899 17.13L18.6399 6.6V6.61H14.4402V5H19.9999L21.9999 17V17.07C21.9999 19.24 20.2399 21 18.0699 21C16.2599 21 14.6799 19.77 14.2499 18.01L13.9999 17.01H9.99989L9.73989 18.03C9.29989 19.78 7.72989 21 5.92989 21C3.75989 21 1.99989 19.24 1.99989 17.07V17L3.99989 5H11.2399Z" fill="#F7F7F8"/>
<path d="M7.20989 13.5V11.8H5.49989V10.2H7.20989V8.5H8.80989V10.2H10.4999V11.8H8.80989V13.5H7.20989Z" fill="#F7F7F8"/>
<path d="M13.4901 11C13.4901 9.62 14.6101 8.5 15.9901 8.5C17.3701 8.5 18.4901 9.62 18.4901 11C18.4901 12.38 17.3701 13.5 15.9901 13.5C14.6101 13.5 13.4901 12.38 13.4901 11ZM16.8901 11C16.8901 10.5 16.4901 10.1 15.9901 10.1C15.4901 10.1 15.0901 10.5 15.0901 11C15.0901 11.5 15.4901 11.9 15.9901 11.9C16.4901 11.9 16.8901 11.5 16.8901 11Z" fill="#F7F7F8"/>
</svg>
