<svg width="24" height="24" viewBox="0 0 24 24" fill="none" xmlns="http://www.w3.org/2000/svg" class="fill">
<path d="M6.36619 19.3816H6.36869L5.27542 21.2771C4.87684 21.9681 3.99222 22.2055 3.30003 21.8056C2.60908 21.407 2.37168 20.5224 2.77151 19.8315L3.57741 18.4358L3.65487 18.3021C3.79356 18.1034 4.13342 17.7611 4.81562 17.8261C4.81562 17.8261 6.41992 17.9998 6.53613 18.8344C6.53613 18.8344 6.55236 19.1093 6.36745 19.3829L6.36619 19.3816ZM21.8769 14.5437H18.4672C18.2348 14.5287 18.1336 14.4451 18.0936 14.3976L18.0911 14.3926L14.4402 8.06908L14.4352 8.07282L14.2165 7.75921C13.8579 7.2107 13.2882 8.61384 13.2882 8.61384C12.6085 10.1781 13.3844 11.9562 13.6556 12.4934L18.7258 21.2759C19.1244 21.9668 20.009 22.2042 20.7 21.8044C21.391 21.4058 21.6283 20.5212 21.2285 19.8302L19.9603 17.6337C19.9353 17.5799 19.8929 17.4362 20.1527 17.435H21.8757C22.6741 17.435 23.3213 16.7878 23.3213 15.9894C23.3213 15.1909 22.6741 14.5437 21.8757 14.5437H21.8769ZM15.2536 16.5091C15.2536 16.5091 15.436 17.435 14.7313 17.435H14.0266H2.12429C1.32588 17.435 0.678665 16.7878 0.678665 15.9894C0.678665 15.1909 1.32588 14.5437 2.12429 14.5437H5.36538C5.8889 14.5137 6.0126 14.2115 6.0126 14.2115H6.0151L10.2458 6.88459H10.2445C10.322 6.74215 10.257 6.60846 10.2458 6.58847L8.84887 4.16827C8.44905 3.47732 8.68644 2.5927 9.37739 2.19412C10.0683 1.7943 10.953 2.0317 11.3516 2.72265L12 3.84466L12.6472 2.7239C13.0458 2.03295 13.9304 1.79555 14.6214 2.19538C15.3123 2.5952 15.5497 3.47857 15.1499 4.16952L9.26244 14.3664C9.2362 14.4288 9.22871 14.5263 9.41987 14.5425H12.9384V14.5763C12.9384 14.5763 14.9724 14.6075 15.2499 16.5067L15.2536 16.5091Z" fill="#F7F7F8"/>
</svg>
