<svg width="24" height="24" viewBox="0 0 24 24" fill="none" xmlns="http://www.w3.org/2000/svg" class="fill">
<path d="M11.96 10.1C14.2 10.1 16.01 8.29 16.01 6.05C16.01 3.81 14.2 2 11.96 2C9.72 2 7.91 3.81 7.91 6.05C7.91 8.29 9.72 10.1 11.96 10.1ZM11.96 3.59C13.31 3.59 14.41 4.69 14.41 6.04C14.41 7.39 13.31 8.49 11.96 8.49C10.61 8.49 9.51 7.39 9.51 6.04C9.51 4.69 10.61 3.59 11.96 3.59Z" fill="#F7F7F8"/>
<path d="M19.92 17.79V13.57L15.67 11.02H8.25L4 13.57V21H19.92V19.39H18.32V19.4H5.6V14.47L8.69 12.62H15.23L18.32 14.47V17.79H19.92Z" fill="#F7F7F8"/>
</svg>
