<svg width="16" height="16" viewBox="0 0 16 16" fill="none" xmlns="http://www.w3.org/2000/svg">
<path d="M0 8C0 3.58172 3.58172 0 8 0C12.4183 0 16 3.58172 16 8C16 12.4183 12.4183 16 8 16C3.58172 16 0 12.4183 0 8Z" fill="#FF0066"/>
<path fill-rule="evenodd" clip-rule="evenodd" d="M9.66926 11.1083C9.66925 11.1083 9.66925 11.1083 9.66926 11.1083C9.66926 11.1083 9.66926 11.1084 9.66925 11.1084H4.4845C4.0718 11.1084 3.72683 10.7944 3.68804 10.3835L3.39449 7.27405C3.32576 6.54602 4.18924 6.115 4.72977 6.60753L5.27659 7.10578C5.68567 7.47854 6.34059 7.33328 6.55371 6.82252L7.15415 5.38354C7.42319 4.73877 8.33146 4.72446 8.62068 5.36042L9.34298 6.94869C9.5677 7.44281 10.2088 7.57444 10.61 7.20884L11.27 6.60752C11.8105 6.11499 12.674 6.54601 12.6052 7.27404L12.3066 10.437C12.2707 10.8176 11.9512 11.1083 11.569 11.1083H9.66926Z" fill="white"/>
</svg>
