<svg xmlns="http://www.w3.org/2000/svg" width="24" height="24" viewBox="0 0 24 24" fill="none" class='fill'>
<path d="M11.5601 4.57009C6.86006 4.57009 3.06006 8.37009 3.06006 13.0701C3.06006 17.7701 6.87006 21.5701 11.5601 21.5701C16.2501 21.5701 20.0601 17.7601 20.0601 13.0701C20.0601 8.38009 16.2501 4.57009 11.5601 4.57009ZM11.5601 19.9701C7.76006 19.9701 4.66006 16.8701 4.66006 13.0701C4.66006 9.27009 7.76006 6.17009 11.5601 6.17009C15.3601 6.17009 18.4601 9.27009 18.4601 13.0701C18.4601 16.8701 15.3601 19.9701 11.5601 19.9701Z" fill="#F7F7F8"/>
<path d="M6.00913 2.00153L2.0083 6.00515L3.14007 7.13612L7.14089 3.1325L6.00913 2.00153Z" fill="#F7F7F8"/>
<path d="M17.1387 2.00366L16.0073 3.13503L20.0095 7.13725L21.1409 6.00588L17.1387 2.00366Z" fill="#F7F7F8"/>
<path d="M12.37 8.57009H10.77V13.8701H15.57V12.2701H12.37V8.57009Z" fill="#F7F7F8"/>
</svg>