<svg width="24" height="24" viewBox="0 0 24 24" fill="none" xmlns="http://www.w3.org/2000/svg" >
<circle cx="12" cy="12" r="10" fill="white"/>
<path fill-rule="evenodd" clip-rule="evenodd" d="M22 12C22 17.5228 17.5228 22 12 22C6.47715 22 2 17.5228 2 12C2 6.47715 6.47715 2 12 2C17.5228 2 22 6.47715 22 12ZM12.3586 9.38295C11.386 9.78751 9.44205 10.6248 6.52684 11.8949C6.05346 12.0832 5.80548 12.2674 5.7829 12.4474C5.74475 12.7518 6.12586 12.8716 6.64482 13.0348C6.71542 13.057 6.78856 13.08 6.86355 13.1043C7.37413 13.2703 8.06095 13.4645 8.418 13.4722C8.74188 13.4792 9.10337 13.3457 9.50247 13.0716C12.2262 11.233 13.6322 10.3037 13.7205 10.2836C13.7828 10.2695 13.8691 10.2517 13.9276 10.3037C13.986 10.3557 13.9803 10.4541 13.9741 10.4805C13.9363 10.6415 12.4404 12.0322 11.6662 12.752C11.4249 12.9764 11.2537 13.1355 11.2187 13.1719C11.1403 13.2533 11.0604 13.3303 10.9836 13.4043C10.5092 13.8616 10.1535 14.2045 11.0033 14.7645C11.4116 15.0336 11.7384 15.2561 12.0644 15.4781C12.4204 15.7206 12.7755 15.9624 13.2349 16.2636C13.352 16.3403 13.4638 16.42 13.5727 16.4976C13.987 16.793 14.3592 17.0584 14.8191 17.016C15.0863 16.9914 15.3623 16.7402 15.5025 15.9908C15.8338 14.2198 16.485 10.3826 16.6354 8.80132C16.6486 8.66278 16.632 8.48548 16.6187 8.40765C16.6054 8.32982 16.5776 8.21893 16.4764 8.13684C16.3566 8.03962 16.1716 8.01912 16.0889 8.02058C15.7128 8.0272 15.1357 8.22786 12.3586 9.38295Z" fill="#009EEB"/>
</svg>
