<svg width="24" height="24" viewBox="0 0 24 24" fill="none" xmlns="http://www.w3.org/2000/svg" class="fill">
<path d="M3.1906 22H5.05153L6.55228 19.49L6.95248 18.83L6.07204 17.95C4.48124 16.36 3.6008 14.25 3.6008 12C3.6008 7.37 7.37269 3.6 12.005 3.6C16.6373 3.6 20.4092 7.37 20.4092 12C20.4092 16.63 16.6373 20.4 12.005 20.4H7.87294L6.91246 22H11.995C17.5178 22 22 17.52 22 12C22 6.48 17.5278 2 12.005 2C6.48224 2 2 6.48 2 12C2 14.77 3.12056 17.27 4.94147 19.08L3.1906 22Z" fill="#F7F7F8"/>
<path d="M12 13C12.5523 13 13 12.5523 13 12C13 11.4477 12.5523 11 12 11C11.4477 11 11 11.4477 11 12C11 12.5523 11.4477 13 12 13Z" fill="#F7F7F8"/>
<path d="M9 13C9.55228 13 10 12.5523 10 12C10 11.4477 9.55228 11 9 11C8.44772 11 8 11.4477 8 12C8 12.5523 8.44772 13 9 13Z" fill="#F7F7F8"/>
<path d="M15 13C15.5523 13 16 12.5523 16 12C16 11.4477 15.5523 11 15 11C14.4477 11 14 11.4477 14 12C14 12.5523 14.4477 13 15 13Z" fill="#F7F7F8"/>
</svg>
