<svg width="24" height="24" viewBox="0 0 24 24" fill="none" xmlns="http://www.w3.org/2000/svg" class="fill">
<path d="M19.0701 19.07L17.9401 17.94C19.5301 16.35 20.4001 14.24 20.4001 12C20.4001 9.76 19.5301 7.65 17.9401 6.06C16.3501 4.47 14.2401 3.6 12.0001 3.6C9.76006 3.6 7.65006 4.47 6.06006 6.06C4.47006 7.65 3.60006 9.76 3.60006 12C3.60006 14.24 4.47006 16.35 6.06006 17.94L4.93006 19.07C3.04006 17.18 2.00006 14.67 2.00006 12C2.00006 9.33 3.04006 6.82 4.93006 4.93C6.82006 3.04 9.33006 2 12.0001 2C14.6701 2 17.1801 3.04 19.0701 4.93C20.9601 6.82 22.0001 9.33 22.0001 12C22.0001 14.67 20.9601 17.18 19.0701 19.07Z" fill="#F7F7F8"/>
<path d="M13.5801 9.27L15.1601 12L13.5801 14.73H10.4301L8.85006 12L10.4301 9.27H13.5801ZM14.5001 7.67H9.50006L7.00006 12L9.50006 16.33H14.5001L17.0001 12L14.5001 7.67Z" fill="#F7F7F8"/>
<path d="M22.1301 20.4H2.13006V22H22.1301V20.4Z" fill="#F7F7F8"/>
</svg>
