<svg width="24" height="24" viewBox="0 0 24 24" fill="none" xmlns="http://www.w3.org/2000/svg" class="fill">
<path d="M17.3142 7.37462L17.2359 7.04692C17.129 4.15461 14.6997 1.90345 11.8074 2.00319C9.06473 2.10293 6.87057 4.30421 6.77083 7.03979L6.69247 7.36749H2.41812L3.56508 18.1388C3.80016 20.3259 5.63813 21.9929 7.83941 22H16.1459C18.3472 21.9929 20.1852 20.3259 20.4203 18.1388L21.5814 7.339L17.3142 7.36749V7.37462ZM8.97212 7.37462L9.0576 7.04692C9.0576 5.41554 10.3826 4.09762 12.0069 4.09762C13.6312 4.09762 14.9562 5.41554 14.9562 7.04692L15.0417 7.37462H8.97212Z" fill="#F7F7F8"/>
</svg>
