<svg xmlns="http://www.w3.org/2000/svg" width="24" height="24" viewBox="0 0 24 24" fill="none" class='fill'>
<path d="M12 22C17.52 22 22 17.52 22 12C22 6.48 17.52 2 12 2C6.48 2 2 6.48 2 12C2 17.52 6.48 22 12 22ZM12 20.4C11.55 20.4 10.46 18.83 9.92 15.8H14.08C13.54 18.83 12.45 20.4 12 20.4ZM14.36 20.06C14.95 18.98 15.42 17.51 15.7 15.8H19.48C18.44 17.84 16.59 19.4 14.36 20.06ZM20.4 12C20.4 12.76 20.29 13.5 20.1 14.2H15.9C15.96 13.49 16 12.76 16 12C16 11.24 15.96 10.51 15.9 9.8H20.1C20.29 10.5 20.4 11.24 20.4 12ZM19.48 8.2H15.7C15.42 6.49 14.95 5.02 14.36 3.94C16.59 4.6 18.44 6.16 19.48 8.2ZM12 3.6C12.45 3.6 13.54 5.17 14.08 8.2H9.92C10.46 5.17 11.55 3.6 12 3.6ZM14.3 9.8C14.36 10.48 14.4 11.21 14.4 12C14.4 12.79 14.36 13.52 14.3 14.2H9.71C9.65 13.52 9.61 12.79 9.61 12C9.61 11.21 9.65 10.48 9.71 9.8H14.3ZM9.64 3.94C9.05 5.02 8.59 6.49 8.3 8.2H4.52C5.56 6.16 7.41 4.6 9.64 3.94ZM3.6 12C3.6 11.24 3.71 10.5 3.9 9.8H8.1C8.04 10.51 8 11.24 8 12C8 12.76 8.04 13.49 8.1 14.2H3.9C3.71 13.5 3.6 12.76 3.6 12ZM8.3 15.8C8.58 17.51 9.05 18.98 9.64 20.06C7.41 19.4 5.56 17.84 4.52 15.8H8.3Z" fill="#F7F7F8"/>
</svg>