<svg xmlns="http://www.w3.org/2000/svg" width="24" height="24" viewBox="0 0 24 24" fill="none" class='fill'>
<path d="M2 11.1784H3.60321C3.69339 10.2265 3.94389 9.32467 4.33467 8.49301L2.94188 7.69141C2.43086 8.76355 2.1002 9.94592 2 11.1884V11.1784Z" fill="#F7F7F8"/>
<path d="M3.7334 6.29852L5.12618 7.10012C5.66727 6.3386 6.33861 5.67728 7.09011 5.13619L6.28851 3.74341C5.2865 4.43479 4.42478 5.30653 3.7334 6.29852Z" fill="#F7F7F8"/>
<path d="M11.1784 3.60321V2C9.93589 2.1002 8.76355 2.43086 7.69141 2.94188L8.49301 4.33467C9.32467 3.95391 10.2265 3.69339 11.1784 3.60321Z" fill="#F7F7F8"/>
<path d="M12.7816 2V3.60321C17.0501 4.00401 20.3968 7.61122 20.3968 11.98C20.3968 16.6192 16.6192 20.3968 11.98 20.3968C7.61122 20.3968 4.00401 17.0501 3.60321 12.7816H2C2.41082 17.9319 6.72946 22 11.98 22C17.501 22 22 17.501 22 11.98C22 6.45892 17.9319 2.41082 12.7816 2Z" fill="#F7F7F8"/>
<path d="M12.7817 5.96802H11.1785V12.3107L14.956 16.0883L15.1564 15.8778L15.8779 15.1564L16.0883 14.956L12.7817 11.6494V5.96802Z" fill="#F7F7F8"/>
</svg>