<svg width="24" height="24" viewBox="0 0 24 24" fill="none" xmlns="http://www.w3.org/2000/svg" >
<path fill-rule="evenodd" clip-rule="evenodd" d="M21.504 12.2253C21.504 11.5235 21.4413 10.8481 21.3236 10.2002H12V14.0293H17.3284C17.0985 15.2668 16.4011 16.3162 15.3528 17.018V19.5018H18.5516C20.4238 17.7781 21.504 15.2404 21.504 12.2253Z" fill="#3D82F0"/>
<path fill-rule="evenodd" clip-rule="evenodd" d="M12.0002 21.9004C14.6732 21.9004 16.9139 21.0138 18.5518 19.5024L15.353 17.0174C14.4664 17.6114 13.3323 17.9623 12.0002 17.9623C9.42179 17.9623 7.23939 16.221 6.46059 13.8813H3.15289V16.4465C4.78199 19.6817 8.13039 21.9004 12.0002 21.9004Z" fill="#31A752"/>
<path fill-rule="evenodd" clip-rule="evenodd" d="M6.46037 13.8813C6.26237 13.2873 6.15017 12.6526 6.15017 12.0003C6.15017 11.348 6.26237 10.7133 6.46037 10.1193V7.55408H3.15268C2.48278 8.89058 2.09998 10.4031 2.09998 12.0003C2.09998 13.5975 2.48278 15.11 3.15268 16.4465L6.46037 13.8813Z" fill="#F9BA00"/>
<path fill-rule="evenodd" clip-rule="evenodd" d="M12.0002 6.03785C13.4533 6.03785 14.759 6.53725 15.7842 7.51845L18.6244 4.67935C16.9095 3.08105 14.6688 2.09985 12.0002 2.09985C8.13039 2.09985 4.78199 4.31855 3.15289 7.55475L6.46059 10.1189C7.23939 7.77915 9.42179 6.03785 12.0002 6.03785Z" fill="#E64234"/>
</svg>
