<svg width="24" height="24" viewBox="0 0 24 24" fill="none" xmlns="http://www.w3.org/2000/svg" >
<path fill-rule="evenodd" clip-rule="evenodd" d="M12 6.86446C11.3256 6.86446 10.6578 6.99729 10.0347 7.25538C9.41164 7.51346 8.8455 7.89175 8.36862 8.36862C7.89175 8.8455 7.51346 9.41164 7.25538 10.0347C6.99729 10.6578 6.86446 11.3256 6.86446 12C6.86446 12.6744 6.99729 13.3422 7.25538 13.9653C7.51346 14.5884 7.89175 15.1545 8.36862 15.6314C8.8455 16.1083 9.41164 16.4865 10.0347 16.7446C10.6578 17.0027 11.3256 17.1355 12 17.1355C13.362 17.1355 14.6683 16.5945 15.6314 15.6314C16.5945 14.6683 17.1355 13.362 17.1355 12C17.1355 10.638 16.5945 9.33172 15.6314 8.36862C14.6683 7.40552 13.362 6.86446 12 6.86446ZM12 15.3333C11.1159 15.3333 10.2681 14.9821 9.64298 14.357C9.01786 13.7319 8.66667 12.8841 8.66667 12C8.66667 11.1159 9.01786 10.2681 9.64298 9.64298C10.2681 9.01786 11.1159 8.66667 12 8.66667C12.8841 8.66667 13.7319 9.01786 14.357 9.64298C14.9821 10.2681 15.3333 11.1159 15.3333 12C15.3333 12.8841 14.9821 13.7319 14.357 14.357C13.7319 14.9821 12.8841 15.3333 12 15.3333Z" fill="url(#paint0_linear_5042_53575)"/>
<path d="M17.338 7.86199C17.6563 7.86199 17.9616 7.73556 18.1866 7.51051C18.4117 7.28546 18.5381 6.98022 18.5381 6.66195C18.5381 6.34368 18.4117 6.03844 18.1866 5.81339C17.9616 5.58834 17.6563 5.46191 17.338 5.46191C17.0198 5.46191 16.7145 5.58834 16.4895 5.81339C16.2644 6.03844 16.138 6.34368 16.138 6.66195C16.138 6.98022 16.2644 7.28546 16.4895 7.51051C16.7145 7.73556 17.0198 7.86199 17.338 7.86199Z" fill="url(#paint1_linear_5042_53575)"/>
<path fill-rule="evenodd" clip-rule="evenodd" d="M12 2C9.28383 2 8.94311 2.01071 7.877 2.06C6.81196 2.10822 6.0855 2.27751 5.44905 2.52395C4.78176 2.77518 4.17732 3.169 3.67792 3.67792C3.16939 4.17743 2.77594 4.78186 2.52502 5.44905C2.27751 6.0855 2.10822 6.81196 2.06 7.877C2.01071 8.94311 2 9.28383 2 12C2 14.7162 2.01071 15.0558 2.06 16.123C2.10822 17.187 2.27751 17.9145 2.52395 18.5509C2.77515 19.2183 3.16897 19.8227 3.67792 20.3221C4.23401 20.8771 4.79224 21.22 5.44905 21.475C6.0855 21.7214 6.81196 21.8918 7.877 21.94C8.94311 21.9882 9.28383 22 12 22C14.7162 22 15.0558 21.9893 16.123 21.94C17.187 21.8918 17.9145 21.7225 18.5509 21.475C19.2181 21.2241 19.8226 20.8306 20.3221 20.3221C20.8306 19.8226 21.2241 19.2181 21.475 18.5509C21.7214 17.9145 21.8918 17.187 21.94 16.123C21.9882 15.0558 22 14.7162 22 12C22 9.28383 21.9893 8.94311 21.94 7.877C21.8918 6.81196 21.7225 6.0855 21.475 5.44905C21.224 4.78187 20.8306 4.17745 20.3221 3.67792C19.8226 3.16936 19.2182 2.77591 18.5509 2.52502C17.9145 2.27751 17.187 2.10822 16.123 2.06C15.0558 2.01071 14.7162 2 12 2ZM12 3.80114C14.6701 3.80114 14.9862 3.81185 16.0405 3.86007C17.0155 3.904 17.5448 4.06686 17.8974 4.20401C18.3645 4.38616 18.6977 4.60259 19.0481 4.95189C19.3974 5.30226 19.6149 5.63549 19.796 6.10157C19.9331 6.45516 20.096 6.98446 20.1399 7.95843C20.1881 9.01382 20.1978 9.3299 20.1978 12C20.1978 14.6701 20.1881 14.9862 20.1399 16.0405C20.096 17.0155 19.9331 17.5448 19.796 17.8974C19.6138 18.3645 19.3974 18.6977 19.0481 19.0481C18.7253 19.3803 18.332 19.6359 17.8974 19.796C17.5448 19.9331 17.0155 20.096 16.0405 20.1399C14.9862 20.1881 14.6701 20.1978 12 20.1978C9.3299 20.1978 9.01275 20.1881 7.9595 20.1399C6.98446 20.096 6.45409 19.9331 6.10157 19.796C5.66726 19.6358 5.2744 19.3802 4.95189 19.0481C4.61969 18.7253 4.36412 18.332 4.20401 17.8974C4.06686 17.5448 3.904 17.0155 3.86007 16.0405C3.81185 14.9862 3.80114 14.6701 3.80114 12C3.80114 9.3299 3.81185 9.01382 3.86007 7.9595C3.904 6.98446 4.06686 6.45409 4.20401 6.10157C4.36423 5.66726 4.61979 5.2744 4.95189 4.95189C5.2744 4.61979 5.66726 4.36423 6.10157 4.20401C6.45516 4.06686 6.98446 3.904 7.95843 3.86007C9.01382 3.81185 9.3299 3.80114 12 3.80114Z" fill="url(#paint2_linear_5042_53575)"/>
<defs>
<linearGradient id="paint0_linear_5042_53575" x1="3.96401" y1="20.036" x2="20.036" y2="3.96399" gradientUnits="userSpaceOnUse">
<stop stop-color="#FDD074"/>
<stop offset="0.25" stop-color="#F77F34"/>
<stop offset="0.5" stop-color="#DD326E"/>
<stop offset="0.75" stop-color="#D82B7E"/>
<stop offset="1" stop-color="#A432B1"/>
</linearGradient>
<linearGradient id="paint1_linear_5042_53575" x1="3.96401" y1="20.036" x2="20.036" y2="3.96399" gradientUnits="userSpaceOnUse">
<stop stop-color="#FDD074"/>
<stop offset="0.25" stop-color="#F77F34"/>
<stop offset="0.5" stop-color="#DD326E"/>
<stop offset="0.75" stop-color="#D82B7E"/>
<stop offset="1" stop-color="#A432B1"/>
</linearGradient>
<linearGradient id="paint2_linear_5042_53575" x1="3.96401" y1="20.036" x2="20.036" y2="3.96399" gradientUnits="userSpaceOnUse">
<stop stop-color="#FDD074"/>
<stop offset="0.25" stop-color="#F77F34"/>
<stop offset="0.5" stop-color="#DD326E"/>
<stop offset="0.75" stop-color="#D82B7E"/>
<stop offset="1" stop-color="#A432B1"/>
</linearGradient>
</defs>
</svg>
