<svg width="35" height="18" viewBox="0 0 35 18" fill="none" xmlns="http://www.w3.org/2000/svg">
<path d="M0 6C0 2.68629 2.68629 0 6 0H29C32.3137 0 35 2.68629 35 6V12C35 15.3137 32.3137 18 29 18H0V6Z" fill="#FF0066"/>
<path d="M30.7324 5.10742V12.8848H29.1748L26.0166 8.31934H25.9629V12.8848H24.1367V5.10742H25.7158L28.8418 9.67285H28.9062V5.10742H30.7324Z" fill="white"/>
<path d="M18.0234 12.8848V5.10742H23.4053V6.60059H19.8496V8.24414H23.126V9.7373H19.8496V11.3916H23.416V12.8848H18.0234Z" fill="white"/>
<path d="M11.5352 12.8848V5.10742H14.7148C16.4658 5.10742 17.54 6.20312 17.54 7.78223C17.54 9.39355 16.4443 10.4463 14.6611 10.4463H13.3613V12.8848H11.5352ZM13.3613 8.99609H14.3281C15.1875 8.99609 15.6494 8.5127 15.6494 7.78223C15.6494 7.05176 15.1875 6.58984 14.3281 6.58984H13.3613V8.99609Z" fill="white"/>
<path d="M10.8906 8.99609C10.8906 11.5635 9.2793 12.9922 7.19531 12.9922C5.10059 12.9922 3.5 11.5527 3.5 8.99609C3.5 6.42871 5.10059 5 7.19531 5C9.2793 5 10.8906 6.42871 10.8906 8.99609ZM9.02148 8.99609C9.02148 7.44922 8.33398 6.61133 7.19531 6.61133C6.05664 6.61133 5.36914 7.44922 5.36914 8.99609C5.36914 10.543 6.05664 11.3809 7.19531 11.3809C8.33398 11.3809 9.02148 10.543 9.02148 8.99609Z" fill="white"/>
</svg>
