<svg width="24" height="24" viewBox="0 0 24 24" fill="none" xmlns="http://www.w3.org/2000/svg" class="fill">
<path d="M22 12C22 11.32 21.93 10.65 21.8 10H20.15C20.31 10.64 20.4 11.31 20.4 12C20.4 16.63 16.63 20.4 12 20.4C7.37 20.4 3.6 16.63 3.6 12C3.6 7.37 7.37 3.6 12 3.6C12.7 3.6 13.37 3.7 14.02 3.86V2.21C13.37 2.07 12.69 2 12 2C6.48 2 2 6.48 2 12C2 17.52 6.48 22 12 22C17.52 22 22 17.52 22 12Z" fill="#F7F7F8"/>
<path d="M11.9998 16.4999C13.9798 16.4999 15.6398 15.2099 16.2398 13.4399H14.4998C13.9998 14.3099 13.0698 14.8999 11.9998 14.8999C10.9298 14.8999 9.99977 14.3099 9.49977 13.4399H7.75977C8.35977 15.2199 10.0198 16.4999 11.9998 16.4999Z" fill="#F7F7F8"/>
<path d="M9 11.22C9.08 11.22 9.16 11.19 9.23 11.17C9.67 11.06 10 10.69 10 10.22C10 10.13 9.97 10.04 9.95 9.94997C9.83 9.52997 9.46 9.21997 9 9.21997C8.97 9.21997 8.95 9.22997 8.92 9.23997C8.8 9.24997 8.68 9.28997 8.57 9.33997C8.55 9.34997 8.52 9.35997 8.5 9.37997C8.4 9.43997 8.3 9.50997 8.23 9.59997C8.17 9.66997 8.12 9.74997 8.08 9.83997C8.03 9.95997 8 10.09 8 10.23C8 10.75 8.41 11.17 8.92 11.21C8.95 11.21 8.97 11.23 9 11.23V11.22Z" fill="#F7F7F8"/>
<path d="M14.7598 11.17C14.8098 11.18 14.8698 11.2 14.9298 11.2C14.9598 11.2 14.9898 11.22 15.0198 11.22C15.5698 11.22 16.0198 10.77 16.0198 10.22C16.0198 10.14 15.9898 10.07 15.9798 9.99997C15.9798 9.96997 15.9798 9.92997 15.9598 9.89997C15.9298 9.80997 15.8798 9.71997 15.8198 9.64997C15.6398 9.39997 15.3598 9.21997 15.0198 9.21997C14.9898 9.21997 14.9598 9.23997 14.9298 9.23997C14.5098 9.27997 14.1798 9.57997 14.0698 9.97997V9.99997C14.0498 10.07 14.0298 10.14 14.0298 10.22C14.0298 10.68 14.3498 11.05 14.7698 11.17H14.7598Z" fill="#F7F7F8"/>
<path d="M19.3 9V6.3H22V4.7H19.3V2H17.7V4.7H15V6.3H17.7V9H19.3Z" fill="#F7F7F8"/>
</svg>
