<svg xmlns="http://www.w3.org/2000/svg" width="24" height="24" viewBox="0 0 24 24" fill="none" class="fill">
<path d="M20.5701 13.4099C20.0401 13.8899 19.3901 14.3099 18.6401 14.6699C18.5901 14.6899 18.5401 14.7099 18.4901 14.7399C18.1401 15.0699 17.6301 15.3699 17.0001 15.6399C15.8101 16.1299 14.1801 16.4699 12.3101 16.4699C10.4401 16.4699 8.81008 16.1299 7.62008 15.6399C6.98008 15.3799 6.47008 15.0699 6.13008 14.7399C6.08008 14.7199 6.03008 14.6999 5.98008 14.6699C5.23008 14.3099 4.58008 13.8899 4.05008 13.4099C4.03008 13.5299 4.02008 13.6499 4.02008 13.7699C4.02008 13.7899 4.02008 13.8099 4.02008 13.8299C4.02008 13.9899 4.04008 14.1399 4.07008 14.2899C4.18008 14.7699 4.42008 15.2199 4.79008 15.6399C4.90008 15.7599 5.03008 15.8699 5.15008 15.9799C5.21008 16.0399 5.26008 16.0999 5.33008 16.1499C5.35008 16.1699 5.37008 16.1799 5.39008 16.1899C5.54008 16.3099 5.68008 16.4199 5.85008 16.5299C5.89008 16.5599 5.94008 16.5799 5.98008 16.5999C6.00008 16.5999 6.01008 16.6199 6.03008 16.6299C6.15008 16.6999 6.26008 16.7699 6.38008 16.8299C6.43008 16.8599 6.50008 16.8799 6.56008 16.9099C6.89008 17.0699 7.22008 17.2199 7.60008 17.3499C8.00008 17.4899 8.42008 17.5999 8.87008 17.6999C9.00008 17.7299 9.14008 17.7499 9.27008 17.7799C9.61008 17.8499 9.96008 17.8999 10.3301 17.9399C10.4701 17.9599 10.6101 17.9799 10.7601 17.9899C10.9001 17.9999 11.0501 17.9999 11.1901 18.0099C11.5601 18.0399 11.9201 18.0599 12.3001 18.0599C12.7301 18.0599 13.1401 18.0399 13.5501 18.0099C13.6501 18.0099 13.7501 17.9899 13.8401 17.9899C14.5901 17.9199 15.3001 17.7999 15.9601 17.6399C16.0001 17.6299 16.0501 17.6199 16.0901 17.6099C16.1301 17.5999 16.1801 17.5899 16.2201 17.5799C16.2601 17.5699 16.3001 17.5499 16.3401 17.5399C16.6801 17.4499 17.0101 17.3399 17.3201 17.2299C17.3801 17.2099 17.4401 17.1799 17.5001 17.1499C17.5301 17.1399 17.5601 17.1199 17.5901 17.1099C17.9401 16.9599 18.2701 16.8099 18.5601 16.6299C19.0601 16.3299 19.4801 15.9999 19.8101 15.6299C20.3101 15.0699 20.5901 14.4399 20.5901 13.7599C20.5901 13.6399 20.5701 13.5199 20.5601 13.3999L20.5701 13.4099Z" fill="#F7F7F8"/>
<path d="M20.5701 9.67993C20.4301 9.79993 20.2801 9.91993 20.1301 10.0399C19.6901 10.3699 19.1901 10.6799 18.6401 10.9399C18.5901 10.9599 18.5401 10.9799 18.4901 11.0099C18.1401 11.3399 17.6301 11.6399 17.0001 11.9099C15.8101 12.3999 14.1801 12.7399 12.3101 12.7399C10.4401 12.7399 8.81008 12.3999 7.62008 11.9099C6.98008 11.6499 6.47008 11.3399 6.13008 11.0099C6.08008 10.9899 6.03008 10.9699 5.98008 10.9399C5.42008 10.6799 4.92008 10.3699 4.49008 10.0399C4.34008 9.91993 4.19008 9.80993 4.05008 9.67993C4.03008 9.79993 4.02008 9.91993 4.02008 10.0399C4.02008 10.1599 4.04008 10.2799 4.05008 10.3999C4.13008 10.9399 4.39008 11.4499 4.79008 11.9099C5.12008 12.2799 5.53008 12.6099 6.04008 12.9099C6.62008 13.2599 7.32008 13.5499 8.10008 13.7799C9.32008 14.1399 10.7601 14.3399 12.3201 14.3399C13.8801 14.3399 15.3201 14.1299 16.5401 13.7799C17.3201 13.5499 18.0101 13.2599 18.6001 12.9099C19.1001 12.6099 19.5201 12.2799 19.8501 11.9099C19.9801 11.7699 20.0901 11.6199 20.1901 11.4599C20.4001 11.1199 20.5401 10.7699 20.5901 10.3999C20.6101 10.2799 20.6201 10.1599 20.6201 10.0399C20.6201 9.91993 20.6001 9.79993 20.5901 9.67993H20.5701Z" fill="#F7F7F8"/>
<path d="M18.4801 18.4699C17.4901 19.3999 15.1701 20.1999 12.3001 20.1999C9.43006 20.1999 7.11006 19.3999 6.12006 18.4699C5.31006 18.0999 4.60006 17.6599 4.03006 17.1499C4.01006 17.2699 4.00006 17.3799 4.00006 17.5099C4.00006 19.9599 7.57006 21.8099 12.3001 21.8099C17.0301 21.8099 20.6001 19.9599 20.6001 17.5099C20.6001 17.3899 20.5801 17.2699 20.5701 17.1499C20.0001 17.6599 19.3001 18.0999 18.4801 18.4699Z" fill="#F7F7F8"/>
<path d="M12.3001 2C7.57006 2 4.00006 3.85 4.00006 6.3C4.00006 6.42 4.02006 6.54 4.03006 6.66C4.06006 6.84 4.10006 7.02 4.16006 7.19C4.29006 7.54 4.50006 7.86 4.77006 8.17C5.08006 8.52 5.48006 8.85 5.96006 9.14C5.98006 9.15 6.00006 9.16 6.02006 9.17C6.60006 9.52 7.30006 9.81 8.08006 10.04C9.30006 10.4 10.7401 10.6 12.3001 10.6C13.8601 10.6 15.3001 10.39 16.5201 10.04C17.3001 9.81 17.9901 9.52 18.5801 9.17C18.6001 9.16 18.6201 9.15 18.6401 9.14C19.1201 8.85 19.5101 8.53 19.8301 8.17C20.2401 7.71 20.5001 7.2 20.5701 6.66C20.5901 6.54 20.6001 6.42 20.6001 6.3C20.6001 6.15 20.5901 6 20.5601 5.85C20.1501 3.63 16.7401 2 12.3001 2ZM18.5801 7.17C18.2401 7.53 17.6901 7.88 16.9901 8.17C16.8201 8.24 16.6501 8.3 16.4601 8.37C15.3301 8.75 13.9001 9.01 12.3001 9.01C10.7001 9.01 9.26006 8.76 8.14006 8.37C7.96006 8.31 7.78006 8.24 7.61006 8.17C6.91006 7.88 6.37006 7.53 6.02006 7.17C5.75006 6.89 5.60006 6.59 5.60006 6.3C5.60006 5.98 5.78006 5.65 6.12006 5.33C7.11006 4.4 9.43006 3.6 12.3001 3.6C15.1701 3.6 17.4901 4.4 18.4801 5.33C18.8101 5.65 19.0001 5.98 19.0001 6.3C19.0001 6.59 18.8501 6.88 18.5801 7.17Z" fill="#F7F7F8"/>
</svg>