<svg width="24" height="24" viewBox="0 0 24 24" fill="none" xmlns="http://www.w3.org/2000/svg" class="fill">
<path d="M12.015 2C9.63382 2 7.45273 2.83 5.73187 4.22C5.48174 4.42 5.25163 4.63 5.02151 4.85C4.76138 5.1 4.52126 5.37 4.29115 5.64C4.09105 5.89 3.89095 6.14 3.71086 6.41C3.35068 6.94 3.04052 7.51 2.7904 8.11C2.28014 9.31 2 10.62 2 12C2 12.35 2.02001 12.69 2.05002 13.02C2.08004 13.36 2.13007 13.69 2.2001 14.01C2.47024 15.31 2.9905 16.52 3.70085 17.59C4.06103 18.12 4.47124 18.62 4.92146 19.07C5.6018 19.75 6.37219 20.33 7.22261 20.79C8.64332 21.56 10.2641 22 11.995 22C17.5178 22 22 17.52 22 12C22 6.48 17.5378 2 12.015 2ZM12.015 20.4V3.6C16.6473 3.6 20.4192 7.37 20.4192 12C20.4192 16.63 16.6473 20.4 12.015 20.4Z" fill="#F7F7F8"/>
</svg>
