<svg width="24" height="24" viewBox="0 0 24 24" fill="none" xmlns="http://www.w3.org/2000/svg" class="fill">
<path d="M16.6797 1.99988L15.6233 3.06475L17.3464 4.77423L8.88842 4.77438C6.1943 4.77439 4 6.9427 4 9.63V10.38H5.5V9.63C5.5 7.78236 7.01144 6.27438 8.88842 6.27438L17.3464 6.27423L15.6233 7.98365L16.6797 9.04853L19.6955 6.05664C19.8375 5.91582 19.9173 5.72415 19.9173 5.5242C19.9173 5.32426 19.8375 5.13259 19.6955 4.99177L16.6797 1.99988Z" fill="#F7F7F8"/>
<path d="M7.23775 21.9005L8.29418 20.8356L6.57104 19.1261L15.0291 19.126C17.7232 19.126 19.9175 16.9577 19.9175 14.2704V13.5204L18.4175 13.5204V14.2704C18.4175 16.118 16.906 17.626 15.0291 17.626L6.57111 17.6261L8.29418 15.9167L7.23775 14.8518L4.22196 17.8437C4.08002 17.9845 4.00018 18.1762 4.00018 18.3762C4.00018 18.5761 4.08002 18.7678 4.22196 18.9086L7.23775 21.9005Z" fill="#F7F7F8"/>
</svg>
