<svg width="24" height="24" viewBox="0 0 24 24" fill="none" xmlns="http://www.w3.org/2000/svg" class="fill">
<path d="M12 2C9.70724 2 7.59326 2.40494 6.02255 3.09202C5.23838 3.43504 4.55354 3.86414 4.05358 4.3812C3.54989 4.90211 3.20001 5.55153 3.20001 6.29943C3.20001 7.04734 3.54989 7.69676 4.05358 8.21767C4.55354 8.73473 5.23838 9.16383 6.02255 9.50685C7.59326 10.1939 9.70724 10.5989 12 10.5989C14.2928 10.5989 16.4068 10.1939 17.9775 9.50685C18.7616 9.16383 19.4465 8.73473 19.9464 8.21767C20.4501 7.69676 20.8 7.04734 20.8 6.29943C20.8 5.55153 20.4501 4.90211 19.9464 4.3812C19.4465 3.86414 18.7616 3.43504 17.9775 3.09202C16.4068 2.40494 14.2928 2 12 2ZM4.80001 6.29943C4.80001 6.081 4.89785 5.80981 5.20381 5.49339C5.51348 5.17313 6.00022 4.84816 6.66377 4.55791C7.98848 3.97844 9.87451 3.6 12 3.6C14.1255 3.6 16.0115 3.97844 17.3363 4.55791C17.9998 4.84816 18.4865 5.17313 18.7962 5.49339C19.1022 5.80981 19.2 6.081 19.2 6.29943C19.2 6.51787 19.1022 6.78905 18.7962 7.10548C18.4865 7.42574 17.9998 7.75071 17.3363 8.04096C16.0115 8.62043 14.1255 8.99887 12 8.99887C9.87451 8.99887 7.98848 8.62043 6.66377 8.04096C6.00022 7.75071 5.51348 7.42574 5.20381 7.10548C4.89785 6.78905 4.80001 6.51787 4.80001 6.29943Z" fill="#F7F7F8"/>
<path d="M3.97044 9.96583C3.51207 10.471 3.2005 11.089 3.2005 11.7948C3.2005 12.5427 3.55038 13.1921 4.05407 13.713C4.55403 14.2301 5.23886 14.6592 6.02303 15.0022C7.59375 15.6893 9.70772 16.0942 12.0005 16.0942C14.2933 16.0942 16.4072 15.6893 17.978 15.0022C18.7621 14.6592 19.447 14.2301 19.9469 13.713C20.4506 13.1921 20.8005 12.5427 20.8005 11.7948C20.8005 11.089 20.4889 10.471 20.0305 9.96582C19.7029 10.1942 19.3271 10.4159 18.8965 10.6263C18.7895 10.6787 18.6803 10.7296 18.569 10.7791C18.6533 10.849 18.7292 10.919 18.7967 10.9888C19.1027 11.3052 19.2005 11.5764 19.2005 11.7948C19.2005 12.0132 19.1027 12.2844 18.7967 12.6009C18.487 12.9211 18.0003 13.2461 17.3367 13.5363C16.012 14.1158 14.126 14.4942 12.0005 14.4942C9.875 14.4942 7.98897 14.1158 6.66426 13.5363C6.00071 13.2461 5.51397 12.9211 5.20429 12.6009C4.89834 12.2844 4.8005 12.0132 4.8005 11.7948C4.8005 11.5764 4.89834 11.3052 5.20429 10.9888C5.27183 10.9189 5.34779 10.8489 5.43217 10.779C5.32076 10.7295 5.21149 10.6786 5.10445 10.6263C4.67384 10.4159 4.2981 10.1942 3.97044 9.96583Z" fill="#F7F7F8"/>
<path d="M3.9737 15.4673C3.51355 15.9731 3.2005 16.5924 3.2005 17.2999C3.2005 18.0478 3.55038 18.6972 4.05407 19.2181C4.55403 19.7352 5.23886 20.1643 6.02303 20.5073C7.59375 21.1944 9.70772 21.5993 12.0005 21.5993C14.2933 21.5993 16.4072 21.1944 17.978 20.5073C18.7621 20.1643 19.447 19.7352 19.9469 19.2181C20.4506 18.6972 20.8005 18.0478 20.8005 17.2999C20.8005 16.5924 20.4874 15.9731 20.0273 15.4673C19.7004 15.6948 19.3257 15.9158 18.8965 16.1255C18.7881 16.1786 18.6773 16.2302 18.5644 16.2804C18.6505 16.3515 18.728 16.4228 18.7967 16.4938C19.1027 16.8102 19.2005 17.0814 19.2005 17.2999C19.2005 17.5183 19.1027 17.7895 18.7967 18.1059C18.487 18.4262 18.0003 18.7511 17.3367 19.0414C16.012 19.6209 14.126 19.9993 12.0005 19.9993C9.875 19.9993 7.98897 19.6209 6.66426 19.0414C6.00071 18.7511 5.51397 18.4262 5.20429 18.1059C4.89834 17.7895 4.8005 17.5183 4.8005 17.2999C4.8005 17.0814 4.89834 16.8102 5.20429 16.4938C5.27306 16.4227 5.35055 16.3514 5.43677 16.2802C5.32378 16.2301 5.21297 16.1785 5.10445 16.1255C4.67527 15.9158 4.30059 15.6948 3.9737 15.4673Z" fill="#F7F7F8"/>
</svg>
