<svg width="24" height="24" viewBox="0 0 24 24" fill="none" xmlns="http://www.w3.org/2000/svg" class="fill">
<path d="M11.9999 4.57007C10.4699 4.57007 9.01994 4.88007 7.68994 5.44007L8.94994 6.70007C9.91994 6.37007 10.9399 6.18007 11.9999 6.18007C15.5299 6.18007 18.7299 8.16007 20.3699 11.2101H22.1799C20.4499 7.31007 16.5499 4.58007 11.9999 4.58007V4.57007Z" fill="#F7F7F8"/>
<path d="M19.11 16.85C20.42 15.76 21.4799 14.37 22.18 12.79H20.37C19.76 13.92 18.94 14.9 17.95 15.69L19.11 16.85Z" fill="#F7F7F8"/>
<path d="M15.72 13.46C15.8 13.25 15.88 13.03 15.92 12.8C15.97 12.54 16 12.27 16 12C16 11.73 15.97 11.46 15.92 11.2C15.55 9.37 13.94 8 12 8C11.48 8 10.99 8.11 10.54 8.28L11.87 9.61C11.87 9.61 11.96 9.6 12 9.6C13.04 9.6 13.92 10.27 14.25 11.2C14.34 11.45 14.4 11.72 14.4 12C14.4 12.04 14.39 12.09 14.39 12.13L15.72 13.46Z" fill="#F7F7F8"/>
<path d="M20.9301 20.9401L3.07007 3.08008L1.94007 4.20008L4.89007 7.15008C3.58007 8.24008 2.52007 9.63008 1.82007 11.2101H3.63007C4.24007 10.0801 5.06007 9.10008 6.04007 8.31008L8.28007 10.5501C8.20007 10.7601 8.12007 10.9801 8.08007 11.2101C8.03007 11.4701 8.00007 11.7401 8.00007 12.0101C8.00007 12.2801 8.03007 12.5501 8.08007 12.8101C8.45007 14.6401 10.0601 16.0101 12.0001 16.0101C12.5201 16.0101 13.0101 15.9001 13.4601 15.7301L15.0501 17.3201C14.0801 17.6501 13.0601 17.8401 12.0001 17.8401C8.47007 17.8401 5.27007 15.8601 3.63007 12.8101H1.82007C3.55007 16.7101 7.45007 19.4401 12.0001 19.4401C13.5301 19.4401 14.9801 19.1301 16.3101 18.5701L19.8101 22.0701L20.9401 20.9401H20.9301ZM12.0001 14.4001C10.9601 14.4001 10.0801 13.7301 9.75007 12.8001C9.66007 12.5501 9.60007 12.2801 9.60007 12.0001C9.60007 11.9601 9.61007 11.9101 9.61007 11.8701L12.1301 14.3901C12.1301 14.3901 12.0401 14.4001 12.0001 14.4001Z" fill="#F7F7F8"/>
</svg>
