<svg width="24" height="24" viewBox="0 0 24 24" fill="none" xmlns="http://www.w3.org/2000/svg" class="fill">
<path d="M12 20.4348C7.62249 20.4348 4.01807 17.1674 3.60643 13H2C2.41165 18.038 6.72892 22 12 22C17.2711 22 21.5884 18.038 22 13H20.3936C19.992 17.1674 16.3775 20.4348 12 20.4348Z" fill="#F7F7F8"/>
<path d="M12 2C6.72892 2 2.41165 5.96196 2 11H3.60643C4.00803 6.83261 7.62249 3.56522 12 3.56522C16.3775 3.56522 19.992 6.83261 20.3936 11H22C21.5884 5.96196 17.2711 2 12 2Z" fill="#F7F7F8"/>
<path d="M10.9399 7.08999C10.9399 6.47999 11.4499 5.98999 12.0399 5.98999C12.6299 5.98999 13.1399 6.47999 13.1399 7.08999C13.1399 7.69999 12.6499 8.19999 12.0399 8.19999C11.4299 8.19999 10.9399 7.70999 10.9399 7.08999ZM11.1599 17.41V9.19999H12.9499V17.41H11.1599Z" fill="#F7F7F8"/>
</svg>
