<svg xmlns="http://www.w3.org/2000/svg" width="24" height="24" viewBox="0 0 24 24" fill="none" class='fill'>
<path d="M12 20.43C7.62 20.43 4.02 17.16 3.61 13H2C2.41 18.04 6.73 22 12 22C17.27 22 21.59 18.04 22 13H20.39C19.99 17.17 16.37 20.43 12 20.43Z" fill="#F7F7F8"/>
<path d="M12 3.57C16.38 3.57 19.99 6.84 20.39 11H22C21.59 5.96 17.27 2 12 2C6.73 2 2.41 5.96 2 11H3.61C4.01 6.83 7.62 3.57 12 3.57Z" fill="#F7F7F8"/>
<path d="M13.19 6.29H10.79L11 14.19H12.99L13.19 6.29Z" fill="#F7F7F8"/>
<path d="M12.01 17.71C12.7 17.71 13.3 17.13 13.3 16.4C13.3 15.67 12.7 15.1 12.01 15.11C11.28 15.11 10.69 15.69 10.7 16.4C10.68 17.12 11.28 17.71 12.01 17.71Z" fill="#F7F7F8"/>
</svg>