<svg xmlns="http://www.w3.org/2000/svg" width="24" height="24" viewBox="0 0 24 24" fill="none" class='fill'>
<path d="M20.4899 4.51C19.4899 3.51 18.1699 3 16.8499 3C15.5299 3 14.2199 3.5 13.2099 4.51L11.9999 5.72L10.7899 4.51C9.77994 3.5 8.46994 3 7.14994 3C5.82994 3 4.50994 3.5 3.50994 4.51C1.49994 6.52 1.49994 9.78 3.50994 11.79L8.07994 16.36L11.9999 20.28L13.1299 19.15L11.9999 18.02L9.20994 15.23L4.63994 10.66C3.25994 9.28 3.25994 7.03 4.63994 5.64C5.30994 4.97 6.19994 4.6 7.14994 4.6C8.09994 4.6 8.98994 4.97 9.65994 5.64L10.8699 6.85L11.9999 7.98L13.1299 6.85L14.3399 5.64C15.0099 4.97 15.8999 4.6 16.8499 4.6C17.7999 4.6 18.6899 4.97 19.3599 5.64C20.0299 6.31 20.3999 7.2 20.3999 8.15C20.3999 9.1 20.0299 9.99 19.3599 10.66L18.1499 11.87L17.0199 13.01L13.1399 16.89L14.2699 18.02L19.2899 13L20.4999 11.78C22.5099 9.77 22.5099 6.51 20.4999 4.5L20.4899 4.51Z" fill="#F7F7F8"/>
</svg>