<svg xmlns="http://www.w3.org/2000/svg" width="28" height="14" viewBox="0 0 28 14" fill="none">
<path d="M0 6C0 2.68629 2.68629 0 6 0H22C25.3137 0 28 2.68629 28 6V8C28 11.3137 25.3137 14 22 14H0V6Z" fill="#FF0066"/>
<path d="M9.46553 4.36438V10.4134H8.21943L5.69287 6.86254H5.6499V10.4134H4.18896V4.36438H5.45225L7.95303 7.91527H8.00459V4.36438H9.46553Z" fill="white"/>
<path d="M10.2788 10.4134V4.36438H14.5843V5.52573H11.7398V6.80405H14.3609V7.9654H11.7398V9.25208H14.5929V10.4134H10.2788Z" fill="white"/>
<path d="M16.8586 10.4134L15.0625 4.36438H16.6781L17.632 8.3748H17.6836L18.7664 4.36438H20.0984L21.1898 8.38315H21.2328L22.1953 4.36438H23.8109L22.0062 10.4134H20.5968L19.4625 6.68708H19.4109L18.2765 10.4134H16.8586Z" fill="white"/>
</svg>

