<svg width="24" height="24" viewBox="0 0 24 24" fill="none" xmlns="http://www.w3.org/2000/svg" class="fill">
<path d="M18.9308 5.46314C17.6561 4.87824 16.2892 4.44731 14.8599 4.2005C14.8339 4.19573 14.8079 4.20764 14.7945 4.23145C14.6187 4.54413 14.4239 4.95204 14.2876 5.27266C12.7503 5.04252 11.221 5.04252 9.71527 5.27266C9.57887 4.94492 9.37707 4.54413 9.20048 4.23145C9.18707 4.20843 9.16107 4.19653 9.13504 4.2005C7.70659 4.44652 6.33963 4.87745 5.06411 5.46314C5.05307 5.4679 5.04361 5.47584 5.03732 5.48615C2.44449 9.35979 1.73421 13.1382 2.08265 16.8698C2.08423 16.888 2.09447 16.9055 2.10867 16.9166C3.81934 18.1729 5.47642 18.9356 7.10273 19.4411C7.12876 19.449 7.15634 19.4395 7.1729 19.4181C7.55761 18.8927 7.90054 18.3388 8.19456 17.7562C8.21192 17.7221 8.19535 17.6816 8.15989 17.6682C7.61594 17.4618 7.098 17.2102 6.59977 16.9246C6.56037 16.9015 6.55721 16.8452 6.59346 16.8182C6.69831 16.7396 6.80318 16.6579 6.9033 16.5753C6.92141 16.5603 6.94665 16.5571 6.96794 16.5666C10.2411 18.061 13.7846 18.061 17.0191 16.5666C17.0404 16.5563 17.0657 16.5595 17.0846 16.5746C17.1847 16.6571 17.2895 16.7396 17.3952 16.8182C17.4314 16.8452 17.4291 16.9015 17.3897 16.9246C16.8914 17.2158 16.3735 17.4618 15.8288 17.6674C15.7933 17.6809 15.7775 17.7221 15.7949 17.7562C16.0952 18.338 16.4381 18.8919 16.8157 19.4173C16.8315 19.4395 16.8599 19.449 16.8859 19.4411C18.5201 18.9356 20.1772 18.1729 21.8879 16.9166C21.9028 16.9055 21.9123 16.8888 21.9139 16.8706C22.3309 12.5565 21.2154 8.80903 18.9568 5.48694C18.9513 5.47584 18.9419 5.4679 18.9308 5.46314ZM8.68335 14.5976C7.69792 14.5976 6.88594 13.6929 6.88594 12.5819C6.88594 11.4708 7.68217 10.5661 8.68335 10.5661C9.69239 10.5661 10.4965 11.4787 10.4807 12.5819C10.4807 13.6929 9.68451 14.5976 8.68335 14.5976ZM15.329 14.5976C14.3435 14.5976 13.5316 13.6929 13.5316 12.5819C13.5316 11.4708 14.3278 10.5661 15.329 10.5661C16.338 10.5661 17.1421 11.4787 17.1264 12.5819C17.1264 13.6929 16.338 14.5976 15.329 14.5976Z" fill="#F7F7F8"/>
</svg>
