<svg width="35" height="18" viewBox="0 0 35 18" fill="none" xmlns="http://www.w3.org/2000/svg">
<path d="M0 6C0 2.68629 2.68629 0 6 0H29C32.3137 0 35 2.68629 35 6V12C35 15.3137 32.3137 18 29 18H0V6Z" fill="#FF0066"/>
<path d="M12.0361 5.22266V13H10.4785L7.32027 8.43457H7.26656V13H5.44039V5.22266H7.01949L10.1455 9.78809H10.2099V5.22266H12.0361ZM13.0527 13V5.22266H18.4346V6.71582H14.8789V8.35938H18.1553V9.85254H14.8789V11.5068H18.4453V13H13.0527ZM21.2774 13L19.0323 5.22266H21.0518L22.2442 10.3789H22.3086L23.6621 5.22266H25.3272L26.6914 10.3896H26.7452L27.9483 5.22266H29.9678L27.712 13H25.9502L24.5323 8.20898H24.4678L23.0498 13H21.2774Z" fill="white"/>
</svg>
