<svg width="24" height="24" viewBox="0 0 24 24" fill="none" xmlns="http://www.w3.org/2000/svg" class="fill">
<path d="M12.8 20H11.2V22H12.8V20Z" fill="#F7F7F8"/>
<path d="M12.8 2H11.2V4H12.8V2Z" fill="#F7F7F8"/>
<path d="M6.91607 18.2215L5.7847 17.0901L4.37049 18.5043L5.50186 19.6357L6.91607 18.2215Z" fill="#F7F7F8"/>
<path d="M19.6319 5.48439L18.5006 4.35302L17.0864 5.76723L18.2177 6.8986L19.6319 5.48439Z" fill="#F7F7F8"/>
<path d="M4 12.8V11.2H2V12.8H4Z" fill="#F7F7F8"/>
<path d="M22 12.8V11.2H20V12.8H22Z" fill="#F7F7F8"/>
<path d="M5.78001 6.90754L6.91138 5.77617L5.49717 4.36196L4.3658 5.49333L5.78001 6.90754Z" fill="#F7F7F8"/>
<path d="M18.5041 19.6305L19.6355 18.4991L18.2213 17.0849L17.0899 18.2163L18.5041 19.6305Z" fill="#F7F7F8"/>
<path d="M12 18C15.3137 18 18 15.3137 18 12C18 8.68629 15.3137 6 12 6C8.68629 6 6 8.68629 6 12C6 15.3137 8.68629 18 12 18Z" fill="#F7F7F8"/>
</svg>
