<svg width="24" height="24" viewBox="0 0 24 24" fill="none" xmlns="http://www.w3.org/2000/svg" class="fill">
<path d="M15.9901 10.1C16.4901 10.1 16.8901 10.5 16.8901 11C16.8901 11.5 16.4901 11.9 15.9901 11.9C15.4901 11.9 15.0901 11.5 15.0901 11C15.0901 10.5 15.4901 10.1 15.9901 10.1Z" fill="#F7F7F8"/>
<path d="M12.84 7.70996H14.44V5H19.9999L21.9999 17V17.07C21.9999 19.24 20.2399 21 18.0699 21C16.2599 21 14.6799 19.77 14.2499 18.01L13.9999 17.01H9.99989L9.73989 18.03C9.29989 19.78 7.72989 21 5.92989 21C3.75989 21 1.99989 19.24 1.99989 17.07V17L3.99989 5H11.2399V2H12.8399L12.84 7.70996ZM7.20966 11.8V13.5H8.80966V11.8H10.4999V10.2H8.80966V8.5H7.20966V10.2H5.49989V11.8H7.20966ZM15.9901 8.5C14.6101 8.5 13.4901 9.62 13.4901 11C13.4901 12.38 14.6101 13.5 15.9901 13.5C17.3701 13.5 18.4901 12.38 18.4901 11C18.4901 9.62 17.3701 8.5 15.9901 8.5Z" fill="#F7F7F8"/>
</svg>
