<svg width="24" height="24" viewBox="0 0 24 24" fill="none" xmlns="http://www.w3.org/2000/svg" class="fill" >
<path d="M19.9097 4H17.9997V2.5H5.99969V4H2.17969V6.5C2.17969 7.08 2.27969 7.62 2.47969 8.12C2.67969 8.62 2.97969 9.08 3.36969 9.5C3.53969 9.68 3.70969 9.83 3.89969 9.97C4.05969 10.09 4.22969 10.2 4.39969 10.3V8.41C4.39969 8.41 4.37969 8.39 4.36969 8.38C4.35969 8.37 4.34969 8.36 4.33969 8.34C4.11969 8.08 3.95969 7.79 3.84969 7.48C3.73969 7.17 3.68969 6.85 3.68969 6.5V5.5H6.00969V10.5C6.00969 13.56 8.29969 16.08 11.2597 16.45V19.5H7.69969V21H16.3197V19.5H12.7597V16.45C15.7197 16.08 18.0097 13.56 18.0097 10.5V5.5H20.3297V6.5C20.3297 6.85 20.2797 7.18 20.1697 7.48C20.0597 7.79 19.8997 8.07 19.6797 8.34C19.6697 8.35 19.6597 8.36 19.6497 8.38C19.6397 8.39 19.6297 8.4 19.6197 8.41V10.3C19.7897 10.2 19.9597 10.09 20.1197 9.97C20.3097 9.83 20.4797 9.68 20.6497 9.5C21.0497 9.08 21.3397 8.62 21.5397 8.12C21.7397 7.62 21.8397 7.08 21.8397 6.5V4H19.9297H19.9097ZM16.3997 10.5C16.3997 12.93 14.4297 14.9 11.9997 14.9C9.56969 14.9 7.59969 12.93 7.59969 10.5V4.1H16.3997V10.5Z" fill="#F7F7F8"/>
</svg>
