<svg width="24" height="24" viewBox="0 0 24 24" fill="none" xmlns="http://www.w3.org/2000/svg" class="fill">
<g clip-path="url(#clip0_5275_7076)">
<path d="M17.5401 8.71C18.1601 8.09 18.1601 7.07 17.5401 6.45C16.9201 5.83 15.9001 5.83 15.2801 6.45C14.6601 7.07 14.6601 8.09 15.2801 8.71C15.9001 9.33 16.9201 9.33 17.5401 8.71Z" fill="#F7F7F8"/>
<path d="M6.08867 11.8216L4.9573 12.9529L11.0384 19.0341L12.1698 17.9027L6.08867 11.8216Z" fill="#F7F7F8"/>
<path d="M11.4001 2L0.430054 12.96L11.0301 23.56L12.1601 22.43L2.69005 12.96L12.0601 3.6H20.4001V11.94L12.1601 20.17L13.3001 21.3L22.0001 12.6V2H11.4001Z" fill="#F7F7F8"/>
</g>
<defs>
<clipPath id="clip0_5275_7076">
<rect width="24" height="24" fill="white"/>
</clipPath>
</defs>
</svg>
