<svg width="24" height="24" viewBox="0 0 24 24" fill="none" xmlns="http://www.w3.org/2000/svg" class="fill">
<path d="M6.99996 8.07701C8.39996 8.07701 9.53996 6.93768 9.53996 5.53851C9.53996 4.13933 8.39996 3 6.99996 3C5.59996 3 4.45996 4.13933 4.45996 5.53851C4.45996 6.93768 5.59996 8.07701 6.99996 8.07701ZM6.99996 4.59906C7.51996 4.59906 7.93996 5.01881 7.93996 5.53851C7.93996 6.0582 7.51996 6.47795 6.99996 6.47795C6.47996 6.47795 6.05996 6.0582 6.05996 5.53851C6.05996 5.01881 6.47996 4.59906 6.99996 4.59906Z" fill="#F7F7F8"/>
<path d="M5.4 15.4128H3.6V11.1653L5.11 10.2558H8V8.65674H4.67L2 10.2558V17.0118H5.4V15.4128Z" fill="#F7F7F8"/>
<path d="M17 8.07701C18.4 8.07701 19.54 6.93768 19.54 5.53851C19.54 4.13933 18.4 3 17 3C15.6 3 14.46 4.13933 14.46 5.53851C14.46 6.93768 15.6 8.07701 17 8.07701ZM17 4.59906C17.52 4.59906 17.94 5.01881 17.94 5.53851C17.94 6.0582 17.52 6.47795 17 6.47795C16.48 6.47795 16.06 6.0582 16.06 5.53851C16.06 5.01881 16.48 4.59906 17 4.59906Z" fill="#F7F7F8"/>
<path d="M18.6 15.4128V17.0118H22V10.2558L19.33 8.65674H16V10.2558H18.89L20.4 11.1653V15.4128H18.6Z" fill="#F7F7F8"/>
<path d="M9.46995 8.61675C9.46995 8.61675 9.46995 8.7067 9.47995 8.74667C9.58995 10.0459 10.67 11.0653 12 11.0653C13.33 11.0653 14.41 10.0359 14.52 8.74667C14.52 8.7067 14.53 8.65673 14.53 8.61675C14.53 8.58677 14.53 8.56678 14.53 8.5368C14.53 7.13762 13.39 5.99829 11.99 5.99829C10.59 5.99829 9.44995 7.13762 9.44995 8.5368C9.44995 8.56678 9.44995 8.58677 9.44995 8.61675H9.46995ZM12 7.59735C12.52 7.59735 12.94 8.0171 12.94 8.5368C12.94 8.56678 12.93 8.58677 12.92 8.61675C12.88 9.09647 12.49 9.47624 12 9.47624C11.51 9.47624 11.12 9.09647 11.08 8.61675C11.08 8.58677 11.06 8.56678 11.06 8.5368C11.06 8.0171 11.48 7.59735 12 7.59735Z" fill="#F7F7F8"/>
<path d="M14.83 11.9549L14.33 11.655H9.67L9.17 11.9549L8.6 12.2947L7 13.2541V20.0001H17V13.2541L15.4 12.2947L14.83 11.9549ZM15.4 15.4128V18.4111H8.6V14.1636L10.11 13.2641H13.88L15.39 14.1636V15.4128H15.4Z" fill="#F7F7F8"/>
</svg>
