<svg width="24" height="24" viewBox="0 0 24 24" fill="none" xmlns="http://www.w3.org/2000/svg" class="fill">
<path d="M21.27 8.26H19.51C20.07 9.39 20.4 10.66 20.4 12C20.4 16.63 16.63 20.4 12 20.4C7.37 20.4 3.6 16.64 3.6 12C3.6 7.36 7.37 3.6 12 3.6C12.61 3.6 13.2 3.67 13.77 3.79L15.07 2.49C14.1 2.18 13.07 2 12 2C6.48 2 2 6.48 2 12C2 17.52 6.48 22 12 22C17.52 22 22 17.52 22 12C22 10.68 21.74 9.42 21.27 8.26Z" fill="#F7F7F8"/>
<path d="M17.3801 2.78011L18.3001 1.86011L19.6201 3.19011L20.8201 4.38011L21.2601 4.82011L18.3001 7.78011L17.3801 6.86011L18.7701 5.47011H15.0801V4.17011H18.7701L17.3801 2.78011Z" fill="#F7F7F8"/>
<path d="M8 8V16H16V8H8ZM14.4 14.4H9.6V9.6H14.4V14.4Z" fill="#F7F7F8"/>
</svg>
