<svg width="24" height="24" viewBox="0 0 24 24" fill="none" xmlns="http://www.w3.org/2000/svg" class="fill">
<path d="M10 18.02C14.42 18.02 18 14.44 18 10.02C18 5.60002 14.42 2.02002 10 2.02002C5.58 2.02002 2 5.61002 2 10.02C2 14.43 5.58 18.02 10 18.02ZM10 3.62002C13.53 3.62002 16.4 6.49002 16.4 10.02C16.4 13.55 13.53 16.42 10 16.42C6.47 16.42 3.6 13.55 3.6 10.02C3.6 6.49002 6.47 3.62002 10 3.62002Z" fill="#F7F7F8"/>
<path d="M17.1243 15.9941L15.9929 17.1255L20.4335 21.5661L21.5649 20.4347L17.1243 15.9941Z" fill="#F7F7F8"/>
</svg>
