<svg width="24" height="24" viewBox="0 0 24 24" fill="none" xmlns="http://www.w3.org/2000/svg" class="fill">
<path d="M12 1.5L21 6.88001V8.74664L19.4 7.79168V7.79001L12 3.36L4.6 7.79001V14.3588L3 13.4039V6.88001L12 1.5ZM6.07031 8.75H7.20032L8.27283 11.6152L7.25574 11.8091L7.30031 15.25H6.07031V8.75ZM8.55031 8.75H9.78031V15.25H8.72031L7.58163 12.26L8.59469 12.0696L8.55031 8.75ZM10.6992 8.75H13.8392V9.83H11.9292V11.4H13.7792V12.48H11.9292V15.25H10.6992V8.75ZM14.3398 8.75H17.9298V9.83H16.7498V15.25H15.5198V9.83H14.3398V8.75ZM19.4 9.65501L21 10.6099V17.12L12 22.5L3 17.12V15.2671L5.52991 16.7771L5.53449 16.7694L12 20.64L19.4 16.21V9.65501Z" fill="#F7F7F8"/>
</svg>
