<svg xmlns="http://www.w3.org/2000/svg" width="24" height="24" viewBox="0 0 24 24" fill="none" class='fill'>
<path d="M18.03 18.8V17.2C18.03 14.97 16.81 13.04 15.01 12C16.81 10.96 18.03 9.03 18.03 6.8V5.2H16.43V6.8C16.43 9.23 14.46 11.2 12.03 11.2C9.6 11.2 7.63 9.23 7.63 6.8V5.2H6.03V6.8C6.03 9.03 7.25 10.96 9.05 12C7.25 13.04 6.03 14.97 6.03 17.2V18.8H7.63V17.2C7.63 14.77 9.6 12.8 12.03 12.8C14.46 12.8 16.43 14.77 16.43 17.2V18.8H18.03Z" fill="#F7F7F8"/>
<path d="M20 2H4V3.6H20V2Z" fill="#F7F7F8"/>
<path d="M20 20.4H4V22H20V20.4Z" fill="#F7F7F8"/>
</svg>