<svg width="54" height="7" viewBox="0 0 54 7" fill="none" xmlns="http://www.w3.org/2000/svg">
<g opacity="0.65">
<path d="M1.98086 0.17334C1.66228 0.17334 1.39267 0.291899 1.17527 0.510194C0.957826 0.728482 0.839844 0.998983 0.839844 1.31859V5.68129C0.839844 6.00084 0.95782 6.27139 1.17526 6.48963C1.39267 6.70793 1.66228 6.82649 1.98086 6.82649H7.43604V5.96384H1.98086C1.9069 5.96384 1.82829 5.92572 1.77507 5.87232C1.70768 5.80462 1.68386 5.74189 1.68386 5.66539V1.33444C1.68386 1.2599 1.72194 1.18089 1.77511 1.12747C1.84256 1.05982 1.90495 1.03599 1.98086 1.03599H7.43604V0.17334H1.98086Z" fill="#37383C" fill-opacity="0.61"/>
<path fill-rule="evenodd" clip-rule="evenodd" d="M27.0341 0.17334H21.5632V6.81064H22.423V4.35823C22.4601 4.36185 22.4944 4.36535 22.5256 4.36852L22.5323 4.36921C22.6095 4.37708 22.6714 4.38339 22.7042 4.38339H25.0438L27.0823 6.79479H28.2197L26.1812 4.36754H27.0341C27.353 4.36754 27.6222 4.24897 27.8397 4.0307C28.0572 3.81239 28.1751 3.54189 28.1751 3.22229V1.31859C28.1751 0.998998 28.0572 0.72849 27.8397 0.510189C27.6222 0.291914 27.353 0.17334 27.0341 0.17334ZM22.4985 1.12747C22.5659 1.05983 22.6283 1.03599 22.7042 1.03599H27.0181C27.0881 1.03599 27.1503 1.07017 27.206 1.12491C27.2595 1.19337 27.2837 1.25772 27.2837 1.33444V3.23814C27.2837 3.31706 27.2584 3.379 27.2087 3.42914C27.1584 3.47938 27.0966 3.50484 27.0181 3.50484H22.7042C22.6227 3.50484 22.5467 3.47706 22.4987 3.42896L22.493 3.42433C22.4316 3.37504 22.4072 3.3158 22.4072 3.23814V1.33444C22.4072 1.2599 22.4453 1.18089 22.4985 1.12747Z" fill="#37383C" fill-opacity="0.61"/>
<path d="M38.5261 0.17334H31.9141V1.03599H34.7901V6.81064H35.6495V1.03599H38.5261V0.17334Z" fill="#37383C" fill-opacity="0.61"/>
<path d="M43.1719 0.17334H42.3125V6.81064H43.1719V0.17334Z" fill="#37383C" fill-opacity="0.61"/>
<path d="M48.403 0.17334H47.5271V6.81064H48.403V3.92334H50.391L52.8091 6.81064H53.9303L51.1566 3.49187L53.9142 0.17334H52.8091L50.391 3.06064H48.403V0.17334Z" fill="#37383C" fill-opacity="0.61"/>
<path d="M17.4913 0.189239H11.4482V6.82649H17.4913V5.96384H12.308V3.93919H16.4799V3.06064H12.308V1.03599H17.4913V0.189239Z" fill="#37383C" fill-opacity="0.61"/>
</g>
</svg>
