<svg width="24" height="24" viewBox="0 0 24 24" fill="none" xmlns="http://www.w3.org/2000/svg" class="fill">
<path d="M5.39 21H21V6.37001H5.48C4.99 6.37001 4.6 5.97001 4.6 5.49001C4.6 5.01001 5 4.61001 5.48 4.61001H19.01V3.01001H5.48C4.14 3.01001 3.05 4.07001 3 5.40001V18.62C3 19.94 4.07 21.01 5.39 21.01V21ZM4.6 7.81001C4.87 7.91001 5.17 7.97001 5.48 7.97001H19.4V19.4H5.39C4.96 19.4 4.6 19.05 4.6 18.61V7.81001Z" fill="#F7F7F8"/>
<path d="M16.9301 14.5699C17.5201 14.5699 18.0001 14.0899 18.0001 13.4999C18.0001 12.9099 17.5201 12.4299 16.9301 12.4299C16.3401 12.4299 15.8601 12.9099 15.8601 13.4999C15.8601 14.0899 16.3401 14.5699 16.9301 14.5699Z" fill="#F7F7F8"/>
</svg>
