<svg width="24" height="24" viewBox="0 0 24 24" fill="none" xmlns="http://www.w3.org/2000/svg" class="fill medium-color">
<path d="M18.711 2C20.5275 2 22 3.47248 22 5.28899V18.711C22 20.5275 20.5275 22 18.711 22H5.28899C3.47248 22 2 20.5275 2 18.711V5.28899C2 3.47248 3.47248 2 5.28899 2H18.711Z" fill="black"/>
<path d="M22 10.3289C21.9587 10.2693 21.9129 10.2142 21.867 10.1684C21.6928 10.0033 21.4727 9.91621 21.2068 9.91162C20.3494 9.92996 19.8358 10.957 19.7716 12.383H22V12.7774H19.7349V12.7819C19.6478 14.3455 20.6199 15.6385 21.8946 15.7302C21.9312 15.7302 21.9633 15.7302 22 15.7348V17.2892C21.7387 17.3625 21.4498 17.4038 21.1426 17.4038L21.1472 17.3946C19.1114 17.3946 17.9605 15.6981 17.9146 13.5752C17.9146 13.4422 17.9146 13.3092 17.9192 13.1808V13.1029C17.9192 13.0754 17.9192 13.0479 17.9238 13.0204C17.9972 12.0804 18.2998 11.2459 18.7996 10.6315C19.1114 10.2463 19.4828 9.95747 19.9046 9.76031C20.276 9.57232 20.7941 9.47145 21.2205 9.47145H21.2389C21.5002 9.47145 21.757 9.49896 22 9.55398V10.3289Z" fill="white"/>
<path d="M18.0109 17.1791H14.1181V17.0645H14.1319C14.6362 16.9453 14.9159 16.7802 14.9664 16.2483V8.34349L11.2157 17.1608H11.0094L7.36415 8.58192V16.0512C7.36415 16.7298 7.64843 16.9178 8.20323 17.0416H8.21699V17.1608H5.98401V17.0462H5.99776C6.55716 16.9178 6.84144 16.7298 6.84144 16.0512V8.12341C6.84144 7.4448 6.55716 7.25681 6.00235 7.13301H5.98859V7.01379H9.28075L12.119 13.6852L14.9572 7.01379H18.0155V7.12842H18.0017C17.4424 7.25681 17.1627 7.4448 17.1627 8.12341V16.2483C17.2131 16.7848 17.502 16.9499 18.0063 17.0645H18.0201V17.1837L18.0109 17.1791Z" fill="white"/>
</svg>
