<svg width="24" height="24" viewBox="0 0 24 24" fill="none" xmlns="http://www.w3.org/2000/svg" class="fill">
<path d="M12.0003 4.57007C7.45031 4.57007 3.55031 7.30007 1.82031 11.2001H3.63031C5.28031 8.15007 8.47031 6.17007 12.0003 6.17007C15.5303 6.17007 18.7303 8.15007 20.3703 11.2001H22.1803C20.4503 7.30007 16.5503 4.57007 12.0003 4.57007Z" fill="#F7F7F8"/>
<path d="M12.0003 17.83C8.47031 17.83 5.27031 15.85 3.63031 12.8H1.82031C3.55031 16.7 7.45031 19.43 12.0003 19.43C16.5503 19.43 20.4503 16.7 22.1803 12.8H20.3703C18.7203 15.85 15.5303 17.83 12.0003 17.83Z" fill="#F7F7F8"/>
<path d="M15.92 12.8C15.55 14.63 13.94 16 12 16C10.06 16 8.45 14.63 8.08 12.8C8.03 12.54 8 12.27 8 12C8 11.73 8.03 11.46 8.08 11.2C8.45 9.37 10.06 8 12 8C13.94 8 15.55 9.37 15.92 11.2C15.97 11.46 16 11.73 16 12C16 12.27 15.97 12.54 15.92 12.8ZM9.75 11.2C9.66 11.45 9.6 11.72 9.6 12C9.6 12.28 9.66 12.55 9.75 12.8C10.08 13.73 10.96 14.4 12 14.4C13.04 14.4 13.92 13.73 14.25 12.8C14.34 12.55 14.4 12.28 14.4 12C14.4 11.72 14.34 11.45 14.25 11.2C13.92 10.27 13.04 9.6 12 9.6C10.96 9.6 10.08 10.27 9.75 11.2Z" fill="#F7F7F8"/>
</svg>
