<svg width="24" height="24" viewBox="0 0 24 24" fill="none" xmlns="http://www.w3.org/2000/svg" class="fill">
<path d="M17.8552 9.05494L19.846 5.60619C19.9582 5.41287 19.8902 5.16718 19.6997 5.05493C19.5089 4.94269 19.2607 5.00785 19.151 5.20117L17.134 8.69419C15.595 7.99141 13.863 7.59948 12 7.59948C10.137 7.59948 8.40502 7.99141 6.86601 8.69419L4.84901 5.20148C4.73677 5.00817 4.49107 4.94269 4.29776 5.05525C4.10445 5.16749 4.03897 5.41319 4.15153 5.6065L6.14233 9.05525C2.70949 10.9154 0.38413 14.39 0 18.458H24C23.6159 14.39 21.2905 10.9151 17.8549 9.05494H17.8552ZM6.48998 15.0875C5.93343 15.0875 5.48414 14.6354 5.48414 14.0817C5.48414 13.5279 5.93624 13.0758 6.48998 13.0758C7.04373 13.0758 7.49583 13.5279 7.49583 14.0817C7.49832 14.6354 7.04654 15.0875 6.48998 15.0875ZM17.5075 15.0875C16.951 15.0875 16.5017 14.6354 16.5017 14.0817C16.5017 13.5279 16.9538 13.0758 17.5075 13.0758C18.0613 13.0758 18.5134 13.5279 18.5134 14.0817C18.5159 14.6354 18.0641 15.0875 17.5075 15.0875Z" fill="#F7F7F8"/>
</svg>
