<svg width="24" height="24" viewBox="0 0 24 24" fill="none" xmlns="http://www.w3.org/2000/svg" class="fill">
<path d="M18.05 6.02011C18.05 4.14011 16.75 2.56011 15 2.11011V3.79011C15.85 4.17011 16.45 5.02011 16.45 6.02011C16.45 7.02011 15.85 7.86011 15 8.25011V9.93011C16.75 9.48011 18.05 7.91011 18.05 6.02011Z" fill="#F7F7F8"/>
<path d="M21.96 13.55L19 11.77V13.64L20.36 14.45V19.38H19V20.98H21.96V13.55Z" fill="#F7F7F8"/>
<path d="M12 2.52998C11.41 2.18998 10.73 1.97998 9.99995 1.97998C9.71995 1.97998 9.43995 2.00998 9.17995 2.05998C7.33995 2.43998 5.94995 4.06998 5.94995 6.01998C5.94995 7.96998 7.33995 9.59998 9.17995 9.97998C9.44995 10.03 9.71995 10.06 9.99995 10.06C10.73 10.06 11.41 9.84998 12 9.50998C12.51 9.21998 12.96 8.81998 13.3 8.33998C13.77 7.67998 14.05 6.87998 14.05 6.00998C14.05 5.13998 13.77 4.33998 13.3 3.67998C12.96 3.19998 12.52 2.80998 12 2.50998V2.52998ZM10.7 8.34998C10.48 8.41998 10.24 8.46998 9.99995 8.46998C9.70995 8.46998 9.43995 8.40998 9.17995 8.31998C8.23995 7.97998 7.54995 7.08998 7.54995 6.02998C7.54995 4.96998 8.22995 4.07998 9.17995 3.73998C9.43995 3.64998 9.70995 3.58998 9.99995 3.58998C10.25 3.58998 10.48 3.63998 10.7 3.70998C11.23 3.86998 11.69 4.19998 12 4.63998C12.28 5.03998 12.45 5.51998 12.45 6.03998C12.45 6.55998 12.28 7.03998 12 7.43998C11.69 7.87998 11.23 8.20998 10.7 8.36998V8.34998Z" fill="#F7F7F8"/>
<path d="M17.97 20.98V13.55L16.39 12.61L13.71 11.01H6.29004L2.04004 13.55V20.98H17.97ZM3.64004 19.38V14.46L3.73004 14.4L6.73004 12.6H13.26L16.36 14.45V19.37H3.64004V19.38Z" fill="#F7F7F8"/>
</svg>
