<svg width="24" height="24" viewBox="0 0 24 24" fill="none" xmlns="http://www.w3.org/2000/svg" class="fill">
<path d="M12 19.2695C11.5875 19.2695 11.2344 19.1225 10.9408 18.8287C10.6469 18.535 10.5 18.182 10.5 17.7695C10.5 17.357 10.6469 17.0038 10.9408 16.71C11.2344 16.4163 11.5875 16.2695 12 16.2695C12.4125 16.2695 12.7656 16.4163 13.0592 16.71C13.3531 17.0038 13.5 17.357 13.5 17.7695C13.5 18.182 13.3531 18.535 13.0592 18.8287C12.7656 19.1225 12.4125 19.2695 12 19.2695ZM12 13.5002C11.5875 13.5002 11.2344 13.3533 10.9408 13.0595C10.6469 12.7658 10.5 12.4127 10.5 12.0002C10.5 11.5877 10.6469 11.2346 10.9408 10.941C11.2344 10.6471 11.5875 10.5002 12 10.5002C12.4125 10.5002 12.7656 10.6471 13.0592 10.941C13.3531 11.2346 13.5 11.5877 13.5 12.0002C13.5 12.4127 13.3531 12.7658 13.0592 13.0595C12.7656 13.3533 12.4125 13.5002 12 13.5002ZM12 7.73096C11.5875 7.73096 11.2344 7.58412 10.9408 7.29046C10.6469 6.99662 10.5 6.64346 10.5 6.23096C10.5 5.81846 10.6469 5.46537 10.9408 5.17171C11.2344 4.87787 11.5875 4.73096 12 4.73096C12.4125 4.73096 12.7656 4.87787 13.0592 5.17171C13.3531 5.46537 13.5 5.81846 13.5 6.23096C13.5 6.64346 13.3531 6.99662 13.0592 7.29046C12.7656 7.58412 12.4125 7.73096 12 7.73096Z" fill="#F7F7F8"/>
</svg>
