<svg width="140" height="28" viewBox="0 0 140 28" fill="none" xmlns="http://www.w3.org/2000/svg">
<g clip-path="url(#clip0_373_9116)">
<path d="M35.3888 6.90625H38.3512V17.8771C38.364018.4151 38.4915 18.823 38.7769 19.0992C39.0592 19.3754 39.4578 19.5135 39.9728 19.5135C40.5245 19.5135 40.9342 19.3627 41.1973 19.0627C41.4604 18.7627 41.5911 18.3612 41.5911 17.8596V6.90625H44.5536V17.7612C44.5536 18.2881 44.4755 18.7707 44.316 19.2103C44.1582 19.6484 43.9047 20.0277 43.5555 20.3483C43.2063 20.669 42.7567 20.915 42.2018 21.0912C41.6501 21.2673 40.9773 21.3546 40.188 21.3546C39.2664 21.3546 38.5394 21.2324 38.0068 20.988C37.4743 20.7436 37.0948 20.4706 36.8716 20.1706C36.6468 20.4721 36.2689 20.7436 35.7363 20.988C35.2038 21.2324 34.4751 21.3546 33.5552 21.3546C32.7643 21.3546 32.093 21.2673 31.5414 21.0912C30.9897 20.915 30.5369 20.669 30.1877 20.3483C29.8385 20.0277 29.585 19.6484 29.4271 19.2103C29.2693 18.7722 29.1912 18.2881 29.1912 17.7612V6.90625H32.1536V17.858C32.1536 18.3596 32.2844 18.7595 32.5475 19.0611C32.8105 19.3611 33.2187 19.5119 33.772 19.5119C34.2854 19.5119 34.6824 19.3738 34.9678 19.0976C35.25 18.823 35.3935 18.4151 35.3935 17.8755V6.90625H35.3888Z" fill="black"/>
<path d="M47.3757 6.90625H55.2746V8.75059H50.3382V12.7393H54.9796V14.5836H50.3382V19.2294H55.4739V21.0737H47.3773V6.90625H47.3757Z" fill="black"/>
<path d="M63.9053 10.1012C63.9053 9.56317 63.7634 9.15685 63.4795 8.87908C63.1973 8.6045 62.7987 8.46482 62.2837 8.46482C61.732 8.46482 61.3223 8.61561 61.0592 8.91559C60.7961 9.21557 60.6654 9.61714 60.6654 10.1187V21.0705H57.7029V10.2155C57.7029 9.69015 57.781 9.20605 57.9389 8.76639C58.0967 8.32674 58.3502 7.94739 58.6994 7.62836C59.0486 7.30775 59.4982 7.06173 60.0531 6.88555C60.6048 6.70937 61.2776 6.62207 62.0669 6.62207C62.9885 6.62207 63.7155 6.74429 64.2481 6.9903C64.7822 7.23473 65.1585 7.50773 65.3833 7.8093C65.6081 7.50773 65.986 7.23632 66.5186 6.9903C67.0527 6.74587 67.7782 6.62207 68.6997 6.62207C69.4906 6.62207 70.1603 6.70937 70.7135 6.88555C71.2668 7.06173 71.718 7.30933 72.0672 7.62836C72.4164 7.94898 72.6699 8.32832 72.8278 8.76639C72.9856 9.20605 73.0653 9.68698 73.0653 10.2155V21.0705H70.1029V10.1203C70.1029 9.61873 69.9721 9.21875 69.709 8.91718C69.446 8.6172 69.0378 8.46641 68.4845 8.46641C67.9711 8.46641 67.5725 8.6045 67.2887 8.88067C67.0065 9.15685 66.863 9.56317 66.863 10.1028V21.0736H63.9005V10.1012H63.9053Z" fill="black"/>
<path d="M78.855 21.0717H75.8926V6.9043H78.855V21.0702V21.0717Z" fill="black"/>
<path d="M80.9887 6.90625H83.9719L86.0462 11.3076L88.0999 6.90625H91.1022L87.5275 13.9043L91.2409 21.0721H88.1605L86.0478 16.3867L83.9352 21.0721H80.8547L84.5682 13.9043L80.9935 6.90625H80.9903H80.9887Z" fill="black"/>
<path d="M106.981 12.2103C106.981 13.2166 106.643 14.0039 105.964 14.5769C105.285 15.1499 104.164 15.434 102.596 15.434H100.187V21.0971H97.2246V6.92969H102.596C103.387 6.92969 104.058 7.00429 104.61 7.15507C105.162 7.30586 105.615 7.52013 105.964 7.7963C106.313 8.07248 106.57 8.40897 106.734 8.80418C106.898 9.20099 106.981 9.64858 106.981 10.1517V12.2072V12.2103ZM100.187 13.5896H102.201C102.872 13.5896 103.342 13.45 103.612 13.1674C103.881 12.8865 104.017 12.477 104.017 11.9389V10.4216C104.017 9.88508 103.878 9.47557 103.602 9.19464C103.327 8.9137 102.851 8.77244 102.18 8.77244H100.185V13.588L100.187 13.5896Z" fill="black"/>
<path d="M109.213 6.92969H112.176V19.2528H117.311V21.0971H109.215V6.92969H109.213Z" fill="black"/>
<path d="M122.168 16.7323L121.457 21.0971H118.377L120.925 6.92969H127.086L129.633 21.0971H126.553L125.842 16.7323H122.17H122.168ZM125.564 14.888L124.539 8.77403H123.473L122.446 14.888H125.566H125.564Z" fill="black"/>
<path d="M133.227 21.0955V15.6022L129.417 6.92969H132.457L134.708 13.0817L136.96 6.92969H140.002L136.19 15.6022V21.0955H133.227Z" fill="black"/>
<path d="M0 8.16113V24.665L5.57736 28.0013V11.4975L0 8.16113Z" fill="#FF0066" class="color-wemixplay"/>
<path opacity="0.7" d="M11.5167 13.3659L0 6.47741V0L21.7514 13.0104L16.7496 16.4959L11.5167 13.3659Z" fill="#FF0066" class="color-wemixplay"/>
<path opacity="0.4" d="M16.75 16.4962L7.0271 23.2736V16.4962L11.517 13.3662L16.75 16.4962Z" fill="#FF0066" class="color-wemixplay"/>
</g>
<defs>
<clipPath id="clip0_373_9116">
<rect width="140" height="28" fill="white"/>
</clipPath>
</defs>
</svg>
