<svg width="48" height="48" viewBox="0 0 48 48" fill="none" xmlns="http://www.w3.org/2000/svg">
<path fill-rule="evenodd" clip-rule="evenodd" d="M42.8983 42.8983C42.1635 43.6328 41.2961 44 40.2961 44H7.70388C6.70388 44 5.83648 43.6328 5.10166 42.8983C4.36722 42.1635 4 41.2961 4 40.2961V7.70389C4 6.70389 4.36722 5.83648 5.10166 5.10167C5.83648 4.36722 6.70388 4 7.70388 4H40.2961C41.2961 4 42.1635 4.36722 42.8983 5.10167C43.6328 5.83648 44 6.70389 44 7.70389V40.2961C44 41.2961 43.6328 42.1635 42.8983 42.8983ZM7.70388 40.2961H40.2961V35.2391L34.4442 27.983L28.2955 35.879C27.9834 36.2798 27.5054 36.5164 26.9973 36.5215C26.4893 36.5267 26.0066 36.2997 25.6864 35.9052L16.6032 24.7129L7.70388 35.9236V40.2961ZM7.70388 30.5624V7.70389H40.2961V29.9293L36.8189 25.6177L36.8065 25.6023L36.7937 25.5871C36.2003 24.8861 35.3806 24.4867 34.4407 24.4867C33.5009 24.4867 32.6815 24.8859 32.0878 25.586L32.0653 25.6125L32.044 25.6399L26.9536 32.1769L18.9763 22.3472L18.965 22.3334L18.9535 22.3197C18.3597 21.6193 17.5402 21.221 16.6012 21.221C15.6624 21.221 14.8432 21.6192 14.2492 22.3186L14.2313 22.3396L14.2141 22.3612L7.70388 30.5624ZM29.6761 18.3194C30.2502 18.8965 30.9493 19.185 31.7733 19.185C32.5978 19.185 33.2983 18.898 33.875 18.3239C34.452 17.7498 34.7406 17.0507 34.7406 16.2267C34.7406 15.4022 34.4535 14.7017 33.8794 14.125C33.3054 13.548 32.6063 13.2594 31.7822 13.2594C30.9578 13.2594 30.2572 13.5465 29.6806 14.1206C29.1035 14.6946 28.815 15.3937 28.815 16.2178C28.815 17.0422 29.102 17.7428 29.6761 18.3194Z" fill="#D7D7D7"/>
</svg>
