<svg width="72" height="72" viewBox="0 0 72 72" fill="none" xmlns="http://www.w3.org/2000/svg">
<rect x="8.00043" y="8" width="56.0001" height="56" rx="28" fill="white"/>
<g clip-path="url(#clip0_149_12228)">
<rect x="8.00043" y="8" width="56.0001" height="56" rx="28" fill="white"/>
<rect width="55.9997" height="55.9998" transform="translate(8.00043 8)" fill="white"/>
<g opacity="0.185">
<path fill-rule="evenodd" clip-rule="evenodd" d="M37.1849 37.5904C41.9187 37.8871 46.3417 39.4229 49.152 41.4162C49.1672 41.427 49.1827 41.4379 49.1984 41.449C49.4342 41.6156 49.7214 41.8184 49.9879 42.1564C50.2077 42.4351 50.4023 42.8117 50.5025 43.1522C50.6247 43.5675 50.6236 43.9661 50.6228 44.2961C50.6227 44.323 50.6227 44.3495 50.6227 44.3754L50.6227 46.7796C50.6227 47.1752 50.6227 47.5517 50.5968 47.869C50.5685 48.2149 50.5026 48.6118 50.3005 49.0084C50.0172 49.5645 49.565 50.0167 49.0089 50.3C48.6123 50.5021 48.2154 50.5681 47.8695 50.5963C47.5522 50.6222 47.1757 50.6222 46.7801 50.6222H25.221C24.8254 50.6222 24.4489 50.6222 24.1316 50.5963C23.7856 50.5681 23.3888 50.5021 22.9922 50.3C22.4361 50.0167 21.9839 49.5645 21.7006 49.0084C21.4985 48.6118 21.4325 48.2149 21.4043 47.869C21.3783 47.5517 21.3784 47.1752 21.3784 46.7796C21.3784 46.7642 21.3784 46.7487 21.3784 46.7333V44.4106C21.3784 44.3828 21.3783 44.3545 21.3783 44.3257C21.3774 43.9869 21.3763 43.5807 21.495 43.1707C21.5943 42.8277 21.7763 42.4689 21.9946 42.1863C22.2545 41.8496 22.5579 41.6288 22.8075 41.4471C22.8267 41.4331 22.8456 41.4194 22.8641 41.4059C27.2003 38.2341 32.4332 37.2926 37.1849 37.5904Z" fill="white"/>
<path fill-rule="evenodd" clip-rule="evenodd" d="M28.7241 28.6542C28.7241 24.6355 31.9819 21.3777 36.0005 21.3777C40.0192 21.3777 43.277 24.6355 43.277 28.6542C43.277 32.6729 40.0192 35.9307 36.0005 35.9307C31.9819 35.9307 28.7241 32.6729 28.7241 28.6542Z" fill="white"/>
</g>
<path fill-rule="evenodd" clip-rule="evenodd" d="M64.0002 8H8.00043V63.9998H64.0002V8ZM36.0005 21.3777C31.9818 21.3777 28.724 24.6355 28.724 28.6542C28.724 32.6729 31.9818 35.9307 36.0005 35.9307C40.0192 35.9307 43.277 32.6729 43.277 28.6542C43.277 24.6355 40.0192 21.3777 36.0005 21.3777ZM49.152 41.4162C46.3417 39.4229 41.9187 37.8871 37.1849 37.5904C32.4332 37.2926 27.2003 38.2341 22.8641 41.4059L22.8075 41.4471L22.8075 41.4471C22.5579 41.6288 22.2545 41.8496 21.9945 42.1863C21.7763 42.4689 21.5943 42.8277 21.495 43.1707C21.3763 43.5807 21.3774 43.9869 21.3783 44.3257L21.3784 44.4106V46.7333L21.3784 46.7796C21.3784 47.1752 21.3783 47.5517 21.4042 47.869C21.4325 48.2149 21.4984 48.6118 21.7005 49.0084C21.9839 49.5645 22.436 50.0167 22.9922 50.3C23.3888 50.5021 23.7856 50.5681 24.1316 50.5963C24.4488 50.6222 24.8252 50.6222 25.2207 50.6222H25.2208H25.2209H25.221H46.7801H46.7802H46.7802H46.7803C47.1758 50.6222 47.5523 50.6222 47.8695 50.5963C48.2154 50.5681 48.6123 50.5021 49.0089 50.3C49.565 50.0167 50.0171 49.5645 50.3005 49.0084C50.5026 48.6118 50.5685 48.2149 50.5968 47.869C50.6227 47.5518 50.6227 47.1754 50.6226 46.7798V46.7797V46.7797V46.7796L50.6226 44.3754L50.6228 44.2961C50.6236 43.9661 50.6247 43.5675 50.5024 43.1522C50.4023 42.8117 50.2077 42.4351 49.9879 42.1564C49.7214 41.8184 49.4342 41.6156 49.1984 41.449L49.152 41.4162Z" fill="#8C9196" fill-opacity="0.205"/>
</g>
<defs>
<clipPath id="clip0_149_12228">
<rect x="8.00043" y="8" width="56.0001" height="56" rx="28" fill="white"/>
</clipPath>
</defs>
</svg>
